<svg width="10" height="10" viewBox="0 0 10 10" fill="none" xmlns="http://www.w3.org/2000/svg">
<rect x="0.25" y="0.25" width="9.5" height="9.5" rx="4.75" fill="#13A6FA" stroke="#1A6DFF" stroke-width="0.5"/>
<path d="M2.62892 3.01251C2.13559 3.10655 2.00528 3.1797 1.6888 3.49317C1.31648 3.84844 1.00931 4.50674 1 4.92471C1 6.12636 1.88427 7.08768 2.91747 6.99364C3.18741 6.96229 3.51319 6.86825 3.6435 6.77421C3.8669 6.60702 3.88552 6.53388 3.88552 5.81289V5.0292H3.27118C2.74062 5.0292 2.66615 5.0501 2.69408 5.20683C2.71269 5.34267 2.8337 5.40537 3.12225 5.42627L3.51319 5.45761V5.91738C3.51319 6.45028 3.36426 6.59657 2.81508 6.59657C2.30314 6.59657 1.86565 6.31445 1.60503 5.81289C1.20478 5.06055 1.37232 4.19326 2.02389 3.69171C2.36829 3.43048 3.05709 3.37823 3.46665 3.58721C3.78313 3.74395 3.95998 3.56632 3.72728 3.32598C3.54112 3.1379 2.91747 2.96026 2.62892 3.01251Z" fill="white"/>
<path d="M5.24956 3.06912C4.89261 3.23784 4.65778 3.60691 4.65778 3.97598C4.65778 4.38723 5.07109 4.89339 5.50318 5.01993C6.14193 5.20973 6.36737 5.92679 5.94467 6.36967C5.69105 6.6333 5.24956 6.67547 4.97715 6.44349C4.60142 6.1166 4.38537 6.39076 4.74232 6.74929C5.00533 7.02346 5.59712 7.07618 5.95406 6.87583C6.27344 6.68602 6.53646 6.22204 6.53646 5.84243C6.53646 5.45227 6.1889 4.92502 5.81316 4.74576C5.24956 4.47159 5.1932 4.43996 5.09927 4.26069C4.95837 4.01816 5.10866 3.55419 5.37167 3.4171C5.56894 3.31165 5.66287 3.3222 5.8977 3.46983C6.23587 3.69127 6.34859 3.69127 6.34859 3.50146C6.34859 3.13239 5.67226 2.86877 5.24956 3.06912Z" fill="white"/>
<path d="M6.95262 4.97161L6.9808 6.95368L7.66639 6.98531C8.34259 7.01694 8.36137 7.0064 8.68068 6.64794C8.95304 6.34219 9 6.21567 9 5.79396C9 5.39333 8.95304 5.24572 8.72764 4.99269C8.46468 4.69749 8.45529 4.67641 8.59616 4.37066C8.70886 4.11763 8.70886 3.98057 8.62433 3.68537C8.46468 3.15822 8.22049 3.00008 7.52551 3.00008H6.93384L6.95262 4.97161ZM8.18293 3.65374C8.26745 3.76971 8.34259 3.92786 8.34259 4.0122C8.34259 4.28632 7.97631 4.58152 7.63821 4.58152H7.3095V3.9384V3.29528L7.66639 3.35854C7.85422 3.40071 8.08901 3.52723 8.18293 3.65374ZM8.36137 5.15084C8.62433 5.37224 8.71825 5.76233 8.57738 6.12079C8.4365 6.50033 8.28624 6.58468 7.72274 6.58468H7.3095V5.79396V5.00324H7.7603C8.00449 5.00324 8.27684 5.06649 8.36137 5.15084Z" fill="white"/>
</svg>
