<svg width="10" height="10" viewBox="0 0 10 10" fill="none" xmlns="http://www.w3.org/2000/svg">
<rect x="0.25" y="0.25" width="9.5" height="9.5" rx="4.75" fill="#13A6FA" stroke="#1A6DFF" stroke-width="0.5"/>
<g clip-path="url(#clip0_2869_19374)">
<path d="M4.7283 2.44284C4.18264 2.47454 3.89509 2.62171 3.85434 2.88209C3.84302 2.96812 3.8317 2.98171 3.7366 3.02699C3.33585 3.22171 2.82868 3.7085 2.71547 4.00963C2.69283 4.06624 2.6883 4.0685 2.53887 4.05492C2.40302 4.04586 2.37585 4.05039 2.30566 4.09794C2.20604 4.16586 2.10189 4.36963 2.04302 4.60737C2.01132 4.74096 2 4.86548 2 5.11228C2 5.4202 2.00453 5.44737 2.0566 5.54246C2.10868 5.6353 2.12226 5.64435 2.2083 5.65114C2.37132 5.66246 2.52302 5.54926 2.83321 5.18246L2.91698 5.08284L3.03925 5.16435C3.20226 5.27303 3.53962 5.44058 3.75245 5.51982C4.47019 5.78473 5.39623 5.79605 6.15245 5.55152C6.36981 5.47907 6.75698 5.29567 6.94264 5.17567L7.08528 5.08284L7.16906 5.18246C7.47698 5.54926 7.62868 5.66246 7.7917 5.65114C7.88 5.64435 7.89132 5.63756 7.9434 5.53114C7.99547 5.42699 8 5.39303 8 5.11228C8 4.62548 7.88 4.22246 7.69434 4.09794C7.62415 4.05039 7.59698 4.04586 7.46113 4.05492C7.3117 4.0685 7.30717 4.06624 7.28453 4.00963C7.17132 3.7085 6.66415 3.22171 6.26566 3.02926C6.17057 2.98397 6.15698 2.96812 6.14566 2.88435C6.10491 2.63303 5.81509 2.4768 5.34189 2.44963C5.23547 2.44284 5.11094 2.43605 5.06792 2.43379C5.02491 2.42926 4.87094 2.43379 4.7283 2.44284ZM5.47547 2.53341C5.70415 2.56963 5.85585 2.62397 5.95094 2.70775C6.18189 2.90473 6.12075 3.14926 5.6634 3.85567C5.30792 4.40586 5.20604 4.63228 5.24 4.80888C5.2717 4.98322 5.48679 5.13492 5.70189 5.13492C5.88981 5.13492 6.21132 5.01039 6.48528 4.82699C6.55094 4.78397 6.72302 4.6436 6.87019 4.51454C7.19623 4.22699 7.34113 4.13643 7.49283 4.12058C7.60151 4.11152 7.6083 4.11379 7.69434 4.20435C7.80528 4.32209 7.88906 4.57341 7.92755 4.90171C7.95472 5.16435 7.92981 5.43379 7.86642 5.53114C7.78717 5.65114 7.58792 5.56511 7.39094 5.32511C7.10792 4.98548 6.93358 4.84058 6.80226 4.84058C6.72075 4.84058 6.70717 4.88133 6.78189 4.89945C6.8634 4.91756 7.01509 5.00133 7.01509 5.02624C7.01509 5.08284 6.43774 5.38171 6.13208 5.4836C5.74491 5.61265 5.52528 5.64209 5 5.64209C4.47472 5.64209 4.25283 5.61039 3.86792 5.4836C3.56453 5.38171 2.98491 5.08058 2.98491 5.02397C2.98491 5.00133 3.14113 4.91756 3.21811 4.89945C3.29283 4.88133 3.27925 4.84058 3.19774 4.84058C3.06642 4.84058 2.89208 4.98548 2.60906 5.32511C2.41208 5.56511 2.21283 5.65114 2.13358 5.53114C2.07019 5.43379 2.04528 5.16435 2.07245 4.90171C2.11094 4.57341 2.19472 4.32209 2.30566 4.20435C2.3917 4.11379 2.39849 4.11152 2.50717 4.12058C2.65887 4.13643 2.80377 4.22699 3.12981 4.51454C3.42642 4.77265 3.55774 4.86775 3.79321 4.98548C4.17132 5.17567 4.4634 5.17794 4.65585 4.99228C4.76 4.89039 4.78491 4.78171 4.73962 4.60737C4.6966 4.43982 4.60151 4.27001 4.32755 3.84662C3.97208 3.29869 3.87472 3.04284 3.93585 2.86171C3.98792 2.70096 4.1917 2.58548 4.51321 2.53341C4.67849 2.50624 5.30566 2.50624 5.47547 2.53341ZM3.87245 3.13114C3.87925 3.16058 3.87472 3.18096 3.8634 3.17416C3.83849 3.15831 3.6166 3.28284 3.45811 3.40511C3.25208 3.5636 2.99623 3.85114 2.91019 4.02322C2.83774 4.16586 2.83094 4.17492 2.79019 4.14548C2.74943 4.11605 2.74943 4.10926 2.82189 3.97341C2.90792 3.8036 3.10038 3.57945 3.30642 3.40511C3.46264 3.27152 3.81811 3.04737 3.84755 3.06322C3.85434 3.07001 3.86792 3.09945 3.87245 3.13114ZM6.39019 3.18322C6.69359 3.36435 7.03547 3.70624 7.17359 3.95982C7.25057 4.10473 7.25736 4.13869 7.20755 4.13869C7.18943 4.13869 7.17359 4.12511 7.17359 4.10699C7.17359 4.0436 6.94491 3.73567 6.79321 3.59077C6.61208 3.42096 6.39245 3.2602 6.24075 3.18548C6.13887 3.13794 6.1117 3.10171 6.14566 3.06775C6.16377 3.0519 6.20226 3.07001 6.39019 3.18322ZM4.32755 5.0602C4.3117 5.06473 4.28453 5.06473 4.27094 5.0602C4.25509 5.05341 4.26642 5.04888 4.29811 5.04888C4.32981 5.04888 4.34113 5.05341 4.32755 5.0602ZM5.73132 5.0602C5.71547 5.06473 5.6883 5.06473 5.67472 5.0602C5.65887 5.05341 5.67019 5.04888 5.70189 5.04888C5.73358 5.04888 5.74491 5.05341 5.73132 5.0602Z" fill="white"/>
<path d="M4.50865 3.01794C4.42714 3.0519 4.3728 3.13568 4.40677 3.16964C4.42035 3.18322 4.44979 3.16964 4.48601 3.13341C4.55846 3.06096 4.65356 3.05643 4.73507 3.11983C4.78941 3.16284 4.84148 3.17869 4.84148 3.15152C4.84148 3.10851 4.78262 3.04284 4.71696 3.01568C4.62186 2.97718 4.60148 2.97718 4.50865 3.01794Z" fill="white"/>
<path d="M5.3487 3.02681C5.26266 3.07888 5.24002 3.11058 5.25813 3.15586C5.26945 3.1853 5.28303 3.18077 5.3419 3.13322C5.42568 3.06303 5.52077 3.05851 5.57737 3.11964C5.62492 3.17171 5.67926 3.17851 5.67926 3.13549C5.67926 3.08341 5.57737 3.00417 5.49587 2.99285C5.44379 2.98605 5.39624 2.99511 5.3487 3.02681Z" fill="white"/>
<path d="M5.08826 3.61781C5.05883 3.69932 5.01808 3.70384 4.97053 3.63365C4.94562 3.59516 4.92977 3.59064 4.9094 3.60875C4.85053 3.66762 4.97959 3.79215 5.06789 3.76498C5.12223 3.74686 5.19015 3.62686 5.17204 3.58158C5.15166 3.5295 5.11317 3.54535 5.08826 3.61781Z" fill="white"/>
<path d="M3.48302 2.76429C3.23396 2.88882 3.05056 3.02693 2.82641 3.25335C2.60679 3.47523 2.47773 3.66316 2.45056 3.79448C2.42566 3.91674 2.47773 3.87825 2.56604 3.71297C2.74717 3.36882 3.10943 3.03599 3.54641 2.81637C3.63698 2.77108 3.7049 2.72354 3.69811 2.71221C3.67547 2.67599 3.63924 2.68504 3.48302 2.76429Z" fill="white"/>
<path d="M6.30186 2.71221C6.29507 2.72353 6.36299 2.77108 6.45356 2.81637C6.89054 3.03599 7.2528 3.36882 7.43394 3.71297C7.52224 3.87825 7.57431 3.91674 7.54941 3.79448C7.49054 3.5024 6.89054 2.92052 6.46035 2.73486C6.34035 2.68278 6.32224 2.68052 6.30186 2.71221Z" fill="white"/>
<path d="M2.87619 5.52423C2.90562 5.61254 3.48298 5.92272 3.83392 6.0382C4.25732 6.17857 4.46336 6.20801 4.99996 6.20801C5.53656 6.20801 5.7426 6.17857 6.166 6.0382C6.51694 5.92272 7.0943 5.61254 7.12373 5.52423C7.14185 5.46989 7.05807 5.49933 6.886 5.61254C6.54411 5.83669 6.12751 5.99971 5.66788 6.09027C5.31241 6.16272 4.68751 6.16272 4.33204 6.09027C3.87468 5.99971 3.406 5.81178 3.07543 5.58763C2.94411 5.49706 2.86034 5.47216 2.87619 5.52423Z" fill="white"/>
<path d="M2.58861 6.69018C2.46861 6.71056 2.43691 6.72641 2.35993 6.79433C2.26936 6.87131 2.19465 7.01395 2.19238 7.10452C2.19238 7.3649 2.40748 7.5732 2.6588 7.55282C2.72446 7.54603 2.8037 7.52565 2.8354 7.50527C2.88974 7.46905 2.89427 7.4532 2.89427 7.29697V7.12716H2.74484C2.61578 7.12716 2.59767 7.13169 2.60446 7.16565C2.60899 7.19509 2.63842 7.20867 2.70861 7.2132L2.8037 7.21999V7.31961C2.8037 7.43509 2.76748 7.46678 2.63389 7.46678C2.50936 7.46678 2.40295 7.40565 2.33955 7.29697C2.24219 7.13395 2.28295 6.94603 2.44144 6.83735C2.52521 6.78075 2.69276 6.76943 2.79238 6.81471C2.86936 6.84867 2.91238 6.81018 2.85578 6.7581C2.8105 6.71735 2.6588 6.67886 2.58861 6.69018Z" fill="white"/>
<path d="M3.26343 6.70842C3.17739 6.74465 3.12078 6.82389 3.12078 6.90314C3.12078 6.99144 3.22041 7.10012 3.32456 7.12729C3.47852 7.16804 3.53286 7.322 3.43097 7.4171C3.36984 7.4737 3.26343 7.48276 3.19777 7.43295C3.1072 7.36276 3.05512 7.42163 3.14116 7.49861C3.20456 7.55748 3.3472 7.5688 3.43324 7.52578C3.51022 7.48502 3.57362 7.3854 3.57362 7.30389C3.57362 7.22012 3.48984 7.10691 3.39928 7.06842C3.26343 7.00955 3.24984 7.00276 3.2272 6.96427C3.19324 6.91219 3.22946 6.81257 3.29286 6.78314C3.34041 6.76049 3.36305 6.76276 3.41965 6.79446C3.50116 6.842 3.52833 6.842 3.52833 6.80125C3.52833 6.722 3.36531 6.6654 3.26343 6.70842Z" fill="white"/>
<path d="M4.52899 6.69256C4.50861 6.70841 4.50182 6.81029 4.50635 7.12954L4.51314 7.54614H4.78484C5.01125 7.54614 5.05653 7.53935 5.05653 7.51218C5.05653 7.48501 5.01352 7.47595 4.82559 7.47143L4.59238 7.46463V7.31973V7.17256H4.75767C4.93427 7.17256 4.95918 7.1635 4.9388 7.11369C4.92974 7.09105 4.88219 7.08199 4.75993 7.08199H4.59238V6.9235V6.76501H4.83238C5.04748 6.76501 5.07012 6.76048 5.06333 6.72426C5.05653 6.69029 5.02257 6.68577 4.80748 6.67897C4.66936 6.67671 4.54484 6.6835 4.52899 6.69256Z" fill="white"/>
<path d="M6.56225 6.69709C6.45357 6.71747 6.4015 6.7469 6.30641 6.85332C6.01433 7.17709 6.39018 7.69558 6.79773 7.52577C6.88603 7.48954 6.91773 7.45105 6.88376 7.41709C6.87018 7.4035 6.83622 7.40803 6.78641 7.43294C6.69357 7.48275 6.52603 7.46917 6.44225 7.40803C6.36301 7.34917 6.29056 7.21558 6.29056 7.12954C6.29056 6.90539 6.50112 6.73558 6.71395 6.79218C6.89735 6.83747 6.90188 6.83973 6.90188 6.80803C6.90188 6.73784 6.70037 6.67218 6.56225 6.69709Z" fill="white"/>
<path d="M3.78187 7.12049L3.78866 7.54615L3.95395 7.55295C4.11697 7.55974 4.12149 7.55747 4.19848 7.48049C4.26414 7.41483 4.27546 7.38766 4.27546 7.2971C4.27546 7.21106 4.26414 7.17936 4.2098 7.12502C4.1464 7.06163 4.14414 7.0571 4.1781 6.99144C4.20527 6.9371 4.20527 6.90766 4.18489 6.84427C4.1464 6.73106 4.08753 6.6971 3.91999 6.6971H3.77734L3.78187 7.12049ZM4.07848 6.83747C4.09885 6.86238 4.11697 6.89634 4.11697 6.91446C4.11697 6.97332 4.02866 7.03672 3.94716 7.03672H3.86791V6.89861V6.76049L3.95395 6.77408C3.99923 6.78314 4.05583 6.81031 4.07848 6.83747ZM4.12149 7.15898C4.18489 7.20653 4.20753 7.29031 4.17357 7.36729C4.13961 7.4488 4.10338 7.46691 3.96753 7.46691H3.86791V7.2971V7.12729H3.97659C4.03546 7.12729 4.10112 7.14087 4.12149 7.15898Z" fill="white"/>
<path d="M5.27619 7.12048C5.28298 7.48048 5.28751 7.54614 5.31694 7.54614C5.34411 7.54614 5.35317 7.48954 5.36223 7.21557L5.37355 6.88274L5.63392 7.2201C5.79241 7.42388 5.90789 7.5552 5.92826 7.55067C5.9577 7.54614 5.96223 7.48048 5.96223 7.12727C5.96223 6.74916 5.9577 6.7084 5.92374 6.70161C5.88751 6.69482 5.88298 6.72652 5.87845 7.03897L5.87166 7.38312L5.60449 7.03897C5.45732 6.85105 5.32147 6.69708 5.30336 6.69708C5.27619 6.69708 5.27166 6.76048 5.27619 7.12048Z" fill="white"/>
<path d="M7.13737 6.72643C7.13285 6.74228 7.13058 6.93247 7.13285 7.14983C7.13964 7.5053 7.14417 7.54605 7.18039 7.55284C7.21436 7.55964 7.21888 7.53926 7.21888 7.36492V7.1702L7.44077 7.177L7.66039 7.18379L7.66719 7.36945C7.67171 7.51662 7.68077 7.55737 7.70568 7.55737C7.73511 7.55737 7.73964 7.48945 7.73964 7.12718C7.73964 6.76039 7.73511 6.697 7.70568 6.697C7.67851 6.697 7.67171 6.73322 7.67171 6.88945V7.0819H7.4453H7.21888V6.88945C7.21888 6.73096 7.21209 6.697 7.18492 6.697C7.16454 6.697 7.14417 6.71058 7.13737 6.72643Z" fill="white"/>
<path d="M5.6843 3.81641C5.67942 3.82543 5.72816 3.86331 5.79315 3.89939C6.10671 4.07437 6.36666 4.33955 6.49663 4.61375C6.55999 4.74543 6.59736 4.7761 6.57949 4.67869C6.53725 4.44598 6.10671 3.98237 5.79802 3.83445C5.71192 3.79296 5.69892 3.79115 5.6843 3.81641Z" fill="#13A6FA"/>
<path d="M4.13856 3.88109C3.96036 3.98357 3.83079 4.09403 3.67446 4.27249C3.52129 4.44737 3.43332 4.59353 3.41804 4.69349C3.40411 4.78655 3.44093 4.75573 3.49982 4.62805C3.62044 4.36229 3.87427 4.09884 4.18688 3.91818C4.25168 3.88092 4.2998 3.84273 4.29442 3.83442C4.27654 3.80788 4.2503 3.81596 4.13856 3.88109Z" fill="#13A6FA"/>
</g>
<defs>
<clipPath id="clip0_2869_19374">
<rect width="6" height="6" fill="white" transform="translate(2 2)"/>
</clipPath>
</defs>
</svg>
