<svg width="70" height="71" viewBox="0 0 70 71" fill="none" xmlns="http://www.w3.org/2000/svg">
<rect x="0.5" y="0.521973" width="69" height="69" rx="19.5" fill="#FFF6DD" stroke="#FFF6DD"/>
<g clip-path="url(#clip0_1_4826)">
<path d="M49.6667 54.3113H46V50.6447C46 49.186 45.4205 47.787 44.3891 46.7556C43.3576 45.7241 41.9587 45.1447 40.5 45.1447H29.5C28.0413 45.1447 26.6424 45.7241 25.6109 46.7556C24.5795 47.787 24 49.186 24 50.6447V54.3113H20.3333V50.6447C20.3333 48.2135 21.2991 45.8819 23.0182 44.1629C24.7373 42.4438 27.0689 41.478 29.5 41.478H40.5C42.9312 41.478 45.2627 42.4438 46.9818 44.1629C48.7009 45.8819 49.6667 48.2135 49.6667 50.6447V54.3113ZM35 37.8113C33.5555 37.8113 32.1251 37.5268 30.7905 36.974C29.4559 36.4212 28.2433 35.611 27.2218 34.5895C26.2004 33.5681 25.3901 32.3554 24.8373 31.0209C24.2845 29.6863 24 28.2559 24 26.8113C24 25.3668 24.2845 23.9364 24.8373 22.6018C25.3901 21.2672 26.2004 20.0546 27.2218 19.0332C28.2433 18.0117 29.4559 17.2015 30.7905 16.6487C32.1251 16.0959 33.5555 15.8113 35 15.8113C37.9174 15.8113 40.7153 16.9703 42.7782 19.0332C44.8411 21.0961 46 23.894 46 26.8113C46 29.7287 44.8411 32.5266 42.7782 34.5895C40.7153 36.6524 37.9174 37.8113 35 37.8113V37.8113ZM35 34.1447C36.9449 34.1447 38.8102 33.3721 40.1855 31.9968C41.5607 30.6215 42.3333 28.7563 42.3333 26.8113C42.3333 24.8664 41.5607 23.0012 40.1855 21.6259C38.8102 20.2506 36.9449 19.478 35 19.478C33.0551 19.478 31.1898 20.2506 29.8146 21.6259C28.4393 23.0012 27.6667 24.8664 27.6667 26.8113C27.6667 28.7563 28.4393 30.6215 29.8146 31.9968C31.1898 33.3721 33.0551 34.1447 35 34.1447V34.1447Z" fill="#FFCB4B"/>
</g>
<defs>
<clipPath id="clip0_1_4826">
<rect width="44" height="44" fill="white" transform="translate(13 13.978)"/>
</clipPath>
</defs>
</svg>
