<svg width="141" height="46" viewBox="0 0 141 46" fill="none" xmlns="http://www.w3.org/2000/svg">
<path d="M46.0026 22.9987C46.0022 29.0992 43.5786 34.9496 39.2648 39.2632C34.951 43.5767 29.1004 46 23 46C10.2972 46 0 35.7028 0 23C0 10.2972 10.2985 0 23 0C35.7015 0 46 10.2985 46 23.0026" fill="#B3B3C8"/>
<path d="M23.3884 14.0495L29.3408 28.7404L20.3505 21.6597L23.3884 14.0495ZM33.9619 32.1239L24.8058 10.0903C24.545 9.45546 24.0348 9.11877 23.3871 9.11877C22.7395 9.11877 22.192 9.45546 21.9299 10.0903L11.8807 34.2584H15.3182L19.2955 24.294L31.1669 33.8845C31.6449 34.27 31.9893 34.4447 32.4365 34.4447C33.3335 34.4447 34.1174 33.7727 34.1174 32.8024C34.1174 32.6444 34.0621 32.3938 33.9619 32.1239Z" fill="white"/>
<path d="M77.528 29.8789C77.2903 29.8789 77.0346 29.8185 76.8559 29.5781L69.2317 19.5521V29.7786H67.493V17.185C67.493 16.671 67.9081 16.2829 68.3823 16.2829C68.6586 16.2829 68.8963 16.3639 69.0736 16.6042L76.6773 26.6097V16.423H78.416V28.996C78.4172 29.1128 78.395 29.2287 78.3507 29.3368C78.3063 29.4449 78.2408 29.543 78.1579 29.6253C78.075 29.7076 77.9764 29.7724 77.868 29.816C77.7596 29.8596 77.6448 29.8809 77.528 29.8789ZM87.5862 29.9997C85.8488 29.9997 84.0304 29.6398 82.3329 28.9973L82.7479 27.5542C84.308 28.0682 86.0069 28.4152 87.5862 28.4152C89.7785 28.4152 90.9248 27.6339 90.9248 26.5313C90.9248 25.5289 90.0355 25.0277 86.9745 23.5833C83.9135 22.1389 82.7081 21.2188 82.7081 19.4133C82.7081 17.1478 84.4455 16.2264 87.725 16.2264C89.0872 16.2264 91.1946 16.5091 92.3872 16.8689L92.1109 18.3519C90.6866 18.0118 89.229 17.8308 87.7648 17.8121C85.4543 17.8121 84.5059 18.2529 84.5059 19.3568C84.5059 20.4388 85.1973 20.8989 88.4356 22.4049C91.8539 23.9894 92.7213 24.7913 92.7213 26.4362C92.7213 28.8225 90.4686 30.0061 87.5862 30.0061M96.6382 16.4011H98.4347V29.7555H96.6382V16.4011ZM110.44 23.5525H105.975V28.0849H110.44C111.96 28.0849 112.889 27.1211 112.889 25.7782C112.889 24.515 111.921 23.5525 110.44 23.5525ZM109.57 17.7774H105.975V22.049H109.57C111.012 22.049 112.059 21.1263 112.059 19.8425C112.059 18.5793 111.15 17.7774 109.57 17.7774ZM110.459 29.6077H105.087C104.573 29.6077 104.179 29.2068 104.179 28.7056V17.1555C104.182 16.9159 104.278 16.6871 104.448 16.5183C104.618 16.3495 104.848 16.2544 105.087 16.2534H109.531C112.255 16.2534 113.875 17.5963 113.875 19.7025C113.875 20.859 113.203 21.9076 112.176 22.5296C113.697 22.9922 114.724 24.2541 114.724 25.7782C114.724 27.9037 112.969 29.6077 110.459 29.6077ZM119.967 29.4599C119.474 29.4599 119.068 29.0384 119.068 28.5578V16.0927H120.867V27.8228H128.041V29.4471L119.967 29.4599ZM136.412 29.5332C132.737 29.5332 130.526 28.171 130.526 25.421C130.526 24.1179 131.259 22.874 132.68 22.2931C131.524 21.5709 130.942 20.548 130.942 19.4249C130.942 16.9383 132.859 15.7548 136.467 15.7548C137.921 15.7608 139.37 15.9154 140.793 16.2161L140.595 17.7003C139.094 17.46 137.691 17.32 136.329 17.32C133.997 17.32 132.753 17.9625 132.753 19.5046C132.753 20.7279 133.9 21.6892 135.421 21.6892H138.503C138.604 21.6876 138.704 21.7062 138.797 21.7439C138.891 21.7815 138.976 21.8375 139.048 21.9085C139.12 21.9794 139.176 22.064 139.215 22.1572C139.254 22.2504 139.273 22.3503 139.273 22.4512C139.273 22.892 138.938 23.2325 138.502 23.2325H135.184C133.445 23.2325 132.34 24.0935 132.34 25.4171C132.34 27.3614 134.136 27.9436 136.388 27.9436C137.612 27.9436 139.271 27.7842 140.628 27.4629L140.885 28.9253C139.436 29.3162 137.942 29.5188 136.44 29.528M57.6623 19.0445L60.8107 26.9322L56.056 23.1284L57.6623 19.0445ZM63.2549 28.7493L58.4128 16.919C58.274 16.5785 57.9977 16.3973 57.6623 16.3973C57.4957 16.3943 57.3323 16.4429 57.1943 16.5362C57.0563 16.6296 56.9505 16.7633 56.8913 16.919L51.5942 30.249L53.3933 29.8943L55.497 24.5446L61.7745 29.6938C62.0276 29.8994 62.2088 29.9945 62.4466 29.9945C62.5633 29.9964 62.6792 29.9749 62.7874 29.9313C62.8957 29.8876 62.9941 29.8228 63.0769 29.7405C63.1596 29.6582 63.2251 29.5602 63.2693 29.4522C63.3136 29.3442 63.3358 29.2284 63.3345 29.1117C63.3263 28.9869 63.2986 28.8642 63.2523 28.748L63.2549 28.7493Z" fill="#B3B3C8"/>
</svg>
