<svg width="70" height="71" viewBox="0 0 70 71" fill="none" xmlns="http://www.w3.org/2000/svg">
<rect x="0.5" y="0.521973" width="69" height="69" rx="19.5" fill="#FFF0E9" stroke="#E9EDFF"/>
<g clip-path="url(#clip0_1_4847)">
<path d="M51.4996 21.3545V48.343C51.4998 48.5209 51.4483 48.6949 51.3513 48.844C51.2543 48.9931 51.116 49.1108 50.9533 49.1826L34.9996 56.2428L19.0459 49.1845C18.8826 49.1124 18.744 48.9941 18.6469 48.8443C18.5499 48.6945 18.4987 48.5196 18.4996 48.3411V21.3545H14.8329V17.6878H55.1663V21.3545H51.4996ZM22.1663 21.3545V46.5536L34.9996 52.237L47.8329 46.5536V21.3545H22.1663ZM27.6663 28.6878H42.3329V32.3545H27.6663V28.6878ZM27.6663 36.0211H42.3329V39.6878H27.6663V36.0211Z" fill="#FF8548"/>
</g>
<rect x="13.5" y="14.522" width="43" height="43" stroke="#E9EDFF"/>
<defs>
<clipPath id="clip0_1_4847">
<rect x="13" y="14.022" width="44" height="44" fill="white"/>
</clipPath>
</defs>
</svg>
