<svg width="80" height="80" viewBox="0 0 80 80" fill="none" xmlns="http://www.w3.org/2000/svg">
<g clip-path="url(#clip0_2862_13561)">
<path d="M36.3774 5.9044C29.1019 6.32704 25.2679 8.2893 24.7245 11.761C24.5736 12.9082 24.4226 13.0893 23.1547 13.6931C17.8113 16.2893 11.0491 22.7799 9.53962 26.795C9.23774 27.5497 9.17736 27.5799 7.18491 27.3987C5.37358 27.278 5.01132 27.3384 4.07547 27.9723C2.74717 28.878 1.35849 31.595 0.573585 34.7648C0.150943 36.5459 0 38.2063 0 41.4969C0 45.6025 0.0603774 45.9648 0.754717 47.2327C1.44906 48.4704 1.63019 48.5912 2.77736 48.6818C4.95094 48.8327 6.97358 47.3233 11.1094 42.4327L12.2264 41.1044L13.8566 42.1912C16.0302 43.6403 20.5283 45.8742 23.366 46.9308C32.9358 50.4629 45.283 50.6138 55.366 47.3535C58.2642 46.3874 63.4264 43.9421 65.9019 42.3421L67.8038 41.1044L68.9208 42.4327C73.0264 47.3233 75.0491 48.8327 77.2226 48.6818C78.4 48.5912 78.5509 48.5006 79.2453 47.0818C79.9396 45.6931 80 45.2402 80 41.4969C80 35.0063 78.4 29.6327 75.9245 27.9723C74.9887 27.3384 74.6264 27.278 72.8151 27.3987C70.8226 27.5799 70.7623 27.5497 70.4604 26.795C68.9509 22.7799 62.1887 16.2893 56.8755 13.7233C55.6075 13.1195 55.4264 12.9082 55.2755 11.7912C54.7321 8.44025 50.8679 6.35723 44.5585 5.99497C43.1396 5.9044 41.4792 5.81383 40.9057 5.78364C40.3321 5.72327 38.2792 5.78365 36.3774 5.9044ZM46.3396 7.11194C49.3887 7.59496 51.4113 8.31949 52.6792 9.43648C55.7585 12.0629 54.9434 15.3233 48.8453 24.7421C44.1057 32.078 42.7472 35.0969 43.2 37.4516C43.6226 39.7761 46.4906 41.7987 49.3585 41.7987C51.8641 41.7987 56.1509 40.1384 59.8038 37.6931C60.6792 37.1195 62.9736 35.2478 64.9358 33.527C69.283 29.6931 71.2151 28.4855 73.2377 28.2742C74.6868 28.1535 74.7774 28.1836 75.9245 29.3912C77.4038 30.961 78.5208 34.3119 79.034 38.6893C79.3962 42.1912 79.0641 45.7836 78.2189 47.0818C77.1623 48.6818 74.5057 47.5346 71.8792 44.3346C68.1057 39.8063 65.7811 37.8742 64.0302 37.8742C62.9434 37.8742 62.7623 38.4176 63.7585 38.6591C64.8453 38.9006 66.8679 40.0176 66.8679 40.3497C66.8679 41.1044 59.1698 45.0893 55.0943 46.4478C49.9321 48.1686 47.0038 48.561 40 48.561C32.9962 48.561 30.0377 48.1384 24.9057 46.4478C20.8604 45.0893 13.1321 41.0742 13.1321 40.3195C13.1321 40.0176 15.2151 38.9006 16.2415 38.6591C17.2377 38.4176 17.0566 37.8742 15.9698 37.8742C14.2189 37.8742 11.8943 39.8063 8.12075 44.3346C5.49434 47.5346 2.83774 48.6818 1.78113 47.0818C0.935849 45.7836 0.603774 42.1912 0.966038 38.6893C1.47925 34.3119 2.59623 30.961 4.07547 29.3912C5.22264 28.1836 5.31321 28.1535 6.76226 28.2742C8.78491 28.4855 10.717 29.6931 15.0642 33.527C19.0189 36.9686 20.7698 38.2365 23.9094 39.8063C28.9509 42.3421 32.8453 42.3723 35.4113 39.8969C36.8 38.5384 37.1321 37.0893 36.5283 34.7648C35.9547 32.5308 34.6868 30.2667 31.034 24.6214C26.2943 17.3157 24.9962 13.9044 25.8113 11.4893C26.5057 9.34591 29.2226 7.80628 33.5094 7.11194C35.7132 6.74968 44.0755 6.74968 46.3396 7.11194ZM24.966 15.0818C25.0566 15.4742 24.9962 15.7459 24.8453 15.6553C24.5132 15.444 21.5547 17.1044 19.4415 18.7346C16.6943 20.8478 13.283 24.6818 12.1358 26.9761C11.1698 28.878 11.0792 28.9987 10.5358 28.6063C9.99245 28.2138 9.99245 28.1233 10.9585 26.3119C12.1057 24.0478 14.6717 21.0591 17.4189 18.7346C19.5019 16.9535 24.2415 13.9648 24.634 14.1761C24.7245 14.2667 24.9057 14.6591 24.966 15.0818ZM58.5358 15.7761C62.5811 18.1912 67.1396 22.7497 68.9811 26.1308C70.0075 28.0629 70.0981 28.5157 69.434 28.5157C69.1925 28.5157 68.9811 28.3346 68.9811 28.0931C68.9811 27.2478 65.9321 23.1421 63.9094 21.2101C61.4943 18.9459 58.566 16.8025 56.5434 15.8063C55.1849 15.1723 54.8226 14.6893 55.2755 14.2365C55.517 14.0252 56.0302 14.2667 58.5358 15.7761ZM31.034 40.8025C30.8226 40.8629 30.4604 40.8629 30.2792 40.8025C30.0679 40.7119 30.2189 40.6516 30.6415 40.6516C31.0641 40.6516 31.2151 40.7119 31.034 40.8025ZM49.7509 40.8025C49.5396 40.8629 49.1774 40.8629 48.9962 40.8025C48.7849 40.7119 48.9358 40.6516 49.3585 40.6516C49.7811 40.6516 49.9321 40.7119 49.7509 40.8025Z" fill="#13A6FA"/>
<path d="M33.4484 13.5725C32.3616 14.0254 31.6371 15.1423 32.0899 15.5952C32.271 15.7763 32.6635 15.5952 33.1465 15.1121C34.1126 14.1461 35.3805 14.0857 36.4673 14.931C37.1918 15.5046 37.8861 15.7159 37.8861 15.3537C37.8861 14.7801 37.1012 13.9046 36.2258 13.5423C34.9578 13.0291 34.6861 13.0291 33.4484 13.5725Z" fill="#13A6FA"/>
<path d="M44.6493 13.6934C43.5021 14.3877 43.2002 14.8103 43.4417 15.4141C43.5927 15.8066 43.7738 15.7462 44.5587 15.1122C45.6757 14.1764 46.9436 14.116 47.6983 14.9311C48.3323 15.6254 49.0568 15.716 49.0568 15.1424C49.0568 14.4481 47.6983 13.3915 46.6115 13.2405C45.9172 13.15 45.2832 13.2707 44.6493 13.6934Z" fill="#13A6FA"/>
<path d="M41.1769 21.5725C40.7844 22.6592 40.241 22.7196 39.6071 21.7838C39.275 21.2706 39.0637 21.2102 38.792 21.4517C38.0071 22.2366 39.7278 23.897 40.9052 23.5347C41.6297 23.2932 42.5354 21.6932 42.2938 21.0894C42.0221 20.3951 41.5089 20.6064 41.1769 21.5725Z" fill="#13A6FA"/>
<path d="M19.7741 10.1915C16.4533 11.8519 14.008 13.6934 11.0193 16.7123C8.09105 19.6708 6.37029 22.1764 6.00803 23.9274C5.67595 25.5575 6.37029 25.0443 7.54765 22.8406C9.96274 18.2519 14.7929 13.8141 20.6193 10.8858C21.8269 10.2821 22.7326 9.64811 22.642 9.49717C22.3401 9.01415 21.8571 9.1349 19.7741 10.1915Z" fill="#13A6FA"/>
<path d="M57.3586 9.49717C57.2681 9.64811 58.1737 10.2821 59.3813 10.8858C65.2077 13.8141 70.0379 18.2519 72.453 22.8406C73.6303 25.0443 74.3247 25.5575 73.9926 23.9274C73.2077 20.033 65.2077 12.2745 59.4718 9.79905C57.8718 9.10471 57.6303 9.07452 57.3586 9.49717Z" fill="#13A6FA"/>
<path d="M11.6831 46.9912C12.0756 48.1685 19.7737 52.3044 24.4529 53.844C30.0982 55.7157 32.8454 56.1082 40.0001 56.1082C47.1548 56.1082 49.902 55.7157 55.5473 53.844C60.2265 52.3044 67.9246 48.1685 68.3171 46.9912C68.5586 46.2666 67.4416 46.6591 65.1473 48.1685C60.5888 51.1572 55.0341 53.3308 48.9058 54.5383C44.1661 55.5044 35.8341 55.5044 31.0944 54.5383C24.9963 53.3308 18.7473 50.8251 14.3397 47.8365C12.5888 46.6289 11.4718 46.2968 11.6831 46.9912Z" fill="#13A6FA"/>
<path d="M7.84863 62.5383C6.24863 62.81 5.82599 63.0214 4.79958 63.927C3.59203 64.9534 2.5958 66.8553 2.56561 68.0629C2.56561 71.5346 5.43354 74.3119 8.78448 74.0402C9.65995 73.9497 10.7166 73.678 11.1392 73.4063C11.8637 72.9232 11.9241 72.7119 11.9241 70.6289V68.3648H9.93165C8.2109 68.3648 7.96939 68.4251 8.05995 68.878C8.12033 69.2704 8.51278 69.4515 9.44863 69.5119L10.7166 69.6025V70.9308C10.7166 72.4704 10.2335 72.8931 8.45241 72.8931C6.79203 72.8931 5.37316 72.078 4.52788 70.6289C3.22976 68.4553 3.77316 65.9497 5.88637 64.5006C7.00335 63.7459 9.23731 63.5949 10.5656 64.1987C11.592 64.6515 12.1656 64.1383 11.4109 63.444C10.8071 62.9006 8.78448 62.3874 7.84863 62.5383Z" fill="#13A6FA"/>
<path d="M16.8458 62.7801C15.6987 63.2632 14.9439 64.3198 14.9439 65.3764C14.9439 66.5537 16.2722 68.0028 17.6609 68.365C19.7138 68.9084 20.4383 70.9613 19.0798 72.2292C18.2647 72.9839 16.8458 73.1047 15.9704 72.4405C14.7628 71.5047 14.0685 72.2896 15.2156 73.316C16.0609 74.1009 17.9628 74.2518 19.11 73.6783C20.1364 73.1349 20.9817 71.8066 20.9817 70.7198C20.9817 69.6028 19.8647 68.0933 18.6571 67.5801C16.8458 66.7952 16.6647 66.7047 16.3628 66.1915C15.91 65.4971 16.393 64.1688 17.2383 63.7764C17.8722 63.4745 18.1741 63.5047 18.9288 63.9273C20.0156 64.5613 20.3779 64.5613 20.3779 64.0179C20.3779 62.9613 18.2043 62.2066 16.8458 62.7801Z" fill="#13A6FA"/>
<path d="M33.7202 62.5686C33.4485 62.7799 33.3579 64.1384 33.4183 68.395L33.5088 73.9497H37.1315C40.1503 73.9497 40.7541 73.8591 40.7541 73.4969C40.7541 73.1346 40.1805 73.0139 37.6749 72.9535L34.5654 72.8629V70.9308V68.9686H36.7692C39.1239 68.9686 39.456 68.8478 39.1843 68.1837C39.0636 67.8818 38.4296 67.761 36.7994 67.761H34.5654V65.6478V63.5346H37.7654C40.6334 63.5346 40.9353 63.4742 40.8447 62.9912C40.7541 62.5384 40.3013 62.478 37.4334 62.3874C35.5919 62.3573 33.9315 62.4478 33.7202 62.5686Z" fill="#13A6FA"/>
<path d="M60.8297 62.6291C59.3807 62.9008 58.6863 63.2932 57.4184 64.7121C53.5241 69.0291 58.5354 75.9423 63.9693 73.6781C65.1467 73.1951 65.5693 72.6819 65.1165 72.2291C64.9354 72.0479 64.4826 72.1083 63.8184 72.4404C62.5807 73.1046 60.3467 72.9234 59.2297 72.1083C58.1731 71.3234 57.2071 69.5423 57.2071 68.3951C57.2071 65.4064 60.0146 63.1423 62.8524 63.897C65.2976 64.5008 65.358 64.531 65.358 64.1083C65.358 63.1725 62.6712 62.297 60.8297 62.6291Z" fill="#13A6FA"/>
<path d="M23.7589 68.2745L23.8495 73.9499L26.0533 74.0405C28.2268 74.1311 28.2872 74.1009 29.3136 73.0745C30.1891 72.199 30.3401 71.8367 30.3401 70.6292C30.3401 69.482 30.1891 69.0594 29.4646 68.3348C28.6193 67.4896 28.5891 67.4292 29.0419 66.5537C29.4042 65.8292 29.4042 65.4367 29.1325 64.5915C28.6193 63.082 27.8344 62.6292 25.6004 62.6292H23.6985L23.7589 68.2745ZM27.7136 64.5009C27.9853 64.833 28.2268 65.2858 28.2268 65.5273C28.2268 66.3122 27.0495 67.1575 25.9627 67.1575H24.9061V65.316V63.4745L26.0533 63.6556C26.657 63.7764 27.4118 64.1386 27.7136 64.5009ZM28.2872 68.7877C29.1325 69.4216 29.4344 70.5386 28.9816 71.565C28.5287 72.6518 28.0457 72.8933 26.2344 72.8933H24.9061V70.6292V68.365H26.3552C27.1401 68.365 28.0155 68.5462 28.2872 68.7877Z" fill="#13A6FA"/>
<path d="M43.6832 68.2742C43.7737 73.0742 43.8341 73.9497 44.2266 73.9497C44.5888 73.9497 44.7096 73.195 44.8303 69.5422L44.9813 65.1044L48.453 69.6025C50.5662 72.3195 52.1058 74.0705 52.3775 74.0101C52.77 73.9497 52.8303 73.0742 52.8303 68.3648C52.8303 63.3233 52.77 62.7799 52.3171 62.6893C51.8341 62.5988 51.7737 63.0214 51.7134 67.1874L51.6228 71.7761L48.0605 67.1874C46.0983 64.6818 44.287 62.629 44.0454 62.629C43.6832 62.629 43.6228 63.4742 43.6832 68.2742Z" fill="#13A6FA"/>
<path d="M68.4977 63.0215C68.4373 63.2328 68.4071 65.7686 68.4373 68.6667C68.5279 73.4064 68.5882 73.9498 69.0713 74.0403C69.5241 74.1309 69.5845 73.8592 69.5845 71.5347V68.9384L72.5429 69.029L75.4713 69.1196L75.5618 71.595C75.6222 73.5573 75.7429 74.1007 76.075 74.1007C76.4675 74.1007 76.5279 73.195 76.5279 68.3649C76.5279 63.4743 76.4675 62.629 76.075 62.629C75.7128 62.629 75.6222 63.112 75.6222 65.195V67.7611H72.6033H69.5845V65.195C69.5845 63.0818 69.4939 62.629 69.1316 62.629C68.8599 62.629 68.5882 62.8101 68.4977 63.0215Z" fill="#13A6FA"/>
<path d="M49.1245 24.2209C49.0595 24.3412 49.7094 24.8463 50.5758 25.3273C54.7567 27.6604 58.2226 31.1961 59.9556 34.8521C60.8005 36.6079 61.2987 37.0168 61.0604 35.718C60.4972 32.6152 54.7567 26.4337 50.6408 24.4614C49.4927 23.9082 49.3194 23.8842 49.1245 24.2209Z" fill="white"/>
<path d="M28.5139 25.0839C26.138 26.4503 24.4103 27.9231 22.3259 30.3025C20.2836 32.6343 19.1107 34.583 18.907 35.9159C18.7213 37.1567 19.2122 36.7458 19.9974 35.0434C21.6057 31.4999 24.9901 27.9872 29.1583 25.5784C30.0222 25.0816 30.6638 24.5723 30.5921 24.4616C30.3536 24.1078 30.0038 24.2154 28.5139 25.0839Z" fill="white"/>
</g>
<defs>
<clipPath id="clip0_2862_13561">
<rect width="80" height="80" fill="white"/>
</clipPath>
</defs>
</svg>
