<svg width="60" height="60" viewBox="0 0 60 60" fill="none" xmlns="http://www.w3.org/2000/svg">
<circle cx="30" cy="30" r="29.5" fill="#E5F1FF" stroke="#E5F1FF"/>
<path d="M45.205 22.7429C44.2271 21.6254 42.9078 20.8617 41.4518 20.57C40.274 16.2835 36.343 13.125 31.6875 13.125C29.9933 13.1248 28.3262 13.5497 26.8387 14.3608C25.3513 15.1719 24.0911 16.3431 23.1736 17.7674C22.6661 17.627 22.1356 17.59 21.6135 17.6583C21.0913 17.7267 20.5882 17.8991 20.1339 18.1654C19.6796 18.4317 19.2834 18.7864 18.9686 19.2085C18.6539 19.6307 18.427 20.1117 18.3015 20.6231C17.1877 20.8902 16.1601 21.4363 15.3156 22.21C14.471 22.9837 13.8372 23.9596 13.4738 25.0458C13.1104 26.132 13.0293 27.2928 13.2383 28.4189C13.4472 29.5451 13.9392 30.5996 14.6681 31.4832L15.5355 30.7668C14.8568 29.9439 14.4261 28.9449 14.2936 27.8865C14.1611 26.828 14.3322 25.7537 14.7871 24.7889C15.242 23.824 15.9619 23.0084 16.8627 22.4372C17.7636 21.8659 18.8083 21.5626 19.875 21.5625C20.0458 21.5625 20.2181 21.5702 20.387 21.5854L20.488 20.465C20.2856 20.4468 20.0793 20.4375 19.875 20.4375C19.764 20.4375 19.6536 20.4402 19.5438 20.4457C19.7937 19.8677 20.2304 19.3903 20.7839 19.09C21.3375 18.7898 21.9758 18.6841 22.5966 18.79C22.4552 19.0783 22.3256 19.3734 22.2113 19.6764L23.2639 20.0736C24.0078 18.1022 25.4197 16.4542 27.2537 15.4168C29.0876 14.3793 31.2274 14.0181 33.3003 14.396C35.3732 14.7739 37.2479 15.867 38.5977 17.4849C39.9476 19.1028 40.6871 21.1429 40.6875 23.25H41.8125C41.8124 22.7613 41.7771 22.2732 41.7068 21.7896C42.8713 22.1355 43.8933 22.8473 44.6216 23.8195C45.3498 24.7918 45.7455 25.9728 45.75 27.1875C45.7526 28.3456 45.3953 29.4758 44.7276 30.422L45.6474 31.0698C46.5168 29.8328 46.9457 28.3397 46.8655 26.8299C46.7853 25.3201 46.2005 23.8809 45.205 22.7429Z" fill="#293FCC"/>
<path d="M18.1875 37.875C18.4982 37.875 18.75 37.6232 18.75 37.3125C18.75 37.0018 18.4982 36.75 18.1875 36.75C17.8768 36.75 17.625 37.0018 17.625 37.3125C17.625 37.6232 17.8768 37.875 18.1875 37.875Z" fill="#293FCC"/>
<path d="M19.875 37.875C20.1857 37.875 20.4375 37.6232 20.4375 37.3125C20.4375 37.0018 20.1857 36.75 19.875 36.75C19.5643 36.75 19.3125 37.0018 19.3125 37.3125C19.3125 37.6232 19.5643 37.875 19.875 37.875Z" fill="#293FCC"/>
<path d="M21.5625 37.875C21.8732 37.875 22.125 37.6232 22.125 37.3125C22.125 37.0018 21.8732 36.75 21.5625 36.75C21.2518 36.75 21 37.0018 21 37.3125C21 37.6232 21.2518 37.875 21.5625 37.875Z" fill="#293FCC"/>
<path d="M26.625 36.75H23.25V37.875H26.625V36.75Z" fill="#293FCC"/>
<path d="M18.1875 33.375C18.4982 33.375 18.75 33.1232 18.75 32.8125C18.75 32.5018 18.4982 32.25 18.1875 32.25C17.8768 32.25 17.625 32.5018 17.625 32.8125C17.625 33.1232 17.8768 33.375 18.1875 33.375Z" fill="#293FCC"/>
<path d="M19.875 33.375C20.1857 33.375 20.4375 33.1232 20.4375 32.8125C20.4375 32.5018 20.1857 32.25 19.875 32.25C19.5643 32.25 19.3125 32.5018 19.3125 32.8125C19.3125 33.1232 19.5643 33.375 19.875 33.375Z" fill="#293FCC"/>
<path d="M21.5625 33.375C21.8732 33.375 22.125 33.1232 22.125 32.8125C22.125 32.5018 21.8732 32.25 21.5625 32.25C21.2518 32.25 21 32.5018 21 32.8125C21 33.1232 21.2518 33.375 21.5625 33.375Z" fill="#293FCC"/>
<path d="M26.625 32.25H23.25V33.375H26.625V32.25Z" fill="#293FCC"/>
<path d="M26.625 25.5H18.1875C17.591 25.5007 17.0191 25.738 16.5973 26.1598C16.1755 26.5816 15.9382 27.1535 15.9375 27.75V28.875C15.9375 29.1945 16.0056 29.5102 16.1374 29.8013C16.2692 30.0923 16.4615 30.3518 16.7017 30.5625C16.4615 30.7732 16.2692 31.0327 16.1374 31.3237C16.0056 31.6148 15.9375 31.9305 15.9375 32.25V33.375C15.9375 33.6945 16.0056 34.0102 16.1374 34.3013C16.2692 34.5923 16.4615 34.8518 16.7017 35.0625C16.4615 35.2732 16.2692 35.5327 16.1374 35.8237C16.0056 36.1148 15.9375 36.4305 15.9375 36.75V37.875C15.9382 38.4715 16.1755 39.0434 16.5973 39.4652C17.0191 39.887 17.591 40.1243 18.1875 40.125H26.625C27.2215 40.1243 27.7934 39.887 28.2152 39.4652C28.637 39.0434 28.8743 38.4715 28.875 37.875V36.75C28.875 36.4305 28.8069 36.1148 28.6751 35.8237C28.5433 35.5327 28.3509 35.2732 28.1108 35.0625C28.3509 34.8518 28.5433 34.5923 28.6751 34.3013C28.8069 34.0102 28.875 33.6945 28.875 33.375V32.25C28.875 31.9305 28.8069 31.6148 28.6751 31.3237C28.5433 31.0327 28.3509 30.7732 28.1108 30.5625C28.3509 30.3518 28.5433 30.0923 28.6751 29.8013C28.8069 29.5102 28.875 29.1945 28.875 28.875V27.75C28.8743 27.1535 28.637 26.5816 28.2152 26.1598C27.7934 25.738 27.2215 25.5007 26.625 25.5ZM27.75 36.75V37.875C27.7497 38.1733 27.631 38.4592 27.4201 38.6701C27.2092 38.881 26.9233 38.9997 26.625 39H18.1875C17.8892 38.9997 17.6033 38.881 17.3924 38.6701C17.1815 38.4592 17.0628 38.1733 17.0625 37.875V36.75C17.0628 36.4517 17.1815 36.1658 17.3924 35.9549C17.6033 35.744 17.8892 35.6253 18.1875 35.625H26.625C26.9233 35.6253 27.2092 35.744 27.4201 35.9549C27.631 36.1658 27.7497 36.4517 27.75 36.75ZM27.75 32.25V33.375C27.7497 33.6733 27.631 33.9592 27.4201 34.1701C27.2092 34.381 26.9233 34.4997 26.625 34.5H18.1875C17.8892 34.4997 17.6033 34.381 17.3924 34.1701C17.1815 33.9592 17.0628 33.6733 17.0625 33.375V32.25C17.0628 31.9517 17.1815 31.6658 17.3924 31.4549C17.6033 31.244 17.8892 31.1253 18.1875 31.125H26.625C26.9233 31.1253 27.2092 31.244 27.4201 31.4549C27.631 31.6658 27.7497 31.9517 27.75 32.25ZM18.1875 30C17.8892 29.9997 17.6033 29.881 17.3924 29.6701C17.1815 29.4592 17.0628 29.1733 17.0625 28.875V27.75C17.0628 27.4517 17.1815 27.1658 17.3924 26.9549C17.6033 26.744 17.8892 26.6253 18.1875 26.625H26.625C26.9233 26.6253 27.2092 26.744 27.4201 26.9549C27.631 27.1658 27.7497 27.4517 27.75 27.75V28.875C27.7497 29.1733 27.631 29.4592 27.4201 29.6701C27.2092 29.881 26.9233 29.9997 26.625 30H18.1875Z" fill="#293FCC"/>
<path d="M18.1875 28.875C18.4982 28.875 18.75 28.6232 18.75 28.3125C18.75 28.0018 18.4982 27.75 18.1875 27.75C17.8768 27.75 17.625 28.0018 17.625 28.3125C17.625 28.6232 17.8768 28.875 18.1875 28.875Z" fill="#293FCC"/>
<path d="M19.875 28.875C20.1857 28.875 20.4375 28.6232 20.4375 28.3125C20.4375 28.0018 20.1857 27.75 19.875 27.75C19.5643 27.75 19.3125 28.0018 19.3125 28.3125C19.3125 28.6232 19.5643 28.875 19.875 28.875Z" fill="#293FCC"/>
<path d="M21.5625 28.875C21.8732 28.875 22.125 28.6232 22.125 28.3125C22.125 28.0018 21.8732 27.75 21.5625 27.75C21.2518 27.75 21 28.0018 21 28.3125C21 28.6232 21.2518 28.875 21.5625 28.875Z" fill="#293FCC"/>
<path d="M26.625 27.75H23.25V28.875H26.625V27.75Z" fill="#293FCC"/>
<path d="M41.8125 28.3125H37.3125C36.716 28.3132 36.1441 28.5505 35.7223 28.9723C35.3005 29.3941 35.0632 29.966 35.0625 30.5625V33.9375C35.0632 34.534 35.3005 35.1059 35.7223 35.5277C36.1441 35.9495 36.716 36.1868 37.3125 36.1875H41.8125C42.409 36.1868 42.9809 35.9495 43.4027 35.5277C43.8245 35.1059 44.0618 34.534 44.0625 33.9375V30.5625C44.0618 29.966 43.8245 29.3941 43.4027 28.9723C42.9809 28.5505 42.409 28.3132 41.8125 28.3125ZM42.9375 30.5625V30.8652C42.5958 30.6666 42.2077 30.5622 41.8125 30.5625H40.6054C40.3964 30.5632 40.1913 30.5054 40.0134 30.3954C39.8356 30.2855 39.6921 30.128 39.5992 29.9407L39.407 29.5562C39.3868 29.5157 39.3648 29.4764 39.3424 29.4375H41.8125C42.1108 29.4378 42.3967 29.5565 42.6076 29.7674C42.8185 29.9783 42.9372 30.2642 42.9375 30.5625ZM42.9375 33.9375C42.9372 34.2358 42.8185 34.5217 42.6076 34.7326C42.3967 34.9435 42.1108 35.0622 41.8125 35.0625H37.3125C37.0142 35.0622 36.7283 34.9435 36.5174 34.7326C36.3065 34.5217 36.1878 34.2358 36.1875 33.9375V30.5625C36.1878 30.2642 36.3065 29.9783 36.5174 29.7674C36.7283 29.5565 37.0142 29.4378 37.3125 29.4375H37.3946C37.6036 29.4368 37.8087 29.4946 37.9866 29.6046C38.1644 29.7145 38.3079 29.872 38.4008 30.0593L38.593 30.4438C38.7787 30.8184 39.0657 31.1335 39.4214 31.3533C39.7771 31.5732 40.1873 31.6889 40.6054 31.6875H41.8125C42.1108 31.6878 42.3967 31.8065 42.6076 32.0174C42.8185 32.2283 42.9372 32.5142 42.9375 32.8125V33.9375Z" fill="#293FCC"/>
<path d="M41.8125 39H37.3125C36.716 39.0007 36.1441 39.238 35.7223 39.6598C35.3005 40.0816 35.0632 40.6535 35.0625 41.25V44.625C35.0632 45.2215 35.3005 45.7934 35.7223 46.2152C36.1441 46.637 36.716 46.8743 37.3125 46.875H41.8125C42.409 46.8743 42.9809 46.637 43.4027 46.2152C43.8245 45.7934 44.0618 45.2215 44.0625 44.625V41.25C44.0618 40.6535 43.8245 40.0816 43.4027 39.6598C42.9809 39.238 42.409 39.0007 41.8125 39ZM42.9375 41.25V41.5527C42.5958 41.3541 42.2077 41.2497 41.8125 41.25H40.6054C40.3964 41.2507 40.1913 41.1929 40.0134 41.0829C39.8356 40.973 39.6921 40.8155 39.5992 40.6282L39.407 40.2437C39.3868 40.2032 39.3648 40.1639 39.3424 40.125H41.8125C42.1108 40.1253 42.3967 40.244 42.6076 40.4549C42.8185 40.6658 42.9372 40.9517 42.9375 41.25ZM42.9375 44.625C42.9372 44.9233 42.8185 45.2092 42.6076 45.4201C42.3967 45.631 42.1108 45.7497 41.8125 45.75H37.3125C37.0142 45.7497 36.7283 45.631 36.5174 45.4201C36.3065 45.2092 36.1878 44.9233 36.1875 44.625V41.25C36.1878 40.9517 36.3065 40.6658 36.5174 40.4549C36.7283 40.244 37.0142 40.1253 37.3125 40.125H37.3946C37.6036 40.1243 37.8087 40.1821 37.9866 40.2921C38.1644 40.402 38.3079 40.5595 38.4008 40.7468L38.593 41.1313C38.7787 41.5059 39.0657 41.821 39.4214 42.0408C39.7771 42.2607 40.1873 42.3764 40.6054 42.375H41.8125C42.1108 42.3753 42.3967 42.494 42.6076 42.7049C42.8185 42.9158 42.9372 43.2017 42.9375 43.5V44.625Z" fill="#293FCC"/>
<path d="M29.4375 31.6875V32.8125H31.125V43.5C31.125 43.6492 31.1843 43.7923 31.2898 43.8977C31.3952 44.0032 31.5383 44.0625 31.6875 44.0625H33.9375V42.9375H32.25V32.8125H33.9375V31.6875H29.4375Z" fill="#293FCC"/>
</svg>
