<svg width="191" height="46" viewBox="0 0 191 46" fill="none" xmlns="http://www.w3.org/2000/svg">
<path d="M62.021 23.7953C62.3729 23.3994 62.7248 23.0034 63.1207 22.6075C63.4884 22.1982 63.855 21.7877 64.2203 21.3762C64.5722 20.9358 64.9241 20.5399 65.2323 20.1876C65.5406 19.8353 65.848 19.4843 66.0678 19.2205H70.3347C69.4989 20.188 68.663 21.156 67.8276 22.0355C67.0357 22.9154 66.156 23.8392 65.1883 24.8068C65.7188 25.3036 66.2182 25.8325 66.6839 26.3905C67.2115 27.0062 67.6954 27.6218 68.1794 28.2375C68.6591 28.8547 69.0998 29.5013 69.4989 30.1734C69.8948 30.8331 70.2471 31.4048 70.5109 31.9328H66.376C66.1118 31.4924 65.804 31.0529 65.4961 30.5689C65.1743 30.0358 64.8217 29.5218 64.4401 29.0297C64.0826 28.502 63.6857 28.0021 63.2528 27.5342C62.9022 27.0954 62.5039 26.697 62.0651 26.3464V31.8888H58.4583V13.7222L62.0651 13.1501V23.7953M83.047 31.4929C82.2678 31.7101 81.4741 31.8718 80.672 31.9768C79.6687 32.1407 78.6528 32.2142 77.6364 32.1966C76.7074 32.2303 75.7808 32.081 74.9095 31.7571C74.2536 31.5093 73.6735 31.0951 73.2263 30.5552C72.779 30.0153 72.4798 29.3684 72.3583 28.6779C72.1787 27.8989 72.0901 27.1018 72.0941 26.3024V19.2205H75.7013V25.8625C75.7013 27.0062 75.8334 27.842 76.1413 28.37C76.4491 28.8981 77.0207 29.1619 77.8566 29.1619C78.1359 29.168 78.4153 29.1533 78.6924 29.1178C79.0003 29.0738 79.2205 29.0738 79.4843 29.0297V19.2205H83.0911L83.047 31.4929ZM94.6161 25.4666C94.6161 23.1356 93.7802 21.9919 92.0645 21.9919C91.694 21.9922 91.3249 22.0365 90.9648 22.1235C90.6564 22.1983 90.3602 22.3167 90.0853 22.4754V29.0297C90.2611 29.0738 90.4813 29.0738 90.745 29.1178C91.0088 29.1178 91.3167 29.1619 91.6249 29.1619C92.0521 29.1811 92.4777 29.0995 92.8675 28.9237C93.2572 28.7479 93.6 28.4828 93.8683 28.1499C94.3944 27.3567 94.6562 26.4175 94.6161 25.4666ZM98.2669 25.5546C98.2854 26.4972 98.1365 27.4355 97.827 28.326C97.5622 29.1149 97.1267 29.8358 96.5516 30.4372C95.9522 31.0152 95.2512 31.4776 94.484 31.8011C93.5791 32.1139 92.6257 32.2627 91.6686 32.2406C91.229 32.2406 90.7891 32.1966 90.3051 32.153C89.8211 32.1094 89.3816 32.0649 88.8976 32.0205C88.4577 31.9768 88.0177 31.8888 87.5778 31.8007C87.2016 31.7361 86.8331 31.6329 86.4781 31.4929V13.7218L90.0853 13.1501V19.4843C90.4948 19.3064 90.9225 19.1736 91.3607 19.0884C91.8246 18.9989 92.2962 18.9548 92.7686 18.9567C93.5862 18.9416 94.397 19.1065 95.1437 19.4398C95.8252 19.7366 96.4279 20.1887 96.9035 20.7601C97.4094 21.3756 97.7702 22.0972 97.9591 22.8713C98.1584 23.752 98.2616 24.6517 98.2669 25.5546ZM100.423 25.6867C100.399 24.6789 100.578 23.6766 100.95 22.7396C101.268 21.9562 101.731 21.2397 102.314 20.6276C102.853 20.0604 103.515 19.6243 104.249 19.3526C104.975 19.0547 105.752 18.905 106.537 18.9122C107.325 18.8761 108.113 19.0063 108.848 19.2943C109.583 19.5823 110.249 20.0217 110.804 20.5839C111.859 21.6836 112.387 23.3117 112.387 25.4225C112.393 25.6581 112.378 25.8937 112.343 26.1267C112.343 26.3464 112.299 26.5662 112.299 26.7864H104.117C104.152 27.1393 104.266 27.4799 104.448 27.784C104.631 28.0881 104.878 28.3482 105.173 28.5458C105.905 29.0165 106.766 29.2471 107.636 29.2055C108.285 29.2145 108.934 29.1556 109.571 29.0297C110.113 28.9385 110.644 28.7909 111.155 28.5894L111.639 31.5369C111.463 31.625 111.199 31.713 110.847 31.8447C110.491 31.9644 110.122 32.0384 109.747 32.0649C109.326 32.1509 108.9 32.2094 108.472 32.2402C108.032 32.2847 107.548 32.3287 107.108 32.3287C106.086 32.3523 105.069 32.173 104.117 31.8011C103.331 31.4887 102.613 31.0254 102.005 30.4372C101.462 29.8199 101.044 29.1029 100.774 28.326C100.543 27.4651 100.425 26.578 100.422 25.6867M108.912 24.2792C108.9 23.9785 108.84 23.6815 108.735 23.3994C108.648 23.1152 108.515 22.8476 108.34 22.6075C108.131 22.3446 107.862 22.1355 107.556 21.9978C107.25 21.86 106.915 21.7976 106.58 21.8157C106.217 21.816 105.857 21.8908 105.524 22.0355C105.249 22.1487 105.006 22.3305 104.821 22.5635C104.623 22.7957 104.473 23.0649 104.38 23.3553C104.287 23.6431 104.213 23.9371 104.161 24.2352H108.912M122.812 22.3878C122.438 22.2809 122.055 22.2072 121.668 22.1676C121.205 22.0778 120.733 22.0335 120.261 22.035C119.981 22.0494 119.702 22.079 119.425 22.1235C119.188 22.1554 118.953 22.1995 118.721 22.2557V31.9764H115.114V19.8802C115.863 19.6269 116.627 19.4212 117.401 19.2645C118.368 19.0442 119.357 18.9409 120.349 18.9567C120.584 18.9519 120.819 18.9664 121.052 19.0003C121.333 19.0101 121.612 19.0395 121.888 19.0884C122.152 19.1324 122.416 19.1764 122.724 19.2205C122.988 19.2645 123.252 19.3526 123.428 19.3958L122.812 22.3878ZM125.363 19.6604C127.129 19.1945 128.948 18.958 130.774 18.9567C131.689 18.9185 132.602 19.0681 133.457 19.3962C134.129 19.6228 134.724 20.0345 135.173 20.5839C135.587 21.1344 135.886 21.7625 136.052 22.431C136.237 23.2092 136.325 24.0071 136.316 24.8068V31.9768H132.709V25.2468C132.709 24.1031 132.577 23.2672 132.269 22.7833C131.962 22.2993 131.39 22.0795 130.554 22.0795C130.274 22.0733 129.995 22.0881 129.718 22.1235C129.452 22.1287 129.187 22.1582 128.926 22.2116V32.0209H125.363V19.6604ZM139 25.6867C138.976 24.6789 139.155 23.6766 139.527 22.7396C139.845 21.9562 140.308 21.2397 140.891 20.6276C141.43 20.0604 142.092 19.6243 142.827 19.3526C143.552 19.0547 144.33 18.905 145.114 18.9122C145.903 18.8761 146.69 19.0063 147.425 19.2943C148.16 19.5823 148.827 20.0217 149.381 20.5839C150.436 21.6836 150.964 23.3117 150.964 25.4225C150.97 25.6581 150.955 25.8937 150.92 26.1267C150.92 26.3464 150.876 26.5662 150.876 26.7864H142.694C142.73 27.1393 142.843 27.4799 143.026 27.784C143.208 28.0881 143.456 28.3482 143.75 28.5458C144.483 29.0164 145.344 29.247 146.213 29.2055C146.863 29.2145 147.512 29.1556 148.149 29.0297C148.691 28.9385 149.221 28.7909 149.732 28.5894L150.216 31.5369C150.041 31.625 149.776 31.713 149.424 31.8447C149.069 31.9644 148.699 32.0384 148.325 32.0649C147.904 32.1509 147.478 32.2094 147.049 32.2402C146.609 32.2847 146.125 32.3287 145.686 32.3287C144.663 32.3523 143.647 32.173 142.694 31.8011C141.908 31.4887 141.191 31.0254 140.583 30.4372C140.04 29.8199 139.621 29.1029 139.351 28.326C139.121 27.4651 139.002 26.578 139 25.6867ZM147.489 24.2792C147.477 23.9785 147.418 23.6815 147.313 23.3994C147.226 23.1153 147.092 22.8476 146.917 22.6075C146.709 22.3446 146.44 22.1354 146.134 21.9977C145.827 21.8599 145.493 21.7975 145.158 21.8157C144.794 21.8161 144.435 21.8909 144.102 22.0355C143.826 22.1487 143.584 22.3304 143.398 22.5635C143.201 22.7958 143.051 23.0649 142.958 23.3553C142.864 23.6431 142.791 23.9371 142.738 24.2352H147.489M153.647 16.0532L157.254 15.4816V19.2205H161.565V22.2112H157.254V26.6979C157.224 27.3235 157.361 27.9458 157.65 28.5013C157.914 28.9417 158.486 29.1614 159.278 29.1614C159.675 29.154 160.071 29.1246 160.465 29.0734C160.855 29.0025 161.237 28.8996 161.609 28.7655L162.137 31.5805C161.67 31.7793 161.184 31.9268 160.685 32.0205C160.035 32.1565 159.37 32.2153 158.706 32.1957C157.867 32.2188 157.032 32.0848 156.243 31.8007C155.65 31.5601 155.123 31.1832 154.703 30.7006C154.295 30.1846 154.01 29.5832 153.867 28.9412C153.72 28.2026 153.646 27.4511 153.647 26.6979V16.0532ZM163.413 25.6867C163.389 24.6789 163.568 23.6766 163.941 22.7396C164.258 21.9562 164.721 21.2397 165.304 20.6276C165.843 20.0604 166.506 19.6243 167.24 19.3526C167.965 19.0547 168.743 18.905 169.527 18.9122C170.316 18.8761 171.103 19.0063 171.838 19.2943C172.573 19.5823 173.24 20.0217 173.794 20.5839C174.85 21.6836 175.377 23.3117 175.377 25.4225C175.383 25.6581 175.368 25.8937 175.333 26.1267C175.333 26.3464 175.289 26.5662 175.289 26.7864H167.107C167.143 27.1393 167.256 27.4799 167.439 27.784C167.622 28.0881 167.869 28.3482 168.163 28.5458C168.896 29.0164 169.757 29.247 170.626 29.2055C171.276 29.2145 171.925 29.1556 172.562 29.0297C173.104 28.9385 173.634 28.7909 174.145 28.5894L174.629 31.5369C174.454 31.625 174.189 31.713 173.837 31.8447C173.482 31.9644 173.112 32.0384 172.738 32.0649C172.317 32.1509 171.891 32.2094 171.462 32.2402C171.022 32.2847 170.539 32.3287 170.099 32.3287C169.076 32.3523 168.06 32.173 167.107 31.8011C166.321 31.4887 165.604 31.0254 164.996 30.4372C164.453 29.8199 164.035 29.1029 163.765 28.326C163.513 27.4695 163.394 26.5794 163.413 25.6867ZM171.858 24.2792C171.847 23.9785 171.787 23.6815 171.682 23.3994C171.595 23.1152 171.461 22.8476 171.286 22.6075C171.078 22.3446 170.809 22.1355 170.503 21.9978C170.197 21.86 169.862 21.7976 169.527 21.8157C169.164 21.816 168.804 21.8908 168.471 22.0355C168.195 22.1487 167.953 22.3304 167.767 22.5635C167.57 22.7958 167.42 23.0649 167.328 23.3553C167.234 23.6431 167.16 23.9371 167.107 24.2352H171.858M181.755 29.3376C182.232 29.3726 182.71 29.3129 183.163 29.1619C183.295 29.0893 183.403 28.9799 183.473 28.8469C183.543 28.714 183.573 28.5633 183.559 28.4136C183.559 28.1058 183.383 27.8861 183.031 27.6663C182.517 27.3592 181.971 27.1084 181.403 26.9181C180.832 26.6983 180.304 26.4786 179.864 26.2584C179.443 26.0568 179.057 25.7895 178.72 25.4666C178.397 25.1392 178.143 24.7503 177.972 24.3229C177.785 23.8166 177.695 23.2793 177.709 22.7396C177.684 22.1986 177.792 21.6598 178.021 21.1694C178.251 20.679 178.597 20.2518 179.028 19.9242C179.908 19.2205 181.14 18.8682 182.679 18.8682C183.432 18.8739 184.183 18.9476 184.923 19.0884C185.494 19.1754 186.054 19.323 186.594 19.5288L185.978 22.3437C185.538 22.2112 185.098 22.0795 184.614 21.9478C184.082 21.8169 183.535 21.7577 182.987 21.7717C181.843 21.7717 181.315 22.0795 181.315 22.6952C181.324 22.8311 181.353 22.9649 181.403 23.0915C181.465 23.239 181.573 23.3625 181.711 23.4434C181.843 23.5315 182.063 23.6631 182.283 23.7953C182.547 23.9269 182.855 24.015 183.251 24.1912C183.932 24.4346 184.593 24.7286 185.23 25.0706C185.692 25.2824 186.099 25.5986 186.418 25.9941C186.722 26.2963 186.935 26.6773 187.034 27.0942C187.165 27.5514 187.225 28.0262 187.21 28.5017C187.238 29.0587 187.123 29.6137 186.877 30.114C186.63 30.6144 186.261 31.0436 185.802 31.3612C184.879 32.0209 183.559 32.3287 181.799 32.3287C180.851 32.3579 179.904 32.2543 178.984 32.0209C178.456 31.9117 177.94 31.7495 177.445 31.5369L178.06 28.5898C178.676 28.8265 179.308 29.0175 179.952 29.1614C180.545 29.2875 181.149 29.3465 181.755 29.3376Z" fill="#B3B3C8"/>
<path d="M4.57977 27.2861H6.66664V28.9437H4.57977V27.2861Z" fill="white"/>
<path d="M28.9804 25.9218C28.9251 25.9109 28.8687 25.9066 28.8124 25.909C28.7151 25.9142 28.6199 25.9389 28.5324 25.9817C28.3625 26.0637 28.2308 26.208 28.1648 26.3847C28.0987 26.5614 28.1034 26.7567 28.1779 26.93L28.1728 26.9373L29.8488 30.9862C31.4522 29.9629 32.6688 28.4344 33.3064 26.6423L28.9877 25.9133L28.9804 25.9218ZM22.2606 26.4952C22.2243 26.3356 22.1354 26.1928 22.0083 26.0897C21.8812 25.9866 21.7231 25.9292 21.5595 25.9265C21.5111 25.926 21.4628 25.9303 21.4154 25.9394L21.4081 25.9304L17.1271 26.6572C17.77 28.435 18.9816 29.951 20.574 30.9699L22.2328 26.9612L22.22 26.9454C22.2813 26.8035 22.2955 26.6457 22.2606 26.4952ZM25.8461 28.0673C25.7835 27.9507 25.6905 27.8533 25.5769 27.7855C25.4634 27.7176 25.3335 27.6819 25.2012 27.6821C25.0689 27.6822 24.9392 27.7183 24.8258 27.7865C24.7124 27.8546 24.6197 27.9523 24.5574 28.069H24.554L22.4488 31.8759C23.9561 32.3891 25.5766 32.4724 27.1287 32.1166C27.4166 32.051 27.6978 31.9725 27.9723 31.881L25.8619 28.0673H25.8461ZM32.5107 19.2247L29.2716 22.1235L29.2733 22.1329C29.1738 22.2199 29.0997 22.3322 29.0589 22.4579C29.0181 22.5836 29.0121 22.718 29.0415 22.8469C29.0709 22.9757 29.1347 23.0942 29.226 23.1897C29.3173 23.2852 29.4328 23.3543 29.5602 23.3895L29.564 23.4066L33.76 24.6157C33.9414 22.7305 33.5028 20.838 32.5107 19.2247ZM26.4929 19.5492C26.499 19.6813 26.5408 19.8092 26.6137 19.9195C26.6867 20.0297 26.7881 20.1181 26.9073 20.1753C27.0265 20.2325 27.1589 20.2564 27.2906 20.2444C27.4222 20.2324 27.5482 20.185 27.655 20.1072L27.6679 20.1127L31.2122 17.5996C29.8631 16.2779 28.1171 15.4361 26.2428 15.2036L26.4891 19.5475L26.4929 19.5492ZM22.7395 20.1234C22.8464 20.2012 22.9724 20.2485 23.1041 20.2603C23.2358 20.2721 23.3682 20.248 23.4872 20.1905C23.6063 20.133 23.7075 20.0444 23.7802 19.9339C23.8529 19.8235 23.8942 19.6954 23.8999 19.5633L23.9178 19.5548L24.1641 15.204C23.8668 15.2397 23.5716 15.2905 23.2795 15.3562C21.7259 15.7055 20.3008 16.4821 19.1652 17.5983L22.7327 20.1273L22.7395 20.1234ZM20.8378 23.4108C20.9655 23.376 21.0813 23.3071 21.1729 23.2116C21.2646 23.1161 21.3285 22.9975 21.358 22.8684C21.3875 22.7394 21.3814 22.6048 21.3404 22.4789C21.2994 22.3531 21.225 22.2407 21.1251 22.1539L21.1285 22.1367L17.8714 19.2234C16.8777 20.8407 16.4512 22.743 16.6593 24.6298L20.8343 23.425L20.8378 23.4108ZM24.0012 24.6905L25.2026 25.2677L26.4006 24.6918L26.6982 23.3984L25.8692 22.3616H24.5348L23.7032 23.3963L24.0012 24.6905Z" fill="#B3B3C8"/>
<path d="M45.0653 27.2387L41.6415 12.3673C41.5494 11.9826 41.3731 11.6231 41.1252 11.3148C40.8774 11.0065 40.5642 10.757 40.2083 10.5844L26.3498 3.96763C25.9906 3.79623 25.5976 3.70728 25.1996 3.70728C24.8017 3.70728 24.4087 3.79623 24.0495 3.96763L10.194 10.5878C9.83792 10.7603 9.52464 11.0097 9.27672 11.3181C9.02881 11.6264 8.85245 11.9859 8.76038 12.3707L5.34213 27.2417C5.25783 27.6175 5.25754 28.0073 5.34127 28.3832C5.36598 28.4978 5.39826 28.6107 5.4379 28.721C5.50476 28.9092 5.59328 29.089 5.7017 29.2567C5.74873 29.3286 5.79832 29.3978 5.85219 29.4658L15.443 41.3901C15.4849 41.4414 15.531 41.4893 15.5768 41.5376C15.7273 41.6978 15.8972 41.8386 16.0826 41.9566C16.3171 42.1041 16.5727 42.2151 16.8406 42.2859C17.0602 42.3461 17.2867 42.3775 17.5145 42.3791H17.6637L32.8947 42.3756C32.9872 42.3753 33.0797 42.3698 33.1717 42.3594C33.3037 42.3444 33.4343 42.3196 33.5625 42.285C33.6545 42.2608 33.7451 42.2319 33.834 42.1982C33.9036 42.1727 33.9721 42.1442 34.0392 42.1127C34.1393 42.0649 34.2364 42.0111 34.33 41.9515C34.5713 41.7998 34.7862 41.6096 34.9661 41.3884L35.2586 41.025L44.5535 29.462C44.7317 29.2385 44.8717 28.9871 44.9678 28.718C45.008 28.6074 45.0408 28.4943 45.0661 28.3794C45.1501 28.0035 45.1498 27.6136 45.0653 27.2378V27.2387ZM30.6907 33.0226C30.7296 33.137 30.7757 33.2488 30.8288 33.3573C30.7441 33.5057 30.721 33.6813 30.7646 33.8465C30.9663 34.3083 31.2126 34.7494 31.5 35.1633C31.6608 35.3749 31.8093 35.5956 31.9447 35.8243C31.978 35.8863 32.0216 35.9821 32.0533 36.0475C32.1131 36.1473 32.1513 36.2585 32.1655 36.3739C32.1798 36.4894 32.1697 36.6065 32.1359 36.7178C32.1021 36.8292 32.0454 36.9322 31.9694 37.0202C31.8934 37.1083 31.7998 37.1795 31.6947 37.2292C31.5895 37.2789 31.4751 37.3061 31.3588 37.3089C31.2425 37.3117 31.1269 37.2902 31.0194 37.2457C30.912 37.2011 30.815 37.1346 30.7348 37.0503C30.6547 36.966 30.593 36.8659 30.5538 36.7564C30.5222 36.6914 30.4782 36.605 30.4512 36.5439C30.3565 36.2953 30.2761 36.0415 30.2105 35.7837C30.0667 35.3014 29.8761 34.8343 29.6415 34.389C29.5394 34.2513 29.3874 34.1591 29.2182 34.1321C29.1917 34.0863 29.0933 33.9063 29.0407 33.8131C26.5737 34.7474 23.849 34.7404 21.3868 33.7934L21.1991 34.1338C21.0651 34.1545 20.9406 34.2152 20.8416 34.3078C20.5588 34.7719 20.3427 35.2735 20.1995 35.7978C20.1345 36.0556 20.0545 36.3094 19.96 36.558C19.9335 36.6187 19.8891 36.7042 19.8574 36.7688V36.7705L19.8561 36.7722C19.817 36.8818 19.7553 36.9821 19.6751 37.0664C19.5949 37.1507 19.4978 37.2173 19.3903 37.2619C19.2827 37.3064 19.167 37.3279 19.0506 37.3249C18.9342 37.322 18.8198 37.2947 18.7146 37.2448C18.6094 37.1948 18.5159 37.1234 18.44 37.0351C18.3641 36.9468 18.3076 36.8436 18.2741 36.7321C18.2406 36.6207 18.2308 36.5034 18.2454 36.3879C18.26 36.2724 18.2987 36.1612 18.3589 36.0616C18.3901 35.9958 18.432 35.9004 18.4649 35.8384C18.6002 35.6091 18.7487 35.3879 18.9095 35.1757C19.2022 34.7509 19.4536 34.299 19.6603 33.8264C19.6823 33.6662 19.6565 33.503 19.5864 33.3573L19.7373 32.9956C17.4672 31.6559 15.7659 29.5319 14.9543 27.0241L14.593 27.0856C14.4528 26.9861 14.2875 26.9279 14.1159 26.9176C13.6214 27.0122 13.1372 27.1547 12.6703 27.343C12.4278 27.4522 12.1793 27.5474 11.926 27.6282C11.8661 27.6444 11.7797 27.6611 11.7113 27.6761C11.7058 27.6778 11.7011 27.6804 11.6955 27.6816L11.6827 27.6829C11.5726 27.7192 11.4561 27.732 11.3408 27.7206C11.2254 27.7093 11.1138 27.6739 11.0128 27.6169C10.9119 27.5599 10.8241 27.4824 10.7548 27.3894C10.6856 27.2965 10.6366 27.1901 10.6108 27.0771C10.5851 26.9641 10.5832 26.8469 10.6054 26.7332C10.6275 26.6194 10.6732 26.5115 10.7394 26.4164C10.8057 26.3213 10.891 26.2411 10.9901 26.1809C11.0891 26.1207 11.1996 26.0818 11.3146 26.0668L11.3265 26.0638L11.3338 26.0617C11.4031 26.0454 11.492 26.0223 11.5553 26.0103C11.819 25.9737 12.0847 25.9523 12.3509 25.9462C12.8532 25.9134 13.3511 25.8316 13.8375 25.7021C13.9817 25.6103 14.1035 25.4874 14.1941 25.3425L14.5413 25.2412C14.1645 22.6238 14.7672 19.9594 16.2339 17.7591L15.968 17.5222C15.9583 17.3501 15.9005 17.1842 15.8013 17.0434C15.4193 16.715 15.0062 16.4248 14.5678 16.1767C14.3311 16.056 14.1016 15.9219 13.8803 15.7748C13.8298 15.7372 13.7631 15.6808 13.7084 15.6363L13.696 15.6277C13.5074 15.4922 13.38 15.2875 13.3418 15.0584C13.3036 14.8293 13.3576 14.5944 13.4921 14.405C13.5715 14.3077 13.6728 14.2305 13.7876 14.1797C13.9025 14.1289 14.0277 14.1059 14.1531 14.1125C14.3641 14.1216 14.5667 14.198 14.7311 14.3306C14.7875 14.375 14.8649 14.434 14.915 14.4772C15.1081 14.6598 15.2905 14.8534 15.4614 15.057C15.8003 15.4293 16.1747 15.7677 16.5794 16.0673C16.731 16.147 16.9078 16.1642 17.0719 16.1152C17.1194 16.1502 17.2797 16.2648 17.3712 16.3276C18.8286 14.7786 20.7158 13.7005 22.7904 13.2318C23.2842 13.1198 23.7852 13.0427 24.2898 13.0009L24.3095 12.6503C24.4383 12.5359 24.5317 12.3871 24.5788 12.2215C24.597 11.7183 24.566 11.2145 24.4865 10.7173C24.4337 10.4568 24.3959 10.1934 24.3732 9.92852C24.3711 9.86823 24.3745 9.78486 24.3753 9.71602C24.3753 9.70833 24.3732 9.70063 24.3732 9.69294C24.3613 9.57694 24.3739 9.45975 24.4102 9.34894C24.4465 9.23812 24.5056 9.13614 24.5837 9.04958C24.6618 8.96303 24.7572 8.89382 24.8637 8.84643C24.9703 8.79904 25.0856 8.77452 25.2022 8.77446C25.3188 8.7744 25.4341 8.7988 25.5407 8.84608C25.6472 8.89336 25.7427 8.96247 25.8209 9.04894C25.8991 9.13542 25.9583 9.23734 25.9947 9.34812C26.0311 9.4589 26.0438 9.57608 26.0321 9.69208C26.0321 9.76477 26.0364 9.86139 26.0338 9.92809C26.0111 10.1929 25.9731 10.4561 25.9201 10.7165C25.84 11.2138 25.8085 11.7177 25.826 12.221C25.8588 12.3893 25.9561 12.5382 26.0971 12.6358C26.1001 12.6956 26.1099 12.8957 26.1172 13.006C28.7391 13.2444 31.1853 14.4264 33.0016 16.3323L33.3171 16.107C33.4867 16.1361 33.661 16.1171 33.8203 16.0523C34.2249 15.7522 34.5994 15.4134 34.9384 15.0407C35.1096 14.837 35.2924 14.6435 35.486 14.461C35.5369 14.4174 35.6139 14.3584 35.6699 14.3143C35.7531 14.2322 35.8527 14.1686 35.9621 14.1275C36.0716 14.0863 36.1884 14.0687 36.3051 14.0757C36.4218 14.0827 36.5357 14.1141 36.6395 14.168C36.7432 14.2218 36.8345 14.2969 36.9073 14.3883C36.9802 14.4798 37.033 14.5855 37.0623 14.6986C37.0917 14.8118 37.0969 14.9298 37.0777 15.0452C37.0584 15.1605 37.0152 15.2704 36.9507 15.3679C36.8862 15.4654 36.8019 15.5483 36.7033 15.6111C36.6477 15.656 36.5742 15.7188 36.5207 15.7586C36.2989 15.9057 36.0688 16.0399 35.8315 16.1605C35.3932 16.4086 34.9801 16.6989 34.598 17.0271C34.4868 17.1574 34.4309 17.3261 34.4424 17.497C34.3962 17.5393 34.2342 17.683 34.1482 17.7608C35.619 19.9532 36.2338 22.6093 35.876 25.2249L36.2107 25.3224C36.2944 25.4732 36.4183 25.5978 36.5686 25.6824C37.0552 25.812 37.5532 25.8939 38.0556 25.927C38.3217 25.9331 38.5872 25.9544 38.8509 25.9907C38.9205 26.0035 39.0215 26.0313 39.0924 26.0475C39.2072 26.0628 39.3176 26.1018 39.4165 26.1621C39.5154 26.2224 39.6006 26.3026 39.6667 26.3977C39.7328 26.4928 39.7783 26.6007 39.8003 26.7144C39.8224 26.8281 39.8204 26.9451 39.7947 27.0581C39.7689 27.171 39.7198 27.2773 39.6506 27.3701C39.5814 27.463 39.4936 27.5404 39.3928 27.5974C39.292 27.6544 39.1804 27.6897 39.0651 27.7012C38.9499 27.7126 38.8335 27.6998 38.7234 27.6637L38.7115 27.662C38.7059 27.6607 38.7008 27.6577 38.6952 27.6564C38.6268 27.6414 38.5409 27.6265 38.481 27.6107C38.2277 27.5293 37.9793 27.4334 37.7371 27.3233C37.2698 27.1349 36.7852 26.9924 36.2903 26.8979C36.1189 26.8925 35.9523 26.9543 35.8259 27.0702C35.7082 27.0474 35.5901 27.0268 35.4715 27.0082C34.6696 29.5316 32.9681 31.6721 30.6907 33.0226Z" fill="#B3B3C8"/>
</svg>
