<svg width="60" height="60" viewBox="0 0 60 60" fill="none" xmlns="http://www.w3.org/2000/svg">
<circle cx="30" cy="30" r="29.5" fill="#E5F1FF" stroke="#E5F1FF"/>
<path d="M21.6 17.384L19.44 18.568V21.256V23.96L20.24 24.392C20.688 24.632 21.12 24.856 21.2 24.904C21.296 24.936 20.96 25.368 20.464 25.88L19.568 26.792L18.624 26.312L17.68 25.832L15.408 27.064L13.136 28.28V31V33.72L15.408 34.952L17.68 36.184L19.52 35.208C22.624 33.576 22.4 33.784 22.4 32.584V31.56H23.84H25.28V32.584V33.608L27.632 34.904L30 36.184L31.36 35.448C32.112 35.048 33.168 34.472 33.728 34.168L34.72 33.608V32.584V31.56H36.16H37.6V32.6V33.624L38.8 34.296L40.016 34.952L39.168 35.88L38.32 36.792L37.152 36.168L35.984 35.56L33.68 36.808L31.376 38.04L31.328 39.32L31.28 40.6H30H28.72L28.672 39.32L28.624 38.04L26.32 36.808L24.032 35.56L21.728 36.808L19.44 38.056V40.744V43.448L21.728 44.68L24.016 45.928L26.288 44.696L28.56 43.48L28.608 42.312L28.656 41.16H30H31.344L31.392 42.312L31.44 43.48L33.68 44.696L35.92 45.912L37.6 45.032C38.528 44.552 39.584 43.976 39.968 43.768L40.64 43.368L40.608 40.696L40.56 38.04L39.712 37.592L38.88 37.144L39.712 36.2L40.56 35.256L41.424 35.72L42.272 36.184L44.576 34.952L46.864 33.72V31V28.28L44.592 27.064L42.32 25.848L41.424 26.296L40.528 26.744L39.68 25.88C39.2 25.4 38.864 24.952 38.944 24.888C39.008 24.824 39.392 24.584 39.808 24.36L40.56 23.96V21.256V18.552L38.4 17.384C37.216 16.728 36.128 16.2 36 16.2C35.872 16.2 34.784 16.728 33.6 17.368L31.44 18.536L31.392 21.256L31.36 23.96L33.664 25.192L35.968 26.44L37.104 25.832L38.224 25.24L39.136 26.136L40.032 27.032L38.816 27.704L37.6 28.376V29.64V30.92H36.16H34.72V29.656V28.392L32.448 27.144C31.2 26.472 30.096 25.912 30 25.912C29.904 25.912 28.8 26.472 27.552 27.144L25.28 28.392V29.656V30.92H23.84H22.4V29.64V28.36L21.28 27.768C20.672 27.432 20.16 27.128 20.16 27.08C20.16 27.032 20.544 26.6 21.024 26.136L21.888 25.272L22.96 25.864L24.016 26.44L26.336 25.208L28.64 23.96L28.608 21.256L28.56 18.552L26.416 17.368C25.232 16.728 24.16 16.2 24.016 16.2C23.872 16.2 22.784 16.744 21.6 17.384ZM25.728 17.672C26.576 18.12 27.376 18.568 27.488 18.648C27.632 18.76 27.216 19.08 25.888 19.8L24.08 20.808L22.208 19.816C21.184 19.288 20.384 18.808 20.416 18.76C20.608 18.568 23.776 16.856 23.968 16.856C24.08 16.84 24.88 17.208 25.728 17.672ZM36.848 17.224C37.216 17.432 38.016 17.864 38.624 18.2L39.712 18.792L37.856 19.8L36 20.808L34.176 19.816C33.12 19.256 32.4 18.776 32.48 18.696C32.72 18.456 35.744 16.856 35.968 16.84C36.08 16.84 36.48 17.016 36.848 17.224ZM22 20.408L23.6 21.288L23.648 23.384C23.664 24.536 23.632 25.48 23.568 25.48C23.504 25.48 22.688 25.048 21.76 24.536L20.08 23.608L20.032 21.48C20 19.816 20.032 19.384 20.192 19.448C20.304 19.496 21.12 19.928 22 20.408ZM28.16 21.464V23.528L26.336 24.504C25.328 25.048 24.464 25.48 24.416 25.48C24.368 25.48 24.32 24.552 24.32 23.4V21.336L26.128 20.376C27.104 19.832 27.968 19.4 28.048 19.4C28.112 19.4 28.16 20.328 28.16 21.464ZM34.048 20.456L35.68 21.336V23.416C35.68 24.552 35.632 25.48 35.584 25.48C35.536 25.48 34.672 25.048 33.664 24.504L31.84 23.528V21.448C31.84 19.032 31.584 19.144 34.048 20.456ZM39.968 21.512L39.92 23.608L38.24 24.536C37.312 25.048 36.496 25.48 36.432 25.48C36.368 25.48 36.336 24.536 36.352 23.384L36.4 21.288L38.08 20.36C39.008 19.848 39.824 19.416 39.888 19.416C39.952 19.4 39.984 20.344 39.968 21.512ZM19.584 27.512C20.512 28.024 21.28 28.472 21.28 28.536C21.28 28.584 20.48 29.064 19.504 29.592L17.728 30.552L15.904 29.576C14.912 29.032 14.08 28.568 14.08 28.52C14.08 28.408 17.488 26.616 17.712 26.6C17.808 26.6 18.656 27.016 19.584 27.512ZM31.856 27.512C32.816 28.024 33.6 28.472 33.6 28.52C33.6 28.616 30.176 30.488 30 30.488C29.824 30.488 26.4 28.616 26.4 28.52C26.4 28.424 29.776 26.616 29.984 26.6C30.064 26.6 30.912 27.016 31.856 27.512ZM44.16 27.512C45.136 28.024 45.92 28.472 45.92 28.52C45.92 28.568 45.104 29.032 44.096 29.576L42.272 30.552L40.544 29.624C39.584 29.112 38.784 28.632 38.768 28.568C38.72 28.424 41.872 26.632 42.208 26.616C42.32 26.6 43.2 27.016 44.16 27.512ZM15.648 30.136L17.44 31.112V33.176C17.44 34.312 17.392 35.24 17.344 35.24C17.28 35.24 16.416 34.792 15.424 34.248L13.6 33.272V31.208C13.6 30.088 13.664 29.16 13.728 29.16C13.808 29.16 14.672 29.592 15.648 30.136ZM21.76 31.224V33.304L20 34.264C19.024 34.808 18.192 35.24 18.144 35.24C18.112 35.24 18.096 34.296 18.112 33.128L18.16 31.032L19.84 30.104C20.768 29.592 21.568 29.16 21.648 29.16C21.712 29.16 21.76 30.088 21.76 31.224ZM27.936 30.136L29.76 31.096V33.192C29.76 35.608 30.016 35.496 27.568 34.184L25.92 33.304V31.224C25.92 30.088 25.968 29.16 26.016 29.16C26.08 29.16 26.944 29.592 27.936 30.136ZM34.08 31.224V33.304L32.448 34.184C29.984 35.496 30.24 35.608 30.24 33.192V31.096L32.048 30.136C33.024 29.608 33.888 29.16 33.968 29.16C34.032 29.16 34.08 30.088 34.08 31.224ZM40.16 30.104L41.84 31.032L41.888 33.128C41.904 34.296 41.888 35.24 41.856 35.24C41.808 35.24 40.976 34.808 40 34.264L38.24 33.304V31.224C38.24 30.088 38.288 29.16 38.368 29.16C38.432 29.16 39.232 29.592 40.16 30.104ZM46.4 31.208V33.272L44.576 34.248C43.584 34.792 42.72 35.24 42.656 35.24C42.608 35.24 42.56 34.312 42.56 33.176V31.112L44.288 30.152C45.232 29.624 46.096 29.192 46.208 29.176C46.352 29.16 46.4 29.672 46.4 31.208ZM27.68 38.28C27.68 38.328 26.848 38.792 25.84 39.32L24 40.28L22.688 39.576C21.952 39.192 21.12 38.728 20.832 38.552L20.288 38.232L22.16 37.24L24.032 36.248L25.856 37.224C26.848 37.768 27.68 38.232 27.68 38.28ZM37.936 37.304L39.696 38.232L39.168 38.552C38.88 38.728 38.048 39.192 37.312 39.576L36 40.28L34.16 39.32C33.152 38.792 32.32 38.328 32.32 38.28C32.32 38.168 35.728 36.376 35.968 36.36C36.08 36.36 36.96 36.776 37.936 37.304ZM21.92 39.848L23.6 40.76L23.648 42.888C23.664 44.04 23.664 45 23.632 45C23.6 45 22.784 44.568 21.824 44.056L20.08 43.112L20.032 41.016C20.016 39.864 20.048 38.92 20.112 38.92C20.176 38.92 20.992 39.336 21.92 39.848ZM28.16 40.968V43.016L26.32 44.008C25.312 44.552 24.448 45 24.4 45C24.352 45 24.336 44.056 24.352 42.904L24.4 40.808L26.08 39.864C27.008 39.352 27.856 38.936 27.968 38.92C28.112 38.92 28.16 39.432 28.16 40.968ZM33.92 39.864L35.6 40.808L35.648 42.904C35.664 44.056 35.648 45 35.6 45C35.552 45 34.688 44.552 33.68 44.008L31.84 43.016V40.968C31.84 39.432 31.888 38.92 32.048 38.92C32.144 38.936 32.992 39.352 33.92 39.864ZM39.968 41.016L39.92 43.112L38.176 44.056C37.216 44.568 36.4 45 36.368 45C36.336 45 36.336 44.04 36.352 42.888L36.4 40.76L38.08 39.848C39.008 39.352 39.824 38.936 39.888 38.92C39.952 38.92 39.984 39.864 39.968 41.016Z" fill="#293FCC"/>
</svg>
