<svg width="60" height="60" viewBox="0 0 60 60" fill="none" xmlns="http://www.w3.org/2000/svg">
<circle cx="30" cy="30" r="29.5" fill="#E5F1FF" stroke="#E5F1FF"/>
<path d="M27.0385 12.352C25.877 12.7094 23.435 14.8238 22.8394 15.9555C22.4522 16.6703 22.3331 16.7 20.7547 16.5511C19.3252 16.4022 18.8487 16.4916 17.449 17.2361C15.5728 18.1891 14.0837 20.1249 13.7859 22.0011C13.6072 23.0434 13.9944 25.1579 14.59 26.5576C14.7091 26.8554 14.5006 27.1532 13.9348 27.4808C11.8799 28.6423 10.51 32.3053 11.1652 34.807C11.9395 37.6957 14.322 39.6017 17.5085 39.8698L19.2358 40.0484V44.0093V48H30.4038H41.5717V44.0093V40.0484L43.031 39.84C44.7881 39.6017 46.9621 38.2318 47.8555 36.8023C48.7489 35.343 48.9574 32.3351 48.3022 30.6078C48.0044 29.8633 47.3492 28.8507 46.843 28.3445C45.9495 27.4808 45.89 27.3021 45.9793 25.6344C46.1282 23.4603 45.3241 21.6735 43.5968 20.1844C42.346 19.1123 40.3805 18.4869 39.0701 18.7251C38.4447 18.8443 38.266 18.6656 37.5512 17.0574C36.628 15.0323 35.0496 13.3943 33.1139 12.5307C31.7439 11.9053 28.6765 11.8159 27.0385 12.352ZM32.816 13.1263C33.4712 13.4241 34.4838 14.0793 35.0496 14.5856C36.092 15.5088 37.4023 17.7424 37.4917 18.7847C37.5215 19.2612 37.8193 19.3803 39.6359 19.4697C41.393 19.559 41.9589 19.7079 42.8225 20.3631C44.6392 21.7628 45.2943 23.103 45.2943 25.5748C45.2943 27.5999 45.3539 27.7786 46.2771 28.672C47.7364 30.1015 48.2129 31.4119 48.0342 33.6455C47.796 36.713 45.8006 38.9168 43.0608 39.1252L41.7206 39.2146L41.6313 31.7693L41.5717 24.2942L39.3977 22.15L37.2237 20.0057L28.1702 20.0653L19.0869 20.1546L18.9976 29.7739L18.938 39.423L17.3596 39.2146C14.3815 38.7976 12.8329 37.5766 11.9395 34.8665C11.5225 33.6157 11.4928 33.1392 11.7906 31.9778C12.2671 30.0718 13.1009 28.7912 14.4113 28.0169C15.0069 27.6595 15.543 27.3319 15.6026 27.3021C15.6323 27.2723 15.3941 26.6469 15.0665 25.9322C13.4881 22.4478 15.0963 18.4571 18.5211 17.3254C19.5337 16.9681 21.2014 17.0276 22.2437 17.4446C22.5416 17.5935 22.8096 17.4148 23.0181 16.9383C24.6262 13.4539 29.421 11.5777 32.816 13.1263ZM36.8067 22.686V24.7707H38.8914H40.9761V36.0875V47.4044H30.2549H19.5634L19.5337 34.2113C19.5337 26.9447 19.623 20.8992 19.7421 20.8098C19.8315 20.6907 23.7328 20.6014 28.3787 20.6014H36.8067V22.686ZM38.951 22.5967C39.5764 23.1923 40.0826 23.8177 40.0826 23.9368C40.0826 24.056 39.487 24.1751 38.7425 24.1751H37.4023V22.8349C37.4023 22.0904 37.4917 21.4948 37.6108 21.4948C37.7299 21.4948 38.3256 22.0011 38.951 22.5967Z" fill="#293FCC"/>
<path d="M31.0292 27.7191C30.2847 28.4934 30.1953 28.7912 30.3144 29.9526C30.4633 31.2332 30.4336 31.3226 29.3019 32.0671C28.3191 32.7223 27.9022 32.8116 26.9492 32.6627C25.341 32.3947 24.1497 32.9308 23.5541 34.1816C22.6011 36.1769 24.0604 38.3211 26.294 38.2616C26.8598 38.2318 27.4852 38.0829 27.6639 37.9042C27.8724 37.6957 28.3489 37.8744 29.1828 38.47C30.3442 39.2444 30.4038 39.3933 30.3144 40.4654C30.2251 41.3886 30.374 41.8353 30.9994 42.5798C31.6546 43.3839 32.012 43.5328 33.0543 43.5328C34.871 43.5328 35.9133 42.5203 35.9133 40.793C35.9133 40.0782 35.7346 39.3039 35.5261 39.0359C34.6327 37.8446 32.6672 37.517 31.5057 38.3509C30.8505 38.7976 30.7612 38.7679 29.6593 38.0531C28.5574 37.3384 28.5276 37.249 28.8552 36.4151C29.1232 35.7302 29.0934 35.2537 28.7956 34.4496C28.3489 33.2286 28.4084 33.1392 29.8082 32.3947C30.7016 31.9182 30.9994 31.8586 31.4759 32.1564C33.2628 33.2881 35.9133 31.8288 35.9133 29.6846C35.9133 27.1532 32.7863 25.9024 31.0292 27.7191ZM34.722 28.0466C35.0794 28.404 35.3177 29.0294 35.3177 29.6846C35.3177 30.3398 35.0794 30.9652 34.722 31.3226C34.3647 31.6799 33.7393 31.9182 33.0841 31.9182C32.4289 31.9182 31.8035 31.6799 31.4461 31.3226C31.0888 30.9652 30.8505 30.3398 30.8505 29.6846C30.8505 29.0294 31.0888 28.404 31.4461 28.0466C31.8035 27.6893 32.4289 27.451 33.0841 27.451C33.7393 27.451 34.3647 27.6893 34.722 28.0466ZM27.7235 33.854C29.1828 35.2835 28.2595 37.6064 26.2642 37.666C24.388 37.7255 23.2861 35.9684 24.1497 34.3305C24.8645 32.901 26.562 32.6627 27.7235 33.854ZM34.7518 39.0359C35.6155 39.7209 35.675 41.4482 34.871 42.3416C34.1264 43.1755 32.28 43.1457 31.4461 42.282C29.5104 40.1973 32.5182 37.2192 34.7518 39.0359Z" fill="#293FCC"/>
<path d="M33.8882 30.1313C33.4713 30.7865 32.6374 30.9056 32.1014 30.3696C31.8333 30.1015 31.744 30.1313 31.744 30.4887C31.744 30.995 32.3396 31.3226 33.2033 31.3226C33.7989 31.3226 34.7221 30.4291 34.7221 29.8931C34.7221 29.357 34.3052 29.4761 33.8882 30.1313Z" fill="#293FCC"/>
<path d="M27.0385 35.7897C26.6216 36.4449 25.7877 36.564 25.2516 36.028C24.9836 35.7599 24.8943 35.7897 24.8943 36.1471C24.8943 36.6534 25.4899 36.981 26.3833 36.981C26.8896 36.981 27.8724 35.9684 27.8724 35.4323C27.8724 34.9856 27.4257 35.1941 27.0385 35.7897Z" fill="#293FCC"/>
<path d="M34.1266 41.1801C33.8288 41.6864 33.6203 41.7757 32.7269 41.597C31.9823 41.4779 31.7441 41.5077 31.893 41.7459C32.2206 42.282 33.3225 42.5798 33.8883 42.3118C34.5733 41.9544 35.1094 40.9418 34.752 40.7036C34.5733 40.6142 34.3053 40.8227 34.1266 41.1801Z" fill="#293FCC"/>
</svg>
