<svg width="192" height="46" viewBox="0 0 192 46" fill="none" xmlns="http://www.w3.org/2000/svg">
<g clip-path="url(#clip0_1_4544)">
<path d="M59.9175 6.01097V3.54081H57.6232V6.01097H56.5066V0.084123H57.6614V2.56958H59.9557V0.084123H61.1105V6.01097H59.9175ZM65.2707 6.01097H64.353L64.2689 5.72037C63.8804 5.97008 63.4305 6.10769 62.9688 6.11804C62.1582 6.11804 61.8064 5.58271 61.8064 4.84855C61.8064 3.97673 62.1964 3.64788 63.1065 3.64788H64.1771V3.17373C64.1771 2.69958 64.0395 2.53134 63.3283 2.53134C62.9146 2.53521 62.5023 2.57875 62.097 2.66135L61.9441 1.85071C62.4433 1.71927 62.9573 1.65245 63.4736 1.65187C64.8731 1.65187 65.286 2.12602 65.286 3.18138L65.2707 6.01097ZM64.1771 4.39734H63.3512C62.9841 4.39734 62.8847 4.49676 62.8847 4.81796C62.8847 5.13915 62.9841 5.24622 63.3359 5.24622C63.6302 5.24168 63.9189 5.16557 64.1771 5.02444V4.39734ZM67.6262 6.11804C67.1073 6.10977 66.5922 6.02736 66.0967 5.87332L66.2496 5.05503C66.6809 5.17308 67.1256 5.23477 67.5727 5.23857C68.0697 5.23857 68.1386 5.13151 68.1386 4.81031C68.1386 4.48911 68.085 4.41264 67.3738 4.25204C66.2879 3.99967 66.1579 3.732 66.1579 2.90607C66.1579 2.08013 66.5326 1.64422 67.8097 1.64422C68.2601 1.64579 68.7089 1.69709 69.148 1.79717L69.041 2.64605C68.6368 2.57452 68.2277 2.53361 67.8174 2.52369C67.3356 2.52369 67.2515 2.63076 67.2515 2.89077C67.2515 3.15079 67.2515 3.25786 67.8786 3.41081C69.1251 3.72436 69.2398 3.88495 69.2398 4.76442C69.2398 5.64389 68.9722 6.11804 67.6262 6.11804ZM72.7347 6.03392V3.05902C72.7347 2.82959 72.6353 2.71488 72.3753 2.71488C71.9693 2.75365 71.5746 2.8705 71.2129 3.05902V6.01097H70.0963V0L71.2129 0.168246V2.05719C71.7211 1.80746 72.276 1.6668 72.8418 1.64422C73.6066 1.64422 73.8513 2.14131 73.8513 2.90607V6.01097L72.7347 6.03392ZM74.7843 1.15478V0.084123H75.9008V1.13184L74.7843 1.15478ZM74.7843 6.03392V1.73599H75.9008V6.01097L74.7843 6.03392ZM76.7879 1.79717C76.7879 0.726517 77.438 0.0994181 78.9522 0.0994181C79.5084 0.0988259 80.0627 0.162987 80.6041 0.290607L80.4741 1.24655C79.9819 1.15568 79.4832 1.10453 78.9828 1.0936C78.218 1.0936 77.9351 1.35362 77.9351 1.98071V4.20615C77.9351 4.8256 78.1874 5.09327 78.9828 5.09327C79.4832 5.08233 79.9819 5.03118 80.4741 4.94032L80.6041 5.89626C80.0627 6.02388 79.5084 6.08804 78.9522 6.08745C77.4227 6.08745 76.7879 5.468 76.7879 4.38969V1.79717ZM83.0742 6.11804C81.5447 6.11804 81.1394 5.3074 81.1394 4.43558V3.33433C81.1394 2.45486 81.5524 1.65187 83.0742 1.65187C84.5961 1.65187 85.0091 2.46251 85.0091 3.33433V4.41264C85.0167 5.2921 84.6037 6.11804 83.0742 6.11804ZM83.0742 2.57722C82.4777 2.57722 82.2483 2.82959 82.2483 3.34198V4.48911C82.2483 4.97091 82.4777 5.25387 83.0742 5.25387C83.6707 5.25387 83.9002 5.0015 83.9002 4.48911V3.29609C83.9002 2.8143 83.6707 2.56193 83.0742 2.56193V2.57722ZM88.1522 2.64605C87.7446 2.82268 87.3509 3.02975 86.9745 3.2655V6.01862H85.8579V1.73599H86.7986L86.8751 2.21014C87.2396 1.97475 87.6328 1.78713 88.0451 1.65187L88.1522 2.64605ZM92.6107 4.58853C92.6444 4.79162 92.6303 4.99978 92.5694 5.19644C92.5085 5.3931 92.4025 5.57284 92.26 5.72135C92.1174 5.86986 91.9421 5.98305 91.7481 6.05192C91.5541 6.12079 91.3467 6.14343 91.1424 6.11804C90.7443 6.11424 90.3475 6.07328 89.957 5.99568V7.72402L88.8405 7.89227V1.77423H89.7276L89.8347 2.13367C90.2449 1.83956 90.7371 1.68173 91.2418 1.68246C92.1366 1.68246 92.6107 2.19485 92.6107 3.16609V4.58853ZM89.9494 5.07032C90.2737 5.14032 90.6041 5.17874 90.9359 5.18504C91.3412 5.18504 91.4942 5.0015 91.4942 4.61147V3.08196C91.4942 2.73018 91.3565 2.53899 90.9436 2.53899C90.5775 2.55238 90.2269 2.68993 89.9494 2.92901V5.07032ZM63.3053 14.9433H56.5066V10.8825H74.7155V14.9433H67.9091V35.2323H63.3206L63.3053 14.9433Z" fill="#B3B3C8"/>
<path d="M78.914 31.9438C80.7606 31.9344 82.5956 31.6509 84.359 31.1025L85.0549 34.4675C82.9556 35.2239 80.7401 35.6069 78.5086 35.5993C72.9183 35.5993 70.9758 33.0068 70.9758 28.7165V24.0133C70.9758 20.2507 72.6583 17.0693 78.3633 17.0693C84.0684 17.0693 85.3455 20.396 85.3455 24.235V28.0588H75.4037V28.9765C75.442 31.1025 76.2067 31.9438 78.914 31.9438ZM75.442 24.4721H81.1088V23.5697C81.1088 21.8872 80.5964 20.7172 78.4016 20.7172C76.2067 20.7172 75.442 21.8872 75.442 23.5697V24.4721ZM97.2681 21.1607C95.6256 21.9014 94.0429 22.7682 92.5342 23.7532V35.2246H88.0757V17.4287H91.8383L92.1289 19.4018C93.5795 18.4197 95.1532 17.6328 96.8092 17.0616L97.2681 21.1607ZM108.158 21.1607C106.521 21.9021 104.943 22.7689 103.44 23.7532V35.2246H98.9811V17.4287H102.744L103.034 19.4018C104.485 18.4197 106.059 17.6328 107.715 17.0616L108.158 21.1607ZM123.079 35.2322H119.423L119.094 34.0239C117.517 35.0502 115.676 35.5974 113.794 35.5993C110.544 35.5993 109.152 33.3662 109.152 30.2995C109.152 26.6822 110.728 25.2904 114.345 25.2904H118.62V23.4244C118.62 21.4513 118.069 20.7554 115.217 20.7554C113.558 20.7741 111.906 20.9585 110.284 21.306L109.734 17.9029C111.726 17.3515 113.784 17.0685 115.852 17.0616C121.442 17.0616 123.094 19.0347 123.094 23.4932L123.079 35.2322ZM118.62 28.5024H115.332C113.871 28.5024 113.466 28.9077 113.466 30.2537C113.466 31.5996 113.871 32.0432 115.255 32.0432C116.436 32.0252 117.593 31.7096 118.62 31.1255V28.5024ZM136.783 13.3679C135.941 13.1869 135.082 13.0896 134.221 13.0773C132.47 13.0773 132.21 13.842 132.21 15.1956V17.4287H136.745L136.492 20.9772H132.217V35.2322H127.759V20.9772H124.906V17.4287H127.759V14.9433C127.759 11.2495 129.48 9.42173 133.426 9.42173C134.718 9.41684 136.004 9.58924 137.249 9.93412L136.783 13.3679ZM145.486 35.5993C139.368 35.5993 137.739 32.2344 137.739 28.5788V24.0821C137.739 20.4266 139.383 17.0616 145.486 17.0616C151.589 17.0616 153.233 20.4266 153.233 24.0821V28.5788C153.24 32.2344 151.589 35.5993 145.486 35.5993ZM145.486 20.8625C143.107 20.8625 142.197 21.9255 142.197 23.9215V28.7088C142.197 30.7202 143.115 31.7679 145.486 31.7679C147.857 31.7679 148.774 30.7049 148.774 28.7088V23.9368C148.774 21.9255 147.864 20.8625 145.486 20.8625ZM164.712 21.1607C163.075 21.9021 161.497 22.7689 159.993 23.7532V35.2246H155.535V17.4287H159.297L159.588 19.4018C161.038 18.4196 162.612 17.6328 164.268 17.0616L164.712 21.1607ZM176.963 35.2322V22.8049C176.963 21.8566 176.558 21.3825 175.541 21.3825C173.907 21.5766 172.328 22.0967 170.899 22.912V35.2322H166.44V17.4287H169.843L170.279 18.9582C172.502 17.8342 174.935 17.1882 177.422 17.0616C178.11 16.9968 178.802 17.1447 179.404 17.4852C180.005 17.8256 180.488 18.3424 180.787 18.9659C183.012 17.8254 185.455 17.176 187.953 17.0616C190.912 17.0616 191.975 19.1418 191.975 22.3231V35.2322H187.517V22.8049C187.517 21.8566 187.111 21.3825 186.094 21.3825C184.457 21.5628 182.876 22.0838 181.452 22.912V35.2322H176.963Z" fill="#B3B3C8"/>
<path d="M40.1008 15.448V29.9248L52.6428 22.6902V8.19812L40.1008 15.448Z" fill="#B3B3C8"/>
<path d="M26.1822 8.19812L38.7242 15.448V29.9248L26.1822 22.6826V8.19812Z" fill="#B3B3C8"/>
<path d="M12.2637 0.114746V14.5992L24.8056 21.8414V7.35697L12.2637 0.114746ZM26.1822 38.7578L38.7242 46V31.5156L26.1822 24.2733V38.7578Z" fill="#B3B3C8"/>
</g>
<defs>
<clipPath id="clip0_1_4544">
<rect width="191.189" height="46" fill="white" transform="translate(0.763672)"/>
</clipPath>
</defs>
</svg>
