<svg width="60" height="60" viewBox="0 0 60 60" fill="none" xmlns="http://www.w3.org/2000/svg">
<circle cx="30" cy="30" r="29.5" fill="#E5F1FF" stroke="#E5F1FF"/>
<path d="M35.53 31.81C34.975 31.8116 34.4216 31.7512 33.88 31.63C34.1957 32.3121 34.4371 33.0262 34.6 33.76C34.9 33.76 35.21 33.76 35.53 33.76C36.5498 33.7584 37.5627 33.5929 38.53 33.27L37.6 31.46C36.9293 31.671 36.2328 31.7887 35.53 31.81Z" fill="#293FCC"/>
<path d="M30.36 29.87L30 29.49C29.2192 28.7267 28.6171 27.8 28.2367 26.7765C27.8564 25.753 27.7072 24.658 27.8 23.57C27.9021 22.1128 28.4385 20.7195 29.34 19.57L29.26 21C29.259 21.2504 29.3519 21.492 29.5204 21.6771C29.6889 21.8623 29.9207 21.9775 30.17 22H30.26C30.5103 22.001 30.7519 21.9081 30.9371 21.7396C31.1222 21.5712 31.2375 21.3394 31.26 21.09L31.6 17C31.612 16.8552 31.5922 16.7095 31.5421 16.573C31.4921 16.4366 31.4128 16.3127 31.31 16.21C31.2005 16.1214 31.0736 16.0568 30.9374 16.0206C30.8013 15.9844 30.659 15.9774 30.52 16L26.43 16.35C26.1648 16.3726 25.9194 16.4996 25.7478 16.703C25.5762 16.9065 25.4924 17.1698 25.515 17.435C25.5375 17.7002 25.6645 17.9456 25.868 18.1172C26.0715 18.2888 26.3348 18.3726 26.6 18.35L27.89 18.24C26.6753 19.76 25.9593 21.6179 25.84 23.56C25.7367 24.891 25.9217 26.2286 26.3825 27.4815C26.8433 28.7344 27.5689 29.8732 28.51 30.82L28.82 31.19C30.0978 32.5106 30.8331 34.263 30.88 36.1C30.9333 36.9321 30.8454 37.7673 30.62 38.57L32.42 39.48C32.8072 38.3528 32.9603 37.1585 32.87 35.97C32.8086 33.6979 31.9155 31.5274 30.36 29.87Z" fill="#293FCC"/>
<path d="M44.4 29.91L43.19 30C44.2941 28.5709 44.9751 26.8608 45.1555 25.0639C45.3359 23.2671 45.0085 21.4556 44.2104 19.8356C43.4124 18.2156 42.1758 16.8521 40.6413 15.9C39.1068 14.9479 37.3359 14.4455 35.53 14.45C34.5099 14.4482 33.4965 14.6137 32.53 14.94L33.44 16.74C34.5816 16.4167 35.7827 16.3626 36.9488 16.5821C38.1148 16.8016 39.2141 17.2886 40.16 18.0048C41.106 18.7211 41.8729 19.6471 42.4004 20.7099C42.9279 21.7727 43.2016 22.9434 43.2 24.13C43.1997 25.8447 42.618 27.5086 41.55 28.85L41.65 27.31C41.6585 27.1787 41.6411 27.0469 41.5988 26.9223C41.5564 26.7978 41.4899 26.6827 41.4031 26.5838C41.3162 26.4849 41.2108 26.4041 41.0927 26.346C40.9747 26.2878 40.8463 26.2535 40.715 26.245C40.5837 26.2364 40.452 26.2539 40.3274 26.2962C40.2028 26.3386 40.0877 26.4051 39.9889 26.4919C39.89 26.5787 39.8091 26.6842 39.751 26.8022C39.6929 26.9203 39.6585 27.0487 39.65 27.18L39.37 31.26C39.3621 31.4047 39.3857 31.5494 39.4392 31.6841C39.4927 31.8188 39.5749 31.9402 39.68 32.04C39.7699 32.1312 39.8774 32.2031 39.9961 32.2512C40.1147 32.2994 40.242 32.3228 40.37 32.32H40.47L44.55 31.9C44.6816 31.8875 44.8094 31.849 44.926 31.7869C45.0426 31.7247 45.1457 31.64 45.2294 31.5377C45.3131 31.4354 45.3757 31.3175 45.4136 31.1909C45.4514 31.0643 45.4638 30.9314 45.45 30.8C45.4222 30.5454 45.2978 30.3112 45.1025 30.1456C44.9071 29.98 44.6557 29.8957 44.4 29.91Z" fill="#293FCC"/>
<path d="M16.07 32.44H16.15L20.24 32.09C20.3713 32.0788 20.4992 32.0419 20.6162 31.9813C20.7333 31.9208 20.8372 31.8377 20.9222 31.737C21.0072 31.6362 21.0715 31.5197 21.1114 31.3941C21.1513 31.2685 21.1662 31.1363 21.155 31.005C21.1438 30.8737 21.1069 30.7458 21.0463 30.6288C20.9858 30.5117 20.9027 30.4077 20.802 30.3228C20.7012 30.2378 20.5847 30.1735 20.4591 30.1336C20.3336 30.0936 20.2013 30.0788 20.07 30.09L18.68 30.21C19.9893 29.2441 21.573 28.722 23.2 28.72C23.7481 28.7233 24.2944 28.7836 24.83 28.9C24.5159 28.2182 24.2778 27.5039 24.12 26.77C23.82 26.77 23.51 26.77 23.2 26.77C21.0664 26.7668 18.9918 27.4701 17.3 28.77L17.42 27.46C17.4309 27.3286 17.4158 27.1963 17.3754 27.0708C17.335 26.9453 17.2702 26.829 17.1847 26.7286C17.0992 26.6282 16.9947 26.5457 16.8772 26.4859C16.7596 26.4261 16.6315 26.3901 16.5 26.38C16.2362 26.3578 15.9743 26.4412 15.7719 26.6117C15.5694 26.7823 15.4429 27.0262 15.42 27.29L15.07 31.37C15.0589 31.5079 15.0766 31.6466 15.1219 31.7773C15.1671 31.908 15.239 32.0279 15.333 32.1294C15.427 32.2309 15.541 32.3118 15.6679 32.367C15.7947 32.4222 15.9317 32.4504 16.07 32.45V32.44Z" fill="#293FCC"/>
<path d="M30.42 40.23L26.33 40.5C26.0648 40.5172 25.8173 40.6391 25.6419 40.8388C25.4666 41.0385 25.3778 41.2997 25.395 41.565C25.4122 41.8302 25.5341 42.0777 25.7339 42.253C25.9336 42.4284 26.1948 42.5172 26.46 42.5L28 42.39C26.8675 43.3002 25.5008 43.8719 24.0575 44.0391C22.6142 44.2064 21.153 43.9624 19.8423 43.3353C18.5316 42.7082 17.4248 41.7234 16.6495 40.4946C15.8741 39.2658 15.4618 37.8429 15.46 36.39C15.4672 35.7134 15.5647 35.0407 15.75 34.39L14 33.46C13.6902 34.4127 13.5316 35.4081 13.53 36.41C13.5417 38.221 14.0602 39.9926 15.0268 41.5241C15.9934 43.0557 17.3694 44.286 18.9992 45.0759C20.6289 45.8658 22.4472 46.1837 24.2483 45.9935C26.0493 45.8033 27.7612 45.1128 29.19 44L29.07 45.18C29.0561 45.3106 29.0682 45.4428 29.1054 45.5688C29.1426 45.6948 29.2044 45.8123 29.287 45.9144C29.3697 46.0166 29.4716 46.1015 29.5871 46.1642C29.7026 46.2269 29.8293 46.2662 29.96 46.28H30.07C30.3188 46.2812 30.5591 46.1897 30.744 46.0233C30.9289 45.8569 31.0451 45.6275 31.07 45.38L31.49 41.32C31.5049 41.1753 31.488 41.0291 31.4405 40.8916C31.3931 40.7541 31.3162 40.6287 31.2153 40.5239C31.1144 40.4192 30.9918 40.3378 30.8562 40.2853C30.7206 40.2328 30.5751 40.2105 30.43 40.22L30.42 40.23Z" fill="#293FCC"/>
</svg>
