<svg width="186" height="46" viewBox="0 0 186 46" fill="none" xmlns="http://www.w3.org/2000/svg">
<path d="M113.767 35.4443H113.705C113.736 35.4443 113.736 35.4753 113.767 35.4753H113.798L113.767 35.4443ZM113.767 35.4753C113.519 35.4753 112.869 35.5991 112.188 35.5991C110.052 35.5991 109.309 34.6085 109.309 33.3084V24.7028H113.674C113.922 24.7028 114.107 24.4861 114.107 24.1765V19.5022C114.107 19.2546 113.891 19.0379 113.674 19.0379H109.309V13.2183C109.309 13.0016 109.154 12.8778 108.907 12.8778H102.963C102.716 12.8778 102.592 13.0326 102.592 13.2183V19.1927C102.592 19.1927 99.5892 19.9356 99.4035 19.9666C99.1868 20.0285 99.063 20.2142 99.063 20.4309V24.1765C99.063 24.4861 99.2797 24.7028 99.5273 24.7028H102.561V33.7418C102.561 40.4591 107.235 41.1401 110.424 41.1401C111.879 41.1401 113.643 40.6758 113.922 40.521C114.076 40.4591 114.169 40.2734 114.169 40.0876V35.9706C114.169 35.7229 114.014 35.5372 113.767 35.4753ZM178.959 29.439C178.959 24.4551 176.947 23.8051 174.842 24.0217C173.201 24.1146 171.87 24.9504 171.87 24.9504V34.6395C171.87 34.6395 173.201 35.5681 175.213 35.6301C178.03 35.692 178.959 34.6704 178.959 29.439ZM185.645 29.0056C185.645 38.447 182.581 41.1401 177.257 41.1401C172.737 41.1401 170.322 38.8494 170.322 38.8494C170.322 38.8494 170.23 40.1186 170.075 40.2734C169.982 40.4282 169.858 40.4901 169.672 40.4901H165.617C165.339 40.4901 165.091 40.2734 165.091 40.0257L165.153 9.47267C165.153 9.22502 165.37 9.00833 165.617 9.00833H171.468C171.715 9.00833 171.932 9.22502 171.932 9.47267V19.8428C171.932 19.8428 174.192 18.3878 177.504 18.3878L177.473 18.3259C180.755 18.3259 185.645 19.5642 185.645 29.0056ZM161.655 19.0689H155.866C155.557 19.0689 155.402 19.2856 155.402 19.5951V34.5466C155.402 34.5466 153.885 35.5991 151.811 35.5991C149.768 35.5991 149.149 34.6704 149.149 32.5964V19.5332C149.149 19.2856 148.932 19.0689 148.685 19.0689H142.803C142.555 19.0689 142.339 19.2856 142.339 19.5332V33.6179C142.339 39.6543 145.713 41.1711 150.356 41.1711C154.195 41.1711 157.29 39.0661 157.29 39.0661C157.29 39.0661 157.445 40.1496 157.507 40.3043C157.569 40.4282 157.755 40.552 157.94 40.552H161.624C161.934 40.552 162.088 40.3353 162.088 40.0876L162.15 19.5332C162.181 19.2856 161.934 19.0689 161.655 19.0689ZM96.4627 19.0379H90.6121C90.3645 19.0379 90.1478 19.2856 90.1478 19.5951V39.7781C90.1478 40.3353 90.5193 40.521 90.9836 40.521H96.277C96.8342 40.521 96.958 40.2734 96.958 39.7781V19.5022C96.927 19.2546 96.7104 19.0379 96.4627 19.0379ZM93.5529 9.72031C91.4479 9.72031 89.7454 11.3919 89.7454 13.5278C89.7454 15.6328 91.417 17.3354 93.5529 17.3354C95.6269 17.3354 97.2985 15.6638 97.2985 13.5278C97.2985 11.4229 95.6269 9.72031 93.5529 9.72031ZM138.934 9.03929H133.114C132.866 9.03929 132.65 9.25598 132.65 9.50362V20.7405H123.549V9.50362C123.549 9.25598 123.332 9.03929 123.084 9.03929H117.234C116.986 9.03929 116.77 9.25598 116.77 9.50362V40.0567C116.77 40.3043 117.017 40.521 117.234 40.521H123.084C123.332 40.521 123.549 40.3043 123.549 40.0567V26.9935H132.65L132.588 40.0567C132.588 40.3043 132.804 40.521 133.052 40.521H138.903C139.15 40.521 139.367 40.3043 139.367 40.0567V9.50362C139.398 9.25598 139.181 9.03929 138.934 9.03929ZM87.0213 22.5668V38.3541C87.0213 38.447 86.9903 38.6637 86.8665 38.6946C86.8665 38.6946 83.4304 41.1401 77.7656 41.1401C70.9244 41.1401 62.7831 39.0042 62.7831 24.8575C62.7831 10.7109 69.872 7.80107 76.806 7.83203C82.8113 7.83203 85.2259 9.19407 85.5973 9.44171C85.6902 9.59649 85.7521 9.68936 85.7521 9.81318L84.6377 14.7351C84.6377 14.9827 84.3901 15.2923 84.0805 15.1994C83.0899 14.8899 81.6041 14.3017 78.1061 14.3017C74.0509 14.3017 69.7172 15.4471 69.7172 24.5789C69.7172 33.6799 73.8343 34.7633 76.806 34.7633C79.3443 34.7633 80.242 34.4537 80.242 34.4537V28.1388H76.1869C75.8773 28.1388 75.6606 27.9221 75.6606 27.6745V22.5978C75.6606 22.3501 75.8773 22.1335 76.1869 22.1335H86.495C86.8046 22.1025 87.0213 22.3192 87.0213 22.5668Z" fill="#B3B3C8"/>
<path fill-rule="evenodd" clip-rule="evenodd" d="M23.5881 0C10.5558 0 0 10.5558 0 23.5881C0 34.0201 6.7483 42.8424 16.1278 45.9689C17.3041 46.1546 17.7684 45.4736 17.7684 44.8545C17.7684 44.2973 17.7375 42.44 17.7375 40.4588C11.825 41.5423 10.2772 39.0039 9.81289 37.7038C9.53429 37.0228 8.38894 34.9178 7.39836 34.3606C6.56256 33.9272 5.38625 32.8128 7.3674 32.7819C9.22473 32.7509 10.5558 34.4844 10.9892 35.1964C13.1251 38.7563 16.4993 37.7657 17.8613 37.1466C18.078 35.6298 18.6971 34.5773 19.3781 33.9891C14.1467 33.401 8.63658 31.3579 8.63658 22.3499C8.63658 19.7806 9.56524 17.6446 11.0511 16.004C10.8035 15.4158 9.99862 13.0013 11.2988 9.75098C11.2988 9.75098 13.2799 9.13187 17.7994 12.1655C19.6877 11.6393 21.6998 11.3607 23.6809 11.3607C25.6931 11.3607 27.6742 11.6393 29.5625 12.1655C34.082 9.10092 36.0322 9.75098 36.0322 9.75098C37.3323 13.0013 36.4965 15.4158 36.2798 16.004C37.7966 17.6446 38.6944 19.7496 38.6944 22.3499C38.6944 31.3889 33.1843 33.401 27.9218 33.9891C28.7886 34.7321 29.5315 36.125 29.5315 38.3538C29.5315 41.5113 29.5006 44.0497 29.5006 44.8235C29.5006 45.4427 29.934 46.1856 31.1103 45.9379C40.7065 42.6876 47.1762 33.6796 47.1762 23.5571C47.1762 10.5558 36.6203 0 23.5881 0Z" fill="#B3B3C8"/>
</svg>
