<svg width="175" height="46" viewBox="0 0 175 46" fill="none" xmlns="http://www.w3.org/2000/svg">
<path fill-rule="evenodd" clip-rule="evenodd" d="M39.8908 22.1663C39.8908 31.28 31.0974 38.6682 20.2502 38.6682C9.40324 38.6682 0.609894 31.28 0.609894 22.1663C0.609894 13.0524 9.40324 5.6641 20.2502 5.6641C31.0974 5.6641 39.8908 13.0524 39.8908 22.1663Z" fill="#B3B3C8"/>
<path d="M1.41141 26.2532C1.41141 26.2532 -0.0104209 9.0444 19.2935 8.55266L17.9468 6.70885L7.47192 9.59754L4.47902 12.4246L1.86034 16.5426L0.3638 21.3365L0.812726 24.5324" fill="#9595AB"/>
<path d="M6.7986 10.9089C3.35265 13.8051 1.22026 17.804 1.22026 22.2278C1.22026 26.6507 3.35265 30.6501 6.7986 33.5458C10.2462 36.4415 14.9975 38.2283 20.2503 38.2283C25.5033 38.2283 30.2549 36.4415 33.7022 33.5458C37.148 30.6501 39.2808 26.6507 39.2808 22.2278C39.2808 17.804 37.148 13.8051 33.7022 10.9089C30.2549 8.01373 25.5033 6.22689 20.2503 6.22653C14.9975 6.22689 10.2462 8.01373 6.7986 10.9089ZM5.92634 34.2463C2.26409 31.1697 0 26.9179 0 22.2278C0 17.537 2.26409 13.2855 5.92634 10.2088C9.58774 7.13147 14.656 5.22405 20.2503 5.22461C25.8447 5.22405 30.9135 7.13147 34.5743 10.2088C38.2368 13.2855 40.5012 17.5373 40.5008 22.2278C40.5012 26.9179 38.2368 31.1697 34.5743 34.2463C30.9135 37.3234 25.8447 39.2306 20.2503 39.2306C14.656 39.2306 9.58774 37.3234 5.92634 34.2463Z" fill="#8A8AA0"/>
<path fill-rule="evenodd" clip-rule="evenodd" d="M28.5183 22.2577L25.5253 22.6265L21.485 22.9952L18.8661 23.0566L16.3223 22.9952L14.3768 22.5035L12.6559 20.9671L11.3092 17.8326L11.0099 17.1565L9.21419 16.6649L8.16667 15.2513L7.41849 13.2231L8.24164 11.4407L10.1868 10.8875L11.7581 11.5023L12.5064 12.8543L13.4043 12.7313L13.7035 12.4242L13.4043 11.0105L13.3293 9.22811L13.7782 6.76977L13.7607 5.36553L15.125 3.5739L17.5193 2.16026L21.7094 0.685217L26.3482 1.23836L30.3886 3.6353L32.2592 6.09365L33.4563 7.87605L33.7555 12.3012L32.8576 16.1118L31.2117 19.492L29.6404 21.2744" fill="#CDCDDC"/>
<path fill-rule="evenodd" clip-rule="evenodd" d="M25.9751 32.8902L15.2755 33.259V34.734L16.1734 39.8967L15.7244 40.327L8.24246 38.2373L7.71857 37.4997L6.97039 30.5549L5.24974 26.3755L4.87552 25.3922L10.8611 22.012L12.7317 21.3972L14.3777 23.0567L15.7992 24.1016L17.4454 24.5317L18.1935 24.7161L19.0914 27.912L19.7648 28.588L21.4858 28.0963L20.2885 30.0017L26.798 32.5215L25.9751 32.8902Z" fill="#8A8AA0"/>
<path fill-rule="evenodd" clip-rule="evenodd" d="M8.24221 11.4407L10.1874 10.8876L11.7587 11.5023L12.507 12.8544L13.4049 12.7314L13.6293 11.9939L13.1804 10.5804L13.6293 7.19998L13.2551 5.35618L14.6019 4.06551L17.5199 2.16031L16.6968 1.23841L12.5817 2.89783L10.8608 4.00411L9.88816 5.72494L8.39171 7.38436L7.94278 9.35114L8.24221 11.4407Z" fill="#8A8AA0"/>
<path fill-rule="evenodd" clip-rule="evenodd" d="M11.3101 5.66352C11.3101 5.66352 12.4324 3.38955 16.9216 2.28327C21.4109 1.17699 17.1461 1.48417 17.1461 1.48417L12.2829 3.02079L10.4122 4.55723L9.58932 5.7865L11.3101 5.66352Z" fill="#B3B3C8"/>
<path fill-rule="evenodd" clip-rule="evenodd" d="M9.06509 11.0105C9.06509 11.0105 7.49385 6.70818 13.4796 6.09364L13.2551 5.35612L9.14007 6.15523L7.94278 9.35109L8.24221 11.4407L9.06509 11.0105Z" fill="#B3B3C8"/>
<path fill-rule="evenodd" clip-rule="evenodd" d="M11.4594 16.7264L12.4391 15.9467C12.4391 15.9467 12.8813 15.9889 12.956 16.419C13.0307 16.8494 13.2551 20.7214 16.4724 22.8111C16.7659 23.0018 14.0783 22.5036 14.0783 22.5036L11.6839 19.4307" fill="#B3B3C8"/>
<path fill-rule="evenodd" clip-rule="evenodd" d="M25.2265 15.5587C25.2265 15.5587 25.401 13.6957 26.0117 13.839C26.6225 13.9823 26.6225 14.484 26.6225 14.484C26.6225 14.484 25.1392 15.2722 25.2265 15.5587Z" fill="#B3B3C8"/>
<path d="M31.4359 8.73659C31.4359 8.73659 30.2027 8.95047 30.0892 9.84287C29.9756 10.7355 31.4359 10.0272 31.6604 9.96585" fill="#B3B3C8"/>
<path d="M22.6462 12.2327C22.6462 12.2327 21 12.4171 21 13.2774C21 14.1379 22.8707 14.0765 23.3944 13.7078" fill="#B3B3C8"/>
<path fill-rule="evenodd" clip-rule="evenodd" d="M12.2068 12.7929C12.2068 12.7929 9.36347 11.3792 9.0643 12.7315C8.76505 14.0835 8.09148 15.067 9.51323 16.4805L8.54058 16.2347L7.64273 14.3295L7.34357 12.4857L9.0643 11.0105L11.0097 11.1334L12.132 11.871L12.2068 12.7929Z" fill="#B3B3C8"/>
<path fill-rule="evenodd" clip-rule="evenodd" d="M13.0762 8.92078C13.0762 8.92078 14.3482 3.51235 20.7829 2.46746C26.0805 1.60733 28.8634 2.65184 29.911 3.63514C29.911 3.63514 25.1973 -0.974179 20.708 0.439281C16.2187 1.85292 12.9267 4.43425 13.0014 6.09349C13.1288 8.91967 13.0762 8.92078 13.0762 8.92078Z" fill="#B3B3C8"/>
<path fill-rule="evenodd" clip-rule="evenodd" d="M32.2443 0.43605C32.2443 0.43605 30.0746 0.374651 29.9997 1.97268C29.9997 1.97268 29.9994 2.21845 30.1492 2.46423C30.1492 2.46423 31.8703 0.866209 32.9177 1.72671" fill="#B3B3C8"/>
<path fill-rule="evenodd" clip-rule="evenodd" d="M24.3053 10.3733C24.3053 10.3733 23.9318 7.92047 21.386 9.34647C19.7399 10.2684 19.8897 11.559 20.1889 11.8048C20.4881 12.0508 20.4068 12.5458 20.6346 12.206C20.8623 11.8662 20.7873 10.7599 21.6104 10.4528C22.4335 10.1454 23.7827 9.80207 24.3053 10.3733Z" fill="#B3B3C8"/>
<path fill-rule="evenodd" clip-rule="evenodd" d="M14.3777 23.0567L7.34461 25.638C7.34461 25.638 10.2626 35.1644 8.76609 38.1145L7.71857 37.8073L7.64378 34.1811L5.69867 27.2976L4.87552 25.3923L12.2078 21.3361L14.3777 23.0567Z" fill="#818195"/>
<path fill-rule="evenodd" clip-rule="evenodd" d="M15.1003 28.3257L16.0982 29.3257V33.0133H14.9009C14.9009 33.0133 14.7514 30.432 14.7514 30.1246C14.7514 29.8173 14.9009 28.711 14.9009 28.711" fill="#B3B3C8"/>
<path fill-rule="evenodd" clip-rule="evenodd" d="M15.1248 33.5665L11.7578 33.6893L12.7306 34.2425L15.1248 34.5498" fill="#B3B3C8"/>
<path fill-rule="evenodd" clip-rule="evenodd" d="M26.6471 32.9516L29.4154 32.8902L30.0888 38.5446L27.2455 38.8518L26.6471 32.9516Z" fill="#818195"/>
<path fill-rule="evenodd" clip-rule="evenodd" d="M27.3961 32.9518L31.5861 32.7674C31.5861 32.7674 33.3068 29.2027 33.3068 29.0184C33.3068 28.834 34.8033 23.8557 34.8033 23.8557L31.4364 20.9672L30.763 20.4755L28.9673 21.9505V27.6663L27.3961 32.9518Z" fill="#8A8AA0"/>
<path fill-rule="evenodd" clip-rule="evenodd" d="M29.2657 32.5216L26.6471 32.9518L27.0211 34.6728C27.9936 35.0415 29.6399 34.058 29.6399 34.058" fill="#B3B3C8"/>
<path fill-rule="evenodd" clip-rule="evenodd" d="M29.341 21.766L34.5784 24.9619L34.7281 23.4869L30.7626 20.4754L29.341 21.766Z" fill="#818195"/>
<path fill-rule="evenodd" clip-rule="evenodd" d="M17.7214 45.06L16.1723 39.8966L15.4019 36.0868L15.2744 33.2589L22.2855 32.9523L26.6474 32.9517L26.2508 39.4056L26.9242 44.3839L26.8494 45.3058L21.1632 45.6746L17.7214 45.06Z" fill="white"/>
<path fill-rule="evenodd" clip-rule="evenodd" d="M25.6744 32.8904C25.6744 32.8904 25.3005 39.2823 26.4228 43.8302C26.4228 43.8302 24.1782 44.9981 20.8859 45.3053L27.1709 45.1209L27.9191 44.7522L27.0212 34.6728L26.7967 32.5215" fill="#B3B3C8"/>
<path fill-rule="evenodd" clip-rule="evenodd" d="M30.2168 38.0535L33.1348 37.3774L38.6714 37.1316L39.4945 35.042L37.998 31.4158L36.2773 31.2314L33.883 31.846L31.5858 32.7673L30.3663 32.5835L29.4159 32.8902" fill="white"/>
<path fill-rule="evenodd" clip-rule="evenodd" d="M30.1637 36.8238C30.1637 36.8238 32.1089 36.0865 32.4084 36.1479L31.5855 32.7675L32.5581 32.4603C32.5581 32.4603 33.2315 35.6561 33.2315 36.0249C33.2315 36.0249 37.4213 36.2093 37.7955 36.2093C37.7955 36.2093 38.6933 34.7957 38.4689 33.3206L39.292 35.2874L39.3667 36.3936L38.1697 37.8687L36.8229 38.1145L34.5782 38.0531L33.8301 37.2542L31.2113 37.5614L30.3882 37.8073" fill="#B3B3C8"/>
<path d="M27.2238 32.4608L25.5778 29.019L23.8568 26.9908C23.8568 26.9908 24.2308 26.1303 24.7547 26.1303C25.2786 26.1303 26.4757 26.1303 26.4757 26.1303L28.1216 26.622L27.9721 28.896L27.2238 32.4608Z" fill="white"/>
<path fill-rule="evenodd" clip-rule="evenodd" d="M27.5455 31.2924C27.5455 31.2924 25.4503 27.9737 25.4503 27.482C25.4503 27.482 25.8243 26.7445 26.3482 26.9288C26.8721 27.1132 27.9944 27.6048 27.9944 27.6048V26.4371L25.4503 26.0067L23.7296 26.1911L26.6476 31.8455L27.2461 31.9071" fill="#818195"/>
<path d="M18.3951 23.1803L16.3223 22.9952L14.3769 22.5034V23.0566L15.3274 23.9176L18.3202 25.0239" fill="white"/>
<path fill-rule="evenodd" clip-rule="evenodd" d="M15.0507 23.3646C15.0507 23.3646 17.3703 24.1637 18.1185 23.9793L18.1929 24.7161L16.0983 24.348L14.8263 23.6105L15.0507 23.3646Z" fill="#818195"/>
<path fill-rule="evenodd" clip-rule="evenodd" d="M30.2088 26.3396C28.9392 26.309 27.7922 26.1851 26.788 25.9524C26.8562 25.6142 26.7285 25.2824 26.8311 25.0388C27.111 24.8732 27.5801 24.8758 28.0032 24.8369C27.6373 24.6892 27.1233 24.6308 26.7011 24.7161C26.6912 24.4814 26.563 24.3359 26.4854 24.1523C27.1992 23.943 28.8842 22.571 29.8321 23.0254C30.2837 23.2415 30.4757 24.4757 30.5107 25.0759C30.5399 25.5737 30.4557 26.0759 30.2088 26.3396Z" fill="#D33833"/>
<path d="M30.2088 26.3396C28.9392 26.309 27.7922 26.1851 26.788 25.9524C26.8562 25.6142 26.7285 25.2824 26.8311 25.0388C27.111 24.8732 27.5801 24.8758 28.0032 24.8369C27.6373 24.6892 27.1233 24.6308 26.7011 24.7161C26.6912 24.4814 26.563 24.3359 26.4854 24.1523C27.1992 23.943 28.8842 22.571 29.8321 23.0254C30.2837 23.2415 30.4757 24.4757 30.5107 25.0759C30.5399 25.5737 30.4557 26.0759 30.2088 26.3396Z" stroke="#B3B3C8" stroke-width="2.5"/>
<path fill-rule="evenodd" clip-rule="evenodd" d="M24.1381 24.6348C24.1348 24.7137 24.1307 24.7932 24.1269 24.8728C23.7305 25.0867 23.0906 25.0841 22.6555 25.2639C23.2968 25.2869 23.8017 25.4138 24.2385 25.5926C24.2288 25.7914 24.2196 25.99 24.2102 26.1887C23.4836 26.5973 22.8199 27.2058 21.9644 27.5889C21.5599 27.7701 20.1404 28.2364 19.71 28.154C19.4665 28.1076 19.4446 27.8594 19.3473 27.6254C19.1399 27.1245 18.6625 26.327 18.6208 25.5729C18.5678 24.6204 18.4508 23.024 19.7004 23.2202C20.7085 23.3782 21.8811 23.7597 22.6616 24.11C23.1386 24.3243 23.4145 24.5891 24.1381 24.6348Z" fill="#818195"/>
<path d="M24.1381 24.6348C24.1348 24.7137 24.1307 24.7932 24.1269 24.8728C23.7305 25.0867 23.0906 25.0841 22.6555 25.2639C23.2968 25.2869 23.8017 25.4138 24.2385 25.5926C24.2288 25.7914 24.2196 25.99 24.2102 26.1887C23.4836 26.5973 22.8199 27.2058 21.9644 27.5889C21.5599 27.7701 20.1404 28.2364 19.71 28.154C19.4665 28.1076 19.4446 27.8594 19.3473 27.6254C19.1399 27.1245 18.6625 26.327 18.6208 25.5729C18.5678 24.6204 18.4508 23.024 19.7004 23.2202C20.7085 23.3782 21.8811 23.7597 22.6616 24.11C23.1386 24.3243 23.4145 24.5891 24.1381 24.6348Z" stroke="#B3B3C8" stroke-width="2.5"/>
<path fill-rule="evenodd" clip-rule="evenodd" d="M24.8597 25.7712C24.7488 25.2524 24.6207 25.1043 24.6703 24.6517C26.3549 23.729 26.6711 26.2364 24.8597 25.7712Z" fill="#D33833"/>
<path d="M24.8597 25.7712C24.7488 25.2524 24.6207 25.1043 24.6703 24.6517C26.3549 23.729 26.6711 26.2364 24.8597 25.7712Z" stroke="#B3B3C8" stroke-width="2.5"/>
<path fill-rule="evenodd" clip-rule="evenodd" d="M27.2988 26.1918C27.2988 26.1918 26.7749 25.577 27.149 25.3927C27.5232 25.2083 27.8974 25.3929 28.1219 25.0855C28.3463 24.7781 28.1219 24.5937 28.1966 24.225C28.2714 23.8562 28.6458 23.7946 29.0197 23.7332C29.3937 23.6718 30.4415 23.5489 30.591 23.8562L30.142 22.7499L29.2442 22.5042L26.4009 23.8562L26.2512 24.5323V25.8844" fill="#818195"/>
<path fill-rule="evenodd" clip-rule="evenodd" d="M19.4424 28.22C19.3525 27.2608 19.2574 26.3029 19.1516 25.3447C18.9932 23.9139 19.57 24.1636 21.0798 24.1636C21.3105 24.1636 22.4998 24.3895 22.5848 24.5323C22.9929 25.2169 21.9025 25.0648 23.0549 25.5811C24.0277 26.0168 25.7462 25.3165 25.3531 24.348C25.1332 24.1326 24.207 24.2809 23.8751 24.1394C23.2906 23.8905 22.7061 23.6416 22.1215 23.3927C21.3778 23.0757 19.659 22.6137 18.8661 23.0566C16.857 24.1789 18.9929 26.9831 19.7096 28.1539" fill="#818195"/>
<path fill-rule="evenodd" clip-rule="evenodd" d="M21.4112 6.44448C19.372 6.05433 18.3586 7.1455 17.7405 8.27722C17.1885 8.16733 17.4082 7.55076 17.5476 7.23658C17.9126 6.41203 19.3836 5.31441 20.5856 5.46321C21.1028 5.52719 21.8027 5.91568 21.4112 6.44448Z" fill="#8A8AA0"/>
<path fill-rule="evenodd" clip-rule="evenodd" d="M31.348 8.35215C31.3801 8.35326 31.4127 8.35418 31.4448 8.35528C31.9056 9.14167 32.3045 9.9747 32.8858 10.6689C32.4964 11.414 29.9368 12.0733 29.9763 10.7355C30.5299 10.5367 31.4854 10.6949 31.9761 10.441C31.6924 9.80138 31.2829 9.2569 31.348 8.35215Z" fill="#8A8AA0"/>
<path fill-rule="evenodd" clip-rule="evenodd" d="M22.4547 8.37257C22.892 9.03099 23.0343 9.72278 23.6558 10.2204C23.9357 10.4444 24.48 10.7175 24.2102 11.3405C24.1472 11.4875 23.6863 11.8151 23.4204 11.8795C22.4487 12.1151 20.1845 11.9282 20.9512 10.9331C21.7548 10.9638 22.835 11.3617 23.4356 10.8825C22.9744 10.2768 22.152 9.07856 22.4547 8.37257Z" fill="#8A8AA0"/>
<path fill-rule="evenodd" clip-rule="evenodd" d="M30.9824 15.0645C29.5194 15.8365 27.888 16.676 25.4907 16.4813C24.9785 16.1155 24.7832 15.3014 25.2808 14.7638C25.5399 15.1296 25.3771 15.8024 26.099 15.9036C27.4592 16.0948 29.0424 15.2201 30.0208 14.9144C30.6275 14.0742 29.9685 13.7652 29.4219 13.2244C28.303 12.1164 26.802 10.7432 26.8566 9.08449C27.3089 8.81511 27.3479 9.49566 27.4128 9.61956C27.9971 10.7428 29.4675 12.1793 30.5407 13.1407C30.8042 13.3774 31.2381 13.6046 31.2863 13.7611C31.4255 14.2163 30.9243 14.7617 30.9824 15.0645Z" fill="#8A8AA0"/>
<path fill-rule="evenodd" clip-rule="evenodd" d="M11.6947 14.2516C11.2361 14.0366 11.127 13.0897 10.5886 13.0627C9.8192 13.0244 9.95949 14.2913 9.96257 15.0321C9.43297 14.6372 9.33984 13.4212 9.7289 12.7967C9.2855 12.6178 9.0875 12.994 8.84155 13.1265C9.15764 11.2403 12.2006 12.2516 11.6947 14.2516Z" fill="#818195"/>
<path fill-rule="evenodd" clip-rule="evenodd" d="M31.9136 15.8499C31.2326 16.9147 30.2692 18.0873 28.2708 18.1215C28.2302 17.7776 28.199 17.2543 28.2731 17.0473C29.8008 16.9267 30.744 16.288 31.9136 15.8499Z" fill="#8A8AA0"/>
<path fill-rule="evenodd" clip-rule="evenodd" d="M22.3398 16.5402C23.6144 17.0908 25.9569 17.15 27.6893 17.1083C27.7823 17.4201 27.78 17.8053 27.7836 18.1855C25.5567 18.2767 22.9238 17.8241 22.3398 16.5402Z" fill="#8A8AA0"/>
<path fill-rule="evenodd" clip-rule="evenodd" d="M22.0976 17.5669C22.979 19.3847 26.0084 19.1755 28.563 19.1253C28.4505 19.3613 28.2068 19.6401 27.9037 19.741C27.0851 20.0146 24.8272 20.2222 23.6908 19.7264C22.97 19.4117 22.507 18.7005 22.1121 18.2836C21.9214 18.0823 20.9718 17.568 22.0976 17.5669Z" fill="#8A8AA0"/>
<path fill-rule="evenodd" clip-rule="evenodd" d="M30.8766 27.594C29.8423 29.0492 28.8527 30.5437 27.6255 31.8273C28.14 30.5847 28.3602 28.505 28.4379 26.9196C29.5142 26.5058 30.4358 27.0127 30.8766 27.594Z" fill="#B3B3C8"/>
<path fill-rule="evenodd" clip-rule="evenodd" d="M36.4418 32.8239C35.2838 33.0143 34.4701 33.9388 33.3404 33.8795C33.9612 33.1605 35.0492 32.8574 36.4418 32.8239Z" fill="#8A8AA0"/>
<path fill-rule="evenodd" clip-rule="evenodd" d="M36.9529 34.3126C36.0091 34.3945 34.9005 34.5201 33.9431 34.4554C34.3963 33.8868 36.1424 34.083 36.9529 34.3126Z" fill="#8A8AA0"/>
<path fill-rule="evenodd" clip-rule="evenodd" d="M37.2796 35.596C36.2188 35.6149 34.9003 35.5975 33.892 35.5281C34.4884 35.0018 36.5916 35.3328 37.2796 35.596Z" fill="#8A8AA0"/>
<path fill-rule="evenodd" clip-rule="evenodd" d="M28.8801 39.1084C29.0323 40.2027 29.5605 41.3115 29.4943 42.51C28.9077 42.6725 28.5708 42.8146 27.785 42.8137C27.7295 41.7952 27.5637 40.2381 27.6133 39.2671C27.9998 39.2882 28.5697 39.0403 28.8801 39.1084Z" fill="#B3B3C8"/>
<path fill-rule="evenodd" clip-rule="evenodd" d="M27.17 22.9804C26.6374 23.266 26.1838 23.6226 25.6722 23.9276C24.5378 23.9737 23.9187 23.863 23.0853 23.328C23.099 23.285 23.1827 23.3042 23.1858 23.2514C24.4002 23.696 25.9438 23.0704 27.17 22.9804Z" fill="#B3B3C8"/>
<path fill-rule="evenodd" clip-rule="evenodd" d="M20.7955 29.78C21.1292 28.5924 22.4365 27.9773 23.6237 27.3233C24.849 28.6008 25.5942 30.2436 26.4149 31.8289C24.4759 31.3487 22.4948 30.5697 20.7955 29.78Z" fill="#B3B3C8"/>
<path fill-rule="evenodd" clip-rule="evenodd" d="M27.6127 39.2671C27.5631 40.2381 27.729 41.7952 27.7844 42.8137C28.5703 42.8146 28.9072 42.6725 29.4937 42.51C29.5599 41.3115 29.0318 40.2027 28.8796 39.1084C28.5691 39.0403 27.9992 39.2882 27.6127 39.2671ZM15.3763 33.7452C15.8945 37.6583 16.645 40.9477 18.0216 44.4129C21.0769 45.1749 24.76 45.2413 27.4605 44.5537C26.9647 42.5979 27.1813 40.2169 26.8915 38.1299C26.6731 36.5612 26.7844 34.9829 26.485 33.3825C23.2128 32.8233 18.5876 33.2517 15.3763 33.7452ZM27.2587 33.407C27.2311 35.0876 27.3503 36.7454 27.5065 38.4281C28.2922 38.3312 28.8253 38.2665 29.5552 38.1351C29.3182 36.5151 29.3474 34.6923 28.8645 33.2593C28.3065 33.2637 27.8152 33.254 27.2587 33.407ZM31.2441 33.1361C30.8712 33.0659 30.4371 33.1334 30.0809 33.1391C30.2484 34.509 30.6546 36.0208 30.7976 37.4588C31.3581 37.4731 31.6575 37.256 32.1186 37.1829C32.1433 35.9206 31.9844 34.1816 31.2441 33.1361ZM37.2785 37.665C38.4469 37.432 39.1815 36.2566 38.8547 35.0494C38.6354 34.2382 38.2449 32.7105 37.8269 32.1915C37.518 31.8077 36.6806 31.3051 36.0119 31.6568C34.9241 32.229 33.0079 32.3951 32.2147 33.0876C32.6124 34.1755 32.7359 35.6697 32.8999 37.0481C34.2588 37.1177 35.9309 36.7409 37.061 37.1407C36.272 37.3506 35.2483 37.3523 34.5666 37.6583C35.1237 37.8793 36.428 37.8346 37.2785 37.665ZM26.4139 31.8287C25.5932 30.2434 24.848 28.6006 23.6227 27.3232C22.4355 27.9772 21.1282 28.5922 20.7945 29.7798C22.4938 30.5696 24.4749 31.3486 26.4139 31.8287ZM28.4367 26.9196C28.3591 28.505 28.1389 30.5847 27.6244 31.8272C28.8515 30.5437 29.8412 29.0491 30.8755 27.594C30.4347 27.0127 29.513 26.5058 28.4367 26.9196ZM26.1436 26.2503C25.6787 26.2091 25.2841 26.6893 24.6797 26.4816C24.5412 26.6074 24.4152 26.7437 24.274 26.8664C25.6092 28.1881 26.2159 30.0632 27.2471 31.6164C27.8004 30.1245 27.7366 28.4899 27.8585 26.8615C27.0982 26.9011 26.6765 26.2967 26.1436 26.2503ZM24.6691 24.6517C24.6195 25.1043 24.7477 25.2524 24.8586 25.7712C26.67 26.2364 26.3537 23.729 24.6691 24.6517ZM22.6604 24.11C21.8799 23.7596 20.7073 23.3782 19.6992 23.2201C18.4495 23.0238 18.5666 24.6203 18.6196 25.5728C18.6613 26.327 19.1387 27.1244 19.3461 27.6254C19.4434 27.8593 19.4653 28.1075 19.7088 28.154C20.1391 28.2364 21.5587 27.7701 21.9632 27.5889C22.8186 27.2057 23.4824 26.5973 24.209 26.1887C24.2184 25.9899 24.2276 25.7913 24.2372 25.5926C23.8004 25.4137 23.2956 25.2869 22.6543 25.2638C23.0893 25.084 23.7293 25.0866 24.1257 24.8727C24.1295 24.7931 24.1335 24.7136 24.1369 24.6347C23.4132 24.589 23.1374 24.3242 22.6604 24.11ZM15.2052 22.9976C14.5574 23.5378 17.0221 24.2742 17.8068 24.3139C17.8024 23.972 18.044 23.6498 17.9953 23.4045C17.0633 23.2701 15.8384 23.3588 15.2052 22.9976ZM23.1852 23.2513C23.182 23.304 23.0983 23.2849 23.0846 23.3278C23.9181 23.8629 24.5371 23.9735 25.6716 23.9274C26.1831 23.6225 26.6367 23.2659 27.1694 22.9803C25.9432 23.0702 24.3995 23.6958 23.1852 23.2513ZM30.5099 25.0758C30.4748 24.4756 30.2829 23.2413 29.8313 23.0253C28.8834 22.5708 27.1984 23.9429 26.4846 24.1522C26.5622 24.3358 26.6904 24.4813 26.7003 24.716C27.1225 24.6307 27.6365 24.6891 28.0024 24.8368C27.5793 24.8757 27.1101 24.8731 26.8302 25.0387C26.7277 25.2823 26.8554 25.6141 26.7871 25.9523C27.7914 26.185 28.9384 26.3089 30.208 26.3395C30.4549 26.0758 30.539 25.5736 30.5099 25.0758ZM14.1146 23.5201C13.9112 23.401 12.535 21.9302 12.3465 21.9912C9.85636 22.7979 7.52798 24.1928 5.44732 25.512C7.43111 29.0086 8.2319 33.2925 8.3734 37.4215C10.6459 38.2945 12.642 39.5531 15.7257 39.6846C15.3689 37.6107 15.0431 35.7604 14.8406 33.8078C14.0657 33.5395 12.9541 33.82 12.229 33.7246C12.2229 33.0069 13.3364 33.4103 13.4292 32.9276C13.4991 32.5625 12.8165 32.5349 13.0387 31.96C13.6056 32.1292 13.9033 32.5031 14.5078 32.6435C15.0602 31.6508 14.5001 29.8943 14.5797 29.0646C14.5948 28.9089 14.6744 28.2016 15.0992 28.3257C15.4752 28.4355 15.0778 30.2067 15.119 30.992C15.1565 31.7155 15.0126 32.4155 15.3693 32.8697C18.3491 32.5365 21.3772 32.3212 24.6013 32.2485C23.892 31.9985 23.0494 31.7619 22.1255 31.3342C21.6247 31.1023 20.046 30.6197 19.9015 30.229C19.6709 29.6063 20.5065 29.2747 20.6494 28.7409C19.1453 29.4147 18.8518 28.095 18.496 27.16C18.1736 26.3131 17.9901 25.6805 17.911 25.1921C16.6152 24.6847 15.2299 24.1708 14.1146 23.5201ZM29.1938 22.1692C31.2685 21.3428 31.6425 25.2577 30.8293 26.5189C30.955 26.895 31.3873 27.039 31.5637 27.3772C30.4059 29.0808 29.12 30.6711 27.9386 32.3547C28.8174 31.9054 30.0726 32.2744 31.1067 31.938C31.4847 31.8152 31.7583 31.1044 32.0445 30.5358C32.8317 28.9714 33.6582 26.999 34.0258 25.5061C34.1089 25.1659 34.3352 24.4247 34.2844 24.122C34.194 23.5799 33.2986 23.1779 32.8432 22.8427C32.0041 22.2236 31.4757 21.6787 30.6005 21.0998C30.2457 21.5301 29.4841 21.8192 29.1938 22.1692ZM9.36973 7.05589C8.38112 7.94939 8.58806 9.62357 8.70774 10.8147C10.4947 9.89129 12.8664 10.8877 12.8441 12.4582C13.6972 12.4396 13.1628 11.583 13.0085 11.0311C12.5041 9.22863 13.8581 7.27032 13.0699 5.62196C11.5394 5.71729 10.282 6.23079 9.36973 7.05589ZM16.4434 1.87001C14.2053 2.39106 11.337 3.7269 10.4173 5.3784C11.1295 5.2934 11.6238 4.99839 12.3263 4.96188C12.5918 4.94769 12.9397 5.05333 13.2448 4.99102C13.8529 4.86711 14.366 3.74718 14.8248 3.33048C15.272 2.92355 15.8094 2.74969 16.1773 2.37872C16.4136 2.28505 16.763 2.2915 16.7764 2C16.674 1.91002 16.5661 1.84143 16.4434 1.87001ZM28.0937 2.36009C25.7708 1.28349 21.8388 0.473694 19.3678 1.48557C17.3739 2.30219 14.6788 3.65334 13.7599 5.36549C14.6183 7.01772 13.5056 8.53167 13.4346 10.2092C13.3969 11.1017 13.9462 11.8809 13.9883 12.8526C13.6946 13.2507 12.7972 13.2997 12.1759 13.2725C11.9668 12.4129 11.6008 11.4467 10.5232 11.3497C8.9984 11.2127 7.88353 12.2493 7.81426 13.3326C7.73229 14.6064 9.0054 16.7178 10.8099 16.5712C11.507 16.5146 11.6782 15.9406 12.4377 15.9465C12.8493 16.6212 11.8027 16.833 11.695 17.3155C11.667 17.4402 11.7818 17.9273 11.8486 18.1558C12.1764 19.2681 12.907 20.7078 13.6262 21.5546C14.539 22.6288 16.3322 22.7907 18.2614 22.896C18.606 22.2863 19.8754 22.3364 20.7025 22.4959C19.7113 22.1734 18.7897 21.3916 18.026 20.6997C17.1488 19.9057 16.2601 19.0541 16.2152 18.0164C17.873 19.9055 19.2426 21.5554 22.2571 22.3864C24.538 23.0147 27.2019 22.0984 28.9546 21.0874C29.6818 20.6672 30.1159 20.0005 30.6329 19.3902C32.5671 17.1048 33.4696 13.8427 33.2712 10.681C33.1895 9.37706 33.1931 8.07754 32.6604 7.20026C32.1038 6.28297 30.221 5.46229 29.1189 6.292C28.9146 5.39997 30.0353 4.8483 31.3518 5.16931C30.4131 4.17421 29.4279 2.9785 28.0937 2.36009ZM32.4216 31.7811C34.2368 31.0399 37.6285 29.7859 38.7665 31.7839C39.1865 32.5203 39.6792 33.7652 39.8967 34.5255C40.204 35.598 39.5636 37.8522 38.2215 38.2121C37.0361 38.53 35.653 38.5106 34.2252 38.275C34.057 38.1601 33.8698 37.9599 33.739 37.7512C32.7195 37.7187 31.7648 37.7961 30.9595 38.1404C31.0358 38.7597 30.5258 38.8591 30.0477 38.9867C29.6933 40.1411 30.7568 41.6486 30.5022 42.7012C30.3206 43.4511 29.1974 43.5671 28.3718 43.7074C28.3449 44.1241 28.408 44.472 28.4643 44.8245C28.2756 45.3959 27.4289 45.7212 26.6266 45.8008C23.9872 46.0615 19.9796 46.1787 17.4407 45.4287C16.7323 44.0013 16.1742 42.2652 15.5841 40.6352C13.108 40.8524 11.1054 39.7576 9.21743 39.0403C8.56377 38.7914 7.65952 38.6543 7.41533 38.2269C7.17858 37.8131 7.27546 37.0201 7.21672 36.271C7.06723 34.3576 6.93922 32.5122 6.32412 30.5531C6.04794 29.674 5.56656 28.8983 5.23074 28.0513C4.92035 27.2662 4.37805 26.296 4.23661 25.5131C4.0269 24.3528 5.357 24.2883 6.20751 23.7855C7.52228 23.0079 8.5543 22.5779 9.97822 21.8762C10.4 21.6684 11.6718 21.1424 11.8165 20.9001C12.104 20.4198 11.3228 19.7425 11.114 19.366C10.7836 18.7707 10.6113 18.2649 10.5639 17.6775C9.36946 17.5224 8.46397 16.9385 7.91702 16.2801C7.01226 15.1904 6.38479 13.1744 7.16761 11.6409C7.229 11.5201 7.53517 11.2826 7.58033 11.0971C7.66942 10.7319 7.41268 10.2462 7.39672 9.85773C7.31447 7.86458 7.80726 6.14726 9.44075 5.54618C10.1039 3.37621 12.4773 2.65473 14.7134 1.57629C15.5493 1.17324 16.4707 0.915653 17.4223 0.628021C20.836 -0.403957 26.0736 -0.209618 28.9067 1.55048C30.1081 2.29685 32.0283 3.87275 32.7152 5.01369C34.5293 8.02591 34.4005 13.06 33.1316 16.7242C32.961 17.2162 32.7136 17.9393 32.3682 18.5302C32.1273 18.9429 31.3788 19.7685 31.4697 20.1329C31.5633 20.5096 33.1765 21.5157 33.5224 21.7897C34.1453 22.2833 35.3286 22.9384 35.4245 23.5612C35.5275 24.2241 35.0689 25.1309 34.8366 25.7705C34.06 27.905 33.3022 29.8781 32.4216 31.7811Z" fill="#9595AB"/>
<path fill-rule="evenodd" clip-rule="evenodd" d="M20.3114 17.0052C20.4098 16.8975 20.9513 16.734 21.7088 17.0336C21.7088 17.0336 20.811 17.1566 20.8857 18.3862L20.5115 18.3246C20.5115 18.3246 20.1249 17.2097 20.3114 17.0052Z" fill="#B3B3C8"/>
<path fill-rule="evenodd" clip-rule="evenodd" d="M26.8722 27.5741C26.8722 27.7607 26.6879 27.912 26.4605 27.912C26.2334 27.912 26.0491 27.7607 26.0491 27.5741C26.0491 27.3875 26.2334 27.2359 26.4605 27.2359C26.6879 27.2359 26.8722 27.3875 26.8722 27.5741Z" fill="#818195"/>
<path fill-rule="evenodd" clip-rule="evenodd" d="M27.2835 29.1414C27.2835 29.328 27.0992 29.4794 26.8719 29.4794C26.6447 29.4794 26.4604 29.328 26.4604 29.1414C26.4604 28.9548 26.6447 28.8033 26.8719 28.8033C27.0992 28.8033 27.2835 28.9548 27.2835 29.1414Z" fill="#818195"/>
<path d="M69.0801 14.3564C68.6895 14.4053 68.3574 14.4541 68.084 14.5029C67.8105 14.5518 67.5029 14.6201 67.1611 14.708C66.7607 14.8154 66.502 15.0059 66.3848 15.2793C66.2773 15.5527 66.2236 15.8652 66.2236 16.2168V27.6719C66.2236 28.7266 66.0088 29.6934 65.5791 30.5723C65.1592 31.4512 64.5781 32.1885 63.8359 32.7842C63.084 33.3701 62.2441 33.8096 61.3164 34.1025C60.3887 34.4053 59.3975 34.5566 58.3428 34.5566C56.5166 34.5566 55.042 34.1172 53.9189 33.2383C52.8057 32.3594 52.249 31.1533 52.249 29.6201C52.249 28.7119 52.5029 27.96 53.0107 27.3643C53.5283 26.7686 54.2363 26.4707 55.1348 26.4707C55.9844 26.4707 56.6582 26.7197 57.1562 27.2178C57.6641 27.7158 57.918 28.3311 57.918 29.0635C57.918 29.6885 57.6982 30.2695 57.2588 30.8066C56.8291 31.334 56.3359 31.8223 55.7793 32.2715V32.4619C55.8672 32.6572 56.0576 32.8232 56.3506 32.96C56.6436 33.0967 56.9414 33.165 57.2441 33.165C58.416 33.165 59.334 32.7451 59.998 31.9053C60.6719 31.0654 61.0088 29.7959 61.0088 28.0967V16.3633C61.0088 16.0117 60.9551 15.7188 60.8477 15.4844C60.7402 15.25 60.4814 15.0449 60.0713 14.8691C59.7783 14.7422 59.4219 14.6348 59.002 14.5469C58.5918 14.459 58.25 14.3955 57.9766 14.3564V13.2139H69.0801V14.3564ZM86.4678 30.499C86.126 31.0557 85.7109 31.583 85.2227 32.0811C84.7441 32.5693 84.1973 32.9893 83.582 33.3408C82.9277 33.7119 82.2637 33.9902 81.5898 34.1758C80.9258 34.3711 80.1592 34.4688 79.29 34.4688C77.8447 34.4688 76.5947 34.2637 75.54 33.8535C74.4951 33.4434 73.6309 32.8916 72.9473 32.1982C72.2637 31.5049 71.751 30.6895 71.4092 29.752C71.0771 28.8047 70.9111 27.7793 70.9111 26.6758C70.9111 25.6797 71.0918 24.7275 71.4531 23.8193C71.8242 22.9014 72.3467 22.0859 73.0205 21.373C73.6846 20.6797 74.5195 20.1182 75.5254 19.6885C76.541 19.2588 77.6738 19.0439 78.9238 19.0439C80.291 19.0439 81.4141 19.21 82.293 19.542C83.1719 19.874 83.8994 20.333 84.4756 20.9189C85.0322 21.4756 85.4375 22.1348 85.6914 22.8965C85.9453 23.6484 86.0723 24.4395 86.0723 25.2695V26.2217H76.1699C76.1699 28.2236 76.5557 29.7471 77.3271 30.792C78.0986 31.8369 79.3242 32.3594 81.0039 32.3594C81.9219 32.3594 82.7471 32.1104 83.4795 31.6123C84.2119 31.1045 84.8369 30.4648 85.3545 29.6934L86.4678 30.499ZM80.8721 24.9326C80.8721 24.3467 80.8428 23.7461 80.7842 23.1309C80.7256 22.5156 80.623 22.0127 80.4766 21.6221C80.3105 21.1631 80.0811 20.8164 79.7881 20.582C79.5049 20.3477 79.1436 20.2305 78.7041 20.2305C77.9521 20.2305 77.3516 20.6113 76.9023 21.373C76.4531 22.1348 76.209 23.3408 76.1699 24.9912L80.8721 24.9326ZM107.225 34H98.4062V32.9307C98.5918 32.9111 98.8164 32.8867 99.0801 32.8574C99.3438 32.8281 99.5439 32.7793 99.6807 32.7109C99.8857 32.6035 100.032 32.4473 100.12 32.2422C100.208 32.0371 100.252 31.7344 100.252 31.334V24.4785C100.252 23.4824 100.066 22.7354 99.6953 22.2373C99.334 21.7295 98.7969 21.4756 98.084 21.4756C97.6934 21.4756 97.3271 21.5342 96.9854 21.6514C96.6533 21.7686 96.3262 21.9395 96.0039 22.1641C95.7207 22.3594 95.4912 22.5596 95.3154 22.7646C95.1494 22.9697 95.0078 23.1504 94.8906 23.3066V31.1729C94.8906 31.5146 94.9395 31.8027 95.0371 32.0371C95.1348 32.2617 95.2959 32.4326 95.5205 32.5498C95.6768 32.6377 95.8721 32.7158 96.1064 32.7842C96.3408 32.8525 96.5703 32.9014 96.7949 32.9307V34H87.8887V32.9307C88.1328 32.9111 88.377 32.8867 88.6211 32.8574C88.875 32.8184 89.0898 32.7695 89.2656 32.7109C89.5781 32.6035 89.793 32.4375 89.9102 32.2129C90.0273 31.9883 90.0859 31.6953 90.0859 31.334V22.8086C90.0859 22.5059 90.0078 22.208 89.8516 21.915C89.6953 21.6221 89.4902 21.3828 89.2363 21.1973C89.0605 21.0801 88.8359 20.9824 88.5625 20.9043C88.2988 20.8262 88.0059 20.7725 87.6836 20.7432V19.6738L94.6709 19.293L94.8906 19.5127V21.6367H94.9492C95.2227 21.3926 95.5547 21.0996 95.9453 20.7578C96.3359 20.416 96.6973 20.1377 97.0293 19.9229C97.3906 19.6885 97.8643 19.4883 98.4502 19.3223C99.0361 19.1562 99.6611 19.0732 100.325 19.0732C101.917 19.0732 103.108 19.5273 103.899 20.4355C104.7 21.334 105.101 22.5303 105.101 24.0244V31.2021C105.101 31.5635 105.154 31.8516 105.262 32.0664C105.369 32.2812 105.569 32.4521 105.862 32.5791C106.019 32.6475 106.209 32.7158 106.434 32.7842C106.668 32.8525 106.932 32.9014 107.225 32.9307V34ZM127.396 34H120.496C119.646 32.5059 118.87 31.2412 118.167 30.2061C117.464 29.1611 116.8 28.1943 116.175 27.3057L115.296 28.0527V31.2461C115.296 31.5977 115.345 31.8857 115.442 32.1104C115.55 32.335 115.75 32.501 116.043 32.6084C116.219 32.6865 116.424 32.7549 116.658 32.8135C116.893 32.8721 117.127 32.9111 117.361 32.9307V34H108.294V32.9307C108.538 32.9111 108.782 32.8867 109.026 32.8574C109.271 32.8184 109.485 32.7695 109.671 32.7109C109.983 32.6035 110.193 32.4375 110.301 32.2129C110.418 31.9883 110.477 31.6953 110.477 31.334V15.001C110.477 14.6787 110.403 14.3467 110.257 14.0049C110.12 13.6533 109.915 13.3896 109.642 13.2139C109.456 13.0967 109.178 12.999 108.807 12.9209C108.436 12.8428 108.099 12.7939 107.796 12.7744V11.7051L115.076 11.3242L115.296 11.5586V26.6758C116.019 26.0312 116.829 25.2842 117.728 24.4346C118.636 23.585 119.363 22.8818 119.91 22.3252C120.232 21.9932 120.408 21.7441 120.438 21.5781C120.477 21.4023 120.496 21.2949 120.496 21.2559C120.496 21.0801 120.34 20.9336 120.027 20.8164C119.725 20.6992 119.266 20.5967 118.65 20.5088V19.4688H126.092V20.4795C125.115 20.7529 124.368 21.0117 123.851 21.2559C123.343 21.4902 122.786 21.8076 122.181 22.208C121.78 22.4717 121.39 22.75 121.009 23.043C120.638 23.3262 120.208 23.6826 119.72 24.1123C120.677 25.499 121.561 26.7832 122.371 27.9648C123.182 29.1465 124.031 30.3965 124.92 31.7148C125.223 32.1738 125.599 32.4814 126.048 32.6377C126.497 32.7939 126.946 32.8916 127.396 32.9307V34ZM136.814 34H127.557V32.9307C127.811 32.9111 128.06 32.8867 128.304 32.8574C128.548 32.8281 128.758 32.7793 128.934 32.7109C129.246 32.5938 129.466 32.4277 129.593 32.2129C129.72 31.9883 129.783 31.6953 129.783 31.334V22.8086C129.783 22.4668 129.705 22.1689 129.549 21.915C129.393 21.6514 129.197 21.4414 128.963 21.2852C128.787 21.168 128.519 21.0557 128.157 20.9482C127.806 20.8408 127.483 20.7725 127.19 20.7432V19.6738L134.368 19.293L134.588 19.5127V31.1436C134.588 31.4854 134.661 31.7783 134.808 32.0225C134.954 32.2568 135.164 32.4326 135.438 32.5498C135.633 32.6377 135.848 32.7158 136.082 32.7842C136.316 32.8525 136.561 32.9014 136.814 32.9307V34ZM134.676 14.0195C134.676 14.7617 134.388 15.3965 133.812 15.9238C133.245 16.4414 132.571 16.7002 131.79 16.7002C130.999 16.7002 130.315 16.4414 129.739 15.9238C129.173 15.3965 128.89 14.7617 128.89 14.0195C128.89 13.2773 129.173 12.6426 129.739 12.1152C130.315 11.5879 130.999 11.3242 131.79 11.3242C132.581 11.3242 133.26 11.5879 133.826 12.1152C134.393 12.6426 134.676 13.2773 134.676 14.0195ZM157.498 34H148.68V32.9307C148.865 32.9111 149.09 32.8867 149.354 32.8574C149.617 32.8281 149.817 32.7793 149.954 32.7109C150.159 32.6035 150.306 32.4473 150.394 32.2422C150.481 32.0371 150.525 31.7344 150.525 31.334V24.4785C150.525 23.4824 150.34 22.7354 149.969 22.2373C149.607 21.7295 149.07 21.4756 148.357 21.4756C147.967 21.4756 147.601 21.5342 147.259 21.6514C146.927 21.7686 146.6 21.9395 146.277 22.1641C145.994 22.3594 145.765 22.5596 145.589 22.7646C145.423 22.9697 145.281 23.1504 145.164 23.3066V31.1729C145.164 31.5146 145.213 31.8027 145.311 32.0371C145.408 32.2617 145.569 32.4326 145.794 32.5498C145.95 32.6377 146.146 32.7158 146.38 32.7842C146.614 32.8525 146.844 32.9014 147.068 32.9307V34H138.162V32.9307C138.406 32.9111 138.65 32.8867 138.895 32.8574C139.148 32.8184 139.363 32.7695 139.539 32.7109C139.852 32.6035 140.066 32.4375 140.184 32.2129C140.301 31.9883 140.359 31.6953 140.359 31.334V22.8086C140.359 22.5059 140.281 22.208 140.125 21.915C139.969 21.6221 139.764 21.3828 139.51 21.1973C139.334 21.0801 139.109 20.9824 138.836 20.9043C138.572 20.8262 138.279 20.7725 137.957 20.7432V19.6738L144.944 19.293L145.164 19.5127V21.6367H145.223C145.496 21.3926 145.828 21.0996 146.219 20.7578C146.609 20.416 146.971 20.1377 147.303 19.9229C147.664 19.6885 148.138 19.4883 148.724 19.3223C149.31 19.1562 149.935 19.0732 150.599 19.0732C152.19 19.0732 153.382 19.5273 154.173 20.4355C154.974 21.334 155.374 22.5303 155.374 24.0244V31.2021C155.374 31.5635 155.428 31.8516 155.535 32.0664C155.643 32.2812 155.843 32.4521 156.136 32.5791C156.292 32.6475 156.482 32.7158 156.707 32.7842C156.941 32.8525 157.205 32.9014 157.498 32.9307V34ZM165.657 34.498C164.71 34.498 163.782 34.3564 162.874 34.0732C161.976 33.7998 161.277 33.5068 160.779 33.1943L160.34 34.1904H159.197L159.007 28.7266H160.076C160.223 29.166 160.467 29.6641 160.809 30.2207C161.15 30.7676 161.541 31.2607 161.98 31.7002C162.439 32.1396 162.962 32.5107 163.548 32.8135C164.144 33.1162 164.778 33.2676 165.452 33.2676C166.341 33.2676 167 33.0967 167.43 32.7549C167.869 32.4033 168.089 31.8662 168.089 31.1436C168.089 30.7529 167.991 30.4307 167.796 30.1768C167.601 29.9229 167.332 29.7031 166.99 29.5176C166.609 29.3223 166.189 29.1562 165.73 29.0195C165.281 28.8828 164.725 28.7168 164.061 28.5215C163.396 28.3262 162.825 28.1309 162.347 27.9355C161.878 27.7305 161.39 27.4131 160.882 26.9834C160.442 26.6025 160.091 26.1436 159.827 25.6064C159.563 25.0693 159.432 24.4297 159.432 23.6875C159.432 22.3105 160.008 21.1973 161.16 20.3477C162.322 19.498 163.841 19.0732 165.716 19.0732C166.604 19.0732 167.42 19.166 168.162 19.3516C168.914 19.5273 169.544 19.7227 170.052 19.9375L170.359 19.0732H171.473L171.707 24.0684H170.667C170.325 23.0527 169.739 22.1787 168.909 21.4463C168.079 20.7041 167.186 20.333 166.229 20.333C165.477 20.333 164.886 20.4893 164.456 20.8018C164.026 21.1143 163.812 21.5488 163.812 22.1055C163.812 22.8477 164.124 23.3848 164.749 23.7168C165.384 24.0488 166.268 24.3613 167.4 24.6543C169.148 25.1035 170.428 25.7188 171.238 26.5C172.049 27.2715 172.454 28.2578 172.454 29.459C172.454 31.0605 171.824 32.3008 170.564 33.1797C169.314 34.0586 167.679 34.498 165.657 34.498Z" fill="#B3B3C8"/>
</svg>
