<svg width="60" height="60" viewBox="0 0 60 60" fill="none" xmlns="http://www.w3.org/2000/svg">
<circle cx="30" cy="30" r="29.5" fill="#E5F1FF" stroke="#E5F1FF"/>
<path d="M28.3209 30.6508L30.6503 28.3212C30.696 28.2755 30.7323 28.2213 30.757 28.1616C30.7818 28.1019 30.7945 28.0379 30.7945 27.9733C30.7945 27.9086 30.7818 27.8447 30.757 27.785C30.7323 27.7253 30.696 27.671 30.6503 27.6254L29.4094 26.3845C29.6644 25.9171 29.8689 25.4238 30.0194 24.913H31.7733C31.9038 24.913 32.029 24.8611 32.1213 24.7688C32.2136 24.6765 32.2655 24.5513 32.2655 24.4208V21.1268C32.2655 20.9963 32.2136 20.8711 32.1213 20.7788C32.029 20.6865 31.9038 20.6346 31.7733 20.6346H30.0233C29.8728 20.1231 29.6676 19.6293 29.4114 19.1617L30.6503 17.9225C30.696 17.8768 30.7323 17.8226 30.757 17.7629C30.7818 17.7031 30.7945 17.6391 30.7945 17.5745C30.7945 17.5098 30.7818 17.4458 30.757 17.3861C30.7323 17.3264 30.696 17.2721 30.6503 17.2264L28.3209 14.8968C28.2753 14.8511 28.2211 14.8148 28.1614 14.7901C28.1017 14.7653 28.0377 14.7526 27.973 14.7526C27.9084 14.7526 27.8444 14.7653 27.7847 14.7901C27.725 14.8148 27.6708 14.8511 27.6251 14.8968L26.3859 16.1363C25.9183 15.8801 25.4245 15.6749 24.913 15.5243V13.7738C24.9131 13.7092 24.9004 13.6451 24.8756 13.5854C24.8509 13.5257 24.8147 13.4714 24.769 13.4257C24.7233 13.38 24.669 13.3437 24.6092 13.319C24.5495 13.2943 24.4855 13.2816 24.4208 13.2816H21.1266C21.0619 13.2816 20.9979 13.2943 20.9382 13.319C20.8784 13.3437 20.8242 13.38 20.7785 13.4257C20.7327 13.4714 20.6965 13.5257 20.6718 13.5854C20.647 13.6451 20.6343 13.7092 20.6344 13.7738V15.5274C20.1237 15.678 19.6305 15.8826 19.1632 16.1377L17.9226 14.8968C17.8769 14.8511 17.8226 14.8148 17.7629 14.79C17.7032 14.7653 17.6392 14.7525 17.5745 14.7525C17.5099 14.7525 17.4459 14.7653 17.3861 14.79C17.3264 14.8148 17.2722 14.8511 17.2265 14.8968L14.8969 17.2264C14.8511 17.2721 14.8148 17.3264 14.7901 17.3861C14.7653 17.4458 14.7526 17.5098 14.7526 17.5745C14.7526 17.6391 14.7653 17.7031 14.7901 17.7629C14.8148 17.8226 14.8511 17.8768 14.8969 17.9225L16.1372 19.1631C15.8821 19.6306 15.6775 20.1239 15.5269 20.6346H13.7738C13.7092 20.6346 13.6452 20.6473 13.5855 20.672C13.5257 20.6967 13.4714 20.733 13.4257 20.7787C13.38 20.8244 13.3438 20.8787 13.3191 20.9384C13.2943 20.9981 13.2816 21.0622 13.2817 21.1268V24.4208C13.2816 24.4854 13.2943 24.5495 13.3191 24.6092C13.3438 24.6689 13.38 24.7232 13.4257 24.7689C13.4714 24.8146 13.5257 24.8509 13.5855 24.8756C13.6452 24.9003 13.7092 24.913 13.7738 24.913H15.5241C15.6747 25.4245 15.88 25.9183 16.1363 26.3859L14.8969 27.6254C14.8511 27.671 14.8149 27.7253 14.7901 27.785C14.7654 27.8447 14.7526 27.9086 14.7526 27.9733C14.7526 28.0379 14.7654 28.1019 14.7901 28.1616C14.8149 28.2213 14.8511 28.2755 14.8969 28.3212L17.2259 30.6508C17.3183 30.743 17.4435 30.7947 17.574 30.7947C17.7045 30.7947 17.8296 30.743 17.922 30.6508L19.1612 29.4113C19.6289 29.6675 20.1228 29.8728 20.6344 30.0236V31.7741C20.6344 31.9046 20.6862 32.0298 20.7785 32.1221C20.8708 32.2144 20.996 32.2663 21.1266 32.2663H24.4208C24.5514 32.2663 24.6766 32.2144 24.7689 32.1221C24.8612 32.0298 24.913 31.9046 24.913 31.7741V30.0202C25.4237 29.8696 25.9169 29.665 26.3843 29.4099L27.6251 30.6508C27.7174 30.743 27.8426 30.7948 27.973 30.7948C28.1035 30.7948 28.2287 30.743 28.3209 30.6508ZM26.8132 28.4466C26.735 28.3683 26.6327 28.3187 26.5228 28.3057C26.4129 28.2927 26.3019 28.3172 26.2076 28.3752C25.6196 28.7367 24.9778 29.0025 24.3064 29.1627C24.1989 29.1885 24.1033 29.2496 24.0348 29.3364C23.9663 29.4231 23.9289 29.5303 23.9287 29.6408V31.2805H21.6188V29.6453C21.6186 29.5347 21.5812 29.4274 21.5126 29.3406C21.4439 29.2539 21.3481 29.1928 21.2405 29.1672C20.5691 29.0066 19.9277 28.7397 19.3406 28.3766C19.2463 28.3184 19.1351 28.2938 19.025 28.3066C18.9149 28.3195 18.8124 28.3691 18.734 28.4475L17.5744 29.6062L15.9414 27.9727L17.1002 26.8137C17.1785 26.7353 17.2281 26.6328 17.2409 26.5228C17.2538 26.4128 17.2292 26.3016 17.1711 26.2073C16.808 25.6199 16.5413 24.9781 16.381 24.3063C16.3554 24.1987 16.2943 24.1029 16.2076 24.0343C16.1209 23.9656 16.0135 23.9282 15.9029 23.9281H14.266V21.6187H15.9054C16.016 21.6185 16.1232 21.5812 16.2099 21.5127C16.2967 21.4442 16.3578 21.3485 16.3836 21.241C16.5435 20.5696 16.8094 19.9281 17.1711 19.3403C17.2289 19.2459 17.2534 19.1348 17.2404 19.0249C17.2274 18.9149 17.1779 18.8125 17.0996 18.7342L15.9414 17.5743L17.5744 15.9414L18.7343 17.1013C18.8125 17.1795 18.9149 17.2291 19.0248 17.2421C19.1347 17.255 19.2457 17.2306 19.3401 17.1727C19.928 16.8112 20.5697 16.5454 21.241 16.3852C21.3485 16.3594 21.4442 16.2982 21.5127 16.2115C21.5812 16.1248 21.6185 16.0176 21.6188 15.9071V14.266H23.9287V15.9026C23.9288 16.0132 23.9662 16.1205 24.0349 16.2073C24.1035 16.294 24.1993 16.3551 24.3069 16.3807C24.9787 16.5409 25.6204 16.8075 26.2079 17.1705C26.3021 17.2288 26.4134 17.2536 26.5235 17.2407C26.6335 17.2278 26.736 17.1781 26.8143 17.0996L27.973 15.9408L29.6063 17.5743L28.4475 18.7334C28.3692 18.8118 28.3197 18.9143 28.3068 19.0244C28.294 19.1345 28.3186 19.2456 28.3766 19.34C28.7397 19.9273 29.0063 20.569 29.1664 21.2407C29.192 21.3483 29.2531 21.4442 29.3398 21.5128C29.4266 21.5814 29.5339 21.6188 29.6445 21.619H31.2811V23.9286H29.6414C29.5309 23.9289 29.4236 23.9663 29.3369 24.0348C29.2502 24.1034 29.189 24.1991 29.1633 24.3066C29.0032 24.978 28.7374 25.6197 28.3758 26.2076C28.3178 26.3018 28.2933 26.4129 28.3063 26.5228C28.3193 26.6326 28.3689 26.7349 28.4472 26.8131L29.6063 27.9733L27.973 29.6062L26.8132 28.4466Z" fill="#293FCC"/>
<path d="M22.7739 18.5132C21.9312 18.5132 21.1074 18.7631 20.4068 19.2312C19.7061 19.6994 19.16 20.3648 18.8375 21.1434C18.515 21.9219 18.4307 22.7786 18.5951 23.6051C18.7595 24.4315 19.1653 25.1907 19.7611 25.7866C20.357 26.3824 21.1162 26.7882 21.9426 26.9526C22.7691 27.117 23.6258 27.0327 24.4043 26.7102C25.1829 26.3877 25.8483 25.8416 26.3165 25.1409C26.7846 24.4403 27.0345 23.6165 27.0345 22.7738C27.0332 21.6442 26.584 20.5613 25.7852 19.7625C24.9864 18.9637 23.9035 18.5144 22.7739 18.5132ZM22.7739 26.0507C22.1259 26.0507 21.4925 25.8585 20.9537 25.4986C20.4149 25.1386 19.995 24.6269 19.747 24.0283C19.499 23.4297 19.4341 22.771 19.5605 22.1354C19.6869 21.4999 19.9988 20.9161 20.457 20.4579C20.9151 19.9997 21.4988 19.6876 22.1343 19.5611C22.7698 19.4347 23.4286 19.4995 24.0272 19.7474C24.6259 19.9952 25.1376 20.4151 25.4977 20.9538C25.8578 21.4925 26.05 22.1259 26.0501 22.7738C26.0491 23.6424 25.7036 24.4752 25.0894 25.0894C24.4752 25.7036 23.6425 26.0491 22.7739 26.0501V26.0507Z" fill="#293FCC"/>
<path d="M46.2262 35.0869H44.4757C44.3251 34.5754 44.1199 34.0816 43.8637 33.614L45.1029 32.3745C45.1486 32.3289 45.1849 32.2747 45.2096 32.215C45.2344 32.1553 45.2471 32.0913 45.2471 32.0266C45.2471 31.962 45.2344 31.898 45.2096 31.8383C45.1849 31.7786 45.1486 31.7244 45.1029 31.6787L42.7735 29.3497C42.7279 29.304 42.6736 29.2677 42.6139 29.2429C42.5542 29.2182 42.4901 29.2054 42.4255 29.2054C42.3608 29.2054 42.2968 29.2182 42.2371 29.2429C42.1774 29.2677 42.1231 29.304 42.0774 29.3497L40.8383 30.5886C40.3707 30.3324 39.877 30.1272 39.3656 29.9763V28.2258C39.3656 28.0953 39.3138 27.9701 39.2215 27.8778C39.1292 27.7855 39.004 27.7336 38.8734 27.7336H35.5792C35.4486 27.7336 35.3234 27.7855 35.2311 27.8778C35.1388 27.9701 35.087 28.0953 35.087 28.2258V29.9797C34.5762 30.1303 34.0829 30.3349 33.6155 30.59L32.3749 29.3497C32.3292 29.304 32.275 29.2677 32.2153 29.2429C32.1556 29.2182 32.0916 29.2054 32.027 29.2054C31.9624 29.2054 31.8984 29.2182 31.8387 29.2429C31.779 29.2677 31.7247 29.304 31.6791 29.3497L29.3495 31.6787C29.2573 31.771 29.2054 31.8962 29.2054 32.0266C29.2054 32.1571 29.2573 32.2823 29.3495 32.3745L30.5906 33.6154C30.3355 34.0828 30.131 34.5761 29.9806 35.0869H28.2262C28.0956 35.0869 27.9704 35.1388 27.8781 35.2311C27.7858 35.3234 27.734 35.4486 27.734 35.5791V38.8731C27.734 39.0036 27.7858 39.1288 27.8781 39.2211C27.9704 39.3134 28.0956 39.3653 28.2262 39.3653H29.9767C30.1273 39.8768 30.3324 40.3706 30.5887 40.8382L29.3495 42.0774C29.2572 42.1697 29.2054 42.2949 29.2054 42.4254C29.2054 42.556 29.2572 42.6811 29.3495 42.7735L31.6791 45.1031C31.7247 45.1488 31.779 45.1851 31.8387 45.2099C31.8984 45.2346 31.9624 45.2473 32.027 45.2473C32.0916 45.2473 32.1556 45.2346 32.2153 45.2099C32.275 45.1851 32.3292 45.1488 32.3749 45.1031L33.6141 43.8656C34.0816 44.1219 34.5755 44.327 35.087 44.4776V46.2281C35.0869 46.2927 35.0996 46.3567 35.1244 46.4165C35.1491 46.4762 35.1853 46.5305 35.2311 46.5762C35.2768 46.6219 35.331 46.6582 35.3908 46.6829C35.4505 46.7076 35.5145 46.7203 35.5792 46.7203H38.8732C38.9378 46.7203 39.0018 46.7076 39.0616 46.6829C39.1213 46.6582 39.1756 46.6219 39.2213 46.5762C39.267 46.5305 39.3032 46.4762 39.328 46.4165C39.3527 46.3567 39.3654 46.2927 39.3654 46.2281V44.4745C39.8762 44.3238 40.3694 44.1191 40.8369 43.8639L42.0774 45.1045C42.1231 45.1502 42.1774 45.1865 42.2371 45.2113C42.2968 45.236 42.3608 45.2488 42.4255 45.2488C42.4901 45.2488 42.5542 45.236 42.6139 45.2113C42.6736 45.1865 42.7279 45.1502 42.7735 45.1045L45.1029 42.7755C45.1486 42.7298 45.1849 42.6755 45.2096 42.6158C45.2344 42.5561 45.2471 42.4921 45.2471 42.4274C45.2471 42.3628 45.2344 42.2987 45.2096 42.239C45.1849 42.1793 45.1486 42.125 45.1029 42.0794L43.8623 40.8385C44.1173 40.3711 44.3219 39.8779 44.4726 39.3673H46.2262C46.2908 39.3673 46.3548 39.3546 46.4146 39.3299C46.4743 39.3052 46.5286 39.2689 46.5743 39.2232C46.62 39.1775 46.6562 39.1232 46.681 39.0635C46.7057 39.0037 46.7184 38.9397 46.7184 38.8751V35.5791C46.7184 35.5145 46.7057 35.4504 46.681 35.3907C46.6562 35.331 46.62 35.2767 46.5743 35.231C46.5286 35.1853 46.4743 35.149 46.4146 35.1243C46.3548 35.0996 46.2908 35.0869 46.2262 35.0869ZM45.734 38.3812H44.0946C43.9841 38.3814 43.8768 38.4187 43.7901 38.4872C43.7034 38.5558 43.6422 38.6514 43.6164 38.7589C43.4563 39.4303 43.1905 40.072 42.8289 40.6599C42.7711 40.7542 42.7467 40.8653 42.7597 40.9752C42.7726 41.0851 42.8222 41.1874 42.9004 41.2657L44.0605 42.4259L42.4273 44.0588L41.2674 42.8989C41.1891 42.8208 41.0868 42.7713 40.9769 42.7583C40.867 42.7454 40.756 42.7697 40.6616 42.8275C40.0736 43.189 39.4318 43.4548 38.7604 43.615C38.6529 43.6407 38.5572 43.7019 38.4887 43.7886C38.4202 43.8753 38.3828 43.9826 38.3827 44.0931V45.7325H36.0714V44.0959C36.0712 43.9853 36.0338 43.878 35.9652 43.7912C35.8965 43.7045 35.8007 43.6434 35.6931 43.6178C35.0213 43.4576 34.3796 43.191 33.7921 42.828C33.6979 42.7697 33.5867 42.745 33.4766 42.7579C33.3665 42.7707 33.264 42.8205 33.1857 42.8989L32.027 44.0577L30.3938 42.4256L31.5525 41.2665C31.6309 41.1882 31.6806 41.0856 31.6934 40.9755C31.7063 40.8654 31.6816 40.7542 31.6234 40.6599C31.2605 40.0725 30.994 39.4308 30.8339 38.7592C30.8083 38.6516 30.7472 38.5557 30.6605 38.4871C30.5737 38.4185 30.4664 38.3811 30.3558 38.3809H28.7184V36.0713H30.3578C30.4683 36.0711 30.5756 36.0336 30.6623 35.9651C30.749 35.8965 30.8101 35.8008 30.8359 35.6933C30.996 35.0219 31.2618 34.3803 31.6234 33.7923C31.6814 33.6981 31.7058 33.587 31.6929 33.4772C31.6799 33.3673 31.6303 33.265 31.5519 33.1868L30.3938 32.0266L32.027 30.3937L33.1869 31.5536C33.265 31.632 33.3673 31.6817 33.4772 31.6947C33.5871 31.7076 33.6982 31.6831 33.7924 31.625C34.3804 31.2635 35.0222 30.9977 35.6936 30.8375C35.8011 30.8117 35.8968 30.7506 35.9653 30.6638C36.0338 30.5771 36.0711 30.4699 36.0714 30.3594V28.7197H38.3813V30.3563C38.3814 30.4669 38.4188 30.5742 38.4875 30.661C38.5561 30.7477 38.6519 30.8088 38.7595 30.8344C39.4312 30.9948 40.0728 31.2615 40.6602 31.6245C40.7545 31.6828 40.8658 31.7075 40.9759 31.6947C41.086 31.6818 41.1886 31.6321 41.2669 31.5536L42.4256 30.3937L44.0589 32.0269L42.8998 33.186C42.8215 33.2643 42.7719 33.3668 42.759 33.4768C42.7461 33.5869 42.7708 33.698 42.8289 33.7923C43.1919 34.3797 43.4584 35.0214 43.6184 35.693C43.644 35.8007 43.705 35.8966 43.7918 35.9653C43.8785 36.034 43.9859 36.0714 44.0965 36.0716H45.7331L45.734 38.3812Z" fill="#293FCC"/>
<path d="M37.2262 32.9655C36.3835 32.9655 35.5597 33.2153 34.8591 33.6835C34.1584 34.1517 33.6123 34.8171 33.2898 35.5956C32.9673 36.3742 32.883 37.2308 33.0474 38.0573C33.2118 38.8838 33.6176 39.643 34.2134 40.2388C34.8093 40.8347 35.5685 41.2405 36.3949 41.4049C37.2214 41.5693 38.0781 41.4849 38.8566 41.1624C39.6352 40.84 40.3006 40.2939 40.7688 39.5932C41.2369 38.8925 41.4868 38.0688 41.4868 37.2261C41.4855 36.0965 41.0363 35.0135 40.2375 34.2148C39.4387 33.416 38.3558 32.9667 37.2262 32.9655ZM37.2262 40.503C36.5782 40.503 35.9447 40.3108 35.406 39.9508C34.8672 39.5908 34.4472 39.0791 34.1993 38.4805C33.9513 37.8818 33.8864 37.223 34.0128 36.5875C34.1392 35.952 34.4513 35.3682 34.9095 34.91C35.3677 34.4518 35.9515 34.1398 36.587 34.0133C37.2225 33.8869 37.8813 33.9518 38.4799 34.1998C39.0786 34.4478 39.5903 34.8677 39.9503 35.4065C40.3103 35.9452 40.5024 36.5787 40.5024 37.2267C40.5013 38.0952 40.1558 38.9278 39.5416 39.5419C38.9274 40.156 38.0947 40.5014 37.2262 40.5024V40.503Z" fill="#293FCC"/>
<path d="M33.575 17.8659C36.4346 18.7078 38.9043 20.5342 40.5469 23.0218C40.1529 23.3784 39.9039 23.8674 39.847 24.3957C39.7902 24.924 39.9296 25.4548 40.2386 25.887C40.5477 26.3192 41.0049 26.6227 41.5232 26.7398C42.0415 26.8568 42.5848 26.7792 43.0496 26.5218C43.5144 26.2643 43.8683 25.8449 44.044 25.3434C44.2197 24.842 44.2049 24.2934 44.0025 23.8021C43.8 23.3109 43.424 22.9112 42.9459 22.6791C42.4679 22.4471 41.9213 22.3989 41.41 22.5437C39.6405 19.83 36.9609 17.8366 33.8531 16.9218C33.7907 16.9021 33.725 16.8951 33.6599 16.9011C33.5948 16.9072 33.5315 16.9261 33.4737 16.9569C33.416 16.9877 33.365 17.0296 33.3237 17.0803C33.2823 17.1311 33.2515 17.1895 33.2331 17.2523C33.2146 17.315 33.2088 17.3808 33.2161 17.4459C33.2233 17.5109 33.2435 17.5738 33.2754 17.6309C33.3072 17.6881 33.3501 17.7383 33.4016 17.7786C33.4531 17.819 33.5119 17.8487 33.575 17.8659ZM43.1625 24.6207C43.1625 24.8528 43.0937 25.0797 42.9648 25.2726C42.8358 25.4656 42.6526 25.616 42.4382 25.7048C42.2237 25.7936 41.9878 25.8168 41.7602 25.7716C41.5326 25.7263 41.3235 25.6145 41.1594 25.4504C40.9953 25.2863 40.8836 25.0773 40.8383 24.8496C40.793 24.622 40.8163 24.3861 40.9051 24.1717C40.9939 23.9573 41.1443 23.774 41.3372 23.6451C41.5302 23.5162 41.7571 23.4474 41.9891 23.4474C42.3002 23.4477 42.5985 23.5714 42.8185 23.7914C43.0385 24.0113 43.1622 24.3096 43.1625 24.6207Z" fill="#293FCC"/>
<path d="M26.425 42.1339C23.5659 41.2918 21.0968 39.4655 19.4545 36.9781C19.8485 36.6215 20.0976 36.1325 20.1544 35.6042C20.2112 35.0759 20.0719 34.5451 19.7628 34.1129C19.4537 33.6807 18.9965 33.3771 18.4782 33.2601C17.9599 33.1431 17.4166 33.2207 16.9518 33.4781C16.487 33.7356 16.1331 34.155 15.9574 34.6565C15.7817 35.1579 15.7965 35.7065 15.999 36.1978C16.2014 36.689 16.5775 37.0887 17.0555 37.3208C17.5335 37.5528 18.0801 37.601 18.5914 37.4562C20.3605 40.1697 23.0395 42.1631 26.1469 43.0781C26.1921 43.0915 26.239 43.0982 26.2861 43.0981C26.4043 43.0978 26.5185 43.055 26.6077 42.9775C26.697 42.9 26.7554 42.793 26.7722 42.6759C26.789 42.5589 26.7632 42.4398 26.6994 42.3403C26.6356 42.2407 26.5381 42.1675 26.4248 42.1339H26.425ZM16.8375 35.3792C16.8376 35.1471 16.9065 34.9203 17.0355 34.7274C17.1645 34.5345 17.3478 34.3842 17.5622 34.2955C17.7767 34.2068 18.0126 34.1836 18.2401 34.229C18.4677 34.2743 18.6767 34.3861 18.8408 34.5502C19.0048 34.7143 19.1165 34.9234 19.1618 35.151C19.207 35.3786 19.1837 35.6145 19.0949 35.8289C19.0061 36.0433 18.8557 36.2265 18.6627 36.3554C18.4698 36.4843 18.2429 36.5531 18.0109 36.5531C17.6997 36.5528 17.4013 36.429 17.1813 36.2089C16.9613 35.9888 16.8377 35.6904 16.8375 35.3792Z" fill="#293FCC"/>
</svg>
