<svg width="70" height="71" viewBox="0 0 70 71" fill="none" xmlns="http://www.w3.org/2000/svg">
<rect x="0.5" y="0.521973" width="69" height="69" rx="19.5" fill="#E9EDFF" stroke="#E9EDFF"/>
<g clip-path="url(#clip0_1_4868)">
<path d="M49.6667 26.8114V23.1447H20.3333V48.8114H49.6667V45.1447H35C34.5138 45.1447 34.0475 44.9515 33.7036 44.6077C33.3598 44.2639 33.1667 43.7976 33.1667 43.3114V28.6447C33.1667 28.1585 33.3598 27.6921 33.7036 27.3483C34.0475 27.0045 34.5138 26.8114 35 26.8114H49.6667ZM18.5 19.478H51.5C51.9862 19.478 52.4526 19.6712 52.7964 20.015C53.1402 20.3588 53.3333 20.8251 53.3333 21.3114V50.6447C53.3333 51.1309 53.1402 51.5972 52.7964 51.9411C52.4526 52.2849 51.9862 52.478 51.5 52.478H18.5C18.0138 52.478 17.5475 52.2849 17.2036 51.9411C16.8598 51.5972 16.6667 51.1309 16.6667 50.6447V21.3114C16.6667 20.8251 16.8598 20.3588 17.2036 20.015C17.5475 19.6712 18.0138 19.478 18.5 19.478V19.478ZM36.8333 30.478V41.478H49.6667V30.478H36.8333ZM40.5 34.1447H46V37.8114H40.5V34.1447Z" fill="#738CFD"/>
</g>
<defs>
<clipPath id="clip0_1_4868">
<rect width="44" height="44" fill="white" transform="translate(13 13.978)"/>
</clipPath>
</defs>
</svg>
