<svg width="60" height="60" viewBox="0 0 60 60" fill="none" xmlns="http://www.w3.org/2000/svg">
<circle cx="30" cy="30" r="29.5" fill="#E5F1FF" stroke="#E5F1FF"/>
<path d="M26.2528 12.3834C25.7879 12.5867 24.9164 13.313 24.3354 13.9812C23.4348 15.027 23.1733 15.1723 22.0404 15.1723C20.4135 15.1723 18.1185 16.3343 17.0726 17.6997C16.6368 18.2517 16.143 19.4428 15.9396 20.3143C15.6201 21.6507 15.6491 22.1155 16.0268 23.3066C16.5206 24.8463 16.4625 25.0496 15.562 25.0496C14.458 25.0496 12.8602 26.386 12.3373 27.7804C11.3786 30.3079 12.5116 32.7191 15.1262 33.6778C16.4044 34.1717 16.5206 34.2879 16.143 34.6074C15.8815 34.8399 15.6782 35.1885 15.6782 35.4209C15.6782 35.7985 15.7653 35.7985 16.1139 35.508C16.4916 35.1885 16.5497 35.3918 16.5497 37.1058C16.5497 38.8199 16.4625 39.1685 15.8234 39.7495C14.8357 40.6791 14.8647 41.9574 15.8815 42.7708C16.6078 43.3228 16.6368 43.439 16.172 43.6714C15.9106 43.8457 15.6782 44.1653 15.6782 44.4267C15.6782 44.7753 15.7653 44.8044 16.1139 44.5139C16.4625 44.2234 16.5206 44.4558 16.6078 46.0245L16.695 47.8547H22.6795C28.2573 47.8547 28.7512 47.8257 29.3322 47.2737C29.7679 46.8961 30.0004 46.8089 30.1456 47.0413C30.6395 47.8257 32.1792 48 37.3503 48C41.0979 47.9709 42.7538 47.8547 42.9571 47.6223C43.1024 47.419 43.1896 46.6346 43.1314 45.8793C43.0733 44.6301 43.1024 44.5139 43.5963 44.6591C44.2935 44.8915 44.2935 44.572 43.6544 43.8457C43.1605 43.3228 43.1605 43.2647 43.9449 42.7127C45.0198 41.9283 44.9907 40.6791 43.9158 39.6333C43.422 39.1394 43.1314 38.5584 43.1605 38.1226C43.1896 37.7159 43.2186 36.9025 43.2477 36.2634C43.2767 35.3047 43.3348 35.1885 43.7125 35.508C44.2644 35.9728 44.2644 35.6823 43.7125 34.8108C43.2767 34.1717 43.3058 34.1426 44.4387 33.794C45.9494 33.3582 47.5182 31.7895 47.7506 30.4822C48.0992 28.5939 47.1986 26.4731 45.6589 25.5726C44.8164 25.0787 44.8164 25.0206 45.1941 23.9747C46.0656 21.5054 45.4846 19.1232 43.5672 17.2058C41.5336 15.1432 38.8319 14.6203 36.3335 15.7823C35.3167 16.2181 34.9971 16.2762 34.8228 15.9857C33.3703 13.4001 32.092 12.2671 30.6104 12.2671C29.8551 12.2671 29.9132 12.3543 31.2495 12.9644C32.8183 13.6907 33.806 14.7946 34.1547 16.2181C34.4742 17.5254 34.5033 17.5254 35.7815 16.6829C36.8274 16.0147 37.2922 15.8985 39.0352 15.8985C40.8074 15.8985 41.2722 16.0147 42.318 16.741C44.0901 17.9321 45.165 20.169 44.9326 22.2607C44.8455 23.1323 44.555 24.1781 44.2644 24.5848C44.003 25.0206 43.8287 25.3982 43.8868 25.4273C43.9449 25.4563 44.4968 25.7178 45.0779 25.9793C46.5304 26.6474 47.1986 27.7514 47.1986 29.4363C47.1986 32.08 45.3684 33.4745 41.9113 33.4745H39.7906V27.8095V22.1736L37.9894 22.0864C36.2173 21.9993 36.1592 21.9702 36.072 21.1858C36.0139 20.721 36.043 20.14 36.1592 19.8785C36.3044 19.4718 36.3625 19.4718 36.595 19.8204C36.7402 20.0528 36.9436 20.14 37.0598 20.0238C37.205 19.9076 36.9726 19.4718 36.5659 19.0651L35.8396 18.3388L35.1424 19.0942C34.7647 19.5009 34.5614 19.9076 34.7066 20.0238C34.8228 20.169 34.9971 20.0819 35.0552 19.8785C35.3458 19.0651 35.7525 19.6171 35.6653 20.7501L35.5782 21.9993L32.9055 22.0864L30.2037 22.1736V20.0819C30.2037 18.2807 30.2618 18.0483 30.6395 18.3679C31.3367 18.9489 31.1914 17.9902 30.4942 17.3511C29.9423 16.8572 29.8841 16.8572 29.3322 17.3511C28.635 17.9612 28.5768 18.426 29.1869 18.1936C29.5355 18.0483 29.6227 18.3679 29.6227 20.0819V22.1445H26.8628H24.103V20.8082C24.103 19.6461 24.1611 19.5009 24.5387 19.8204C25.2069 20.3724 25.1198 19.4428 24.4516 18.8617C23.9577 18.3969 23.8706 18.426 23.2895 19.0361C22.5633 19.7914 22.418 20.3724 23.0862 19.8204C23.4639 19.5009 23.522 19.6461 23.522 20.8082V22.1445H21.7789H20.0358L19.9777 27.7223L19.8906 33.3292L18.2928 33.4163C17.4212 33.4745 16.2882 33.4454 15.7653 33.3292C13.7027 32.9515 12.2211 30.7436 12.5987 28.652C12.8893 27.1994 14.4871 25.7178 16.0558 25.4854L17.3341 25.282L16.7821 23.8004C15.3005 19.8785 17.7408 16.0728 21.9532 15.8114C23.6672 15.6952 23.8415 15.608 24.4516 14.7074C24.8293 14.1555 25.7298 13.4001 26.4852 13.0225C27.2405 12.6448 27.7634 12.2671 27.6763 12.1509C27.4439 11.9185 27.2986 11.9476 26.2528 12.3834ZM39.1514 29.3492L39.0352 35.9728L38.1056 37.8902C36.9726 40.2143 34.6776 42.4222 31.8015 44.02L29.797 45.1239L27.502 43.7295C24.5678 41.9864 22.6504 40.0981 21.5755 37.9193C20.7621 36.2343 20.7621 36.2343 20.675 29.4654L20.5587 22.7255H29.9132H39.2677L39.1514 29.3492ZM20.0358 34.6946C20.0358 35.8566 20.8783 38.1807 21.8079 39.6333C22.8828 41.2892 24.3063 42.5093 27.3858 44.3686C28.6059 45.0949 29.6227 45.8212 29.6227 45.9374C29.6227 46.0536 29.3612 46.4022 29.0126 46.7218C28.4606 47.2156 27.8215 47.2737 23.4348 47.3609C17.0145 47.4771 17.1307 47.5061 17.1307 45.6178C17.1307 44.4558 17.2179 44.1943 17.4793 44.4558C18.0894 45.0658 18.3799 44.8334 17.886 44.0781C17.4503 43.4099 17.4503 43.3518 18.1475 42.6546C19.1352 41.6669 19.0771 40.6791 18.0022 39.7785C17.1888 39.0813 17.1307 38.878 17.1307 37.0768C17.1307 35.3918 17.1888 35.1885 17.5665 35.508C18.3218 36.1472 18.438 35.5371 17.7117 34.7817L17.0436 34.0555H18.5252C19.8906 34.0555 20.0358 34.1136 20.0358 34.6946ZM41.9985 34.7817C41.4174 35.6533 41.3884 35.9728 41.9404 35.5371C42.4923 35.0723 42.6085 35.3918 42.5504 37.3092C42.5214 38.7036 42.3761 39.0813 41.737 39.6914C40.6912 40.6501 40.6912 41.9283 41.7079 42.7418C42.4633 43.3518 42.4633 43.3809 41.9694 43.9328C41.6789 44.2524 41.5336 44.601 41.6498 44.7172C41.766 44.8334 41.9694 44.7463 42.0856 44.5429C42.4342 44.02 42.5504 44.4267 42.5504 45.9664V47.2737L37.1179 47.3609C31.8015 47.419 31.6853 47.419 30.9009 46.7508C30.4652 46.3731 30.2037 45.9083 30.3199 45.734C30.4071 45.5597 31.5401 44.8044 32.8183 44.0491C36.6821 41.7831 38.7447 39.1685 39.5291 35.5661L39.8487 34.0555H41.156H42.4633L41.9985 34.7817ZM17.857 40.3305C18.4671 40.9406 18.3218 41.8702 17.5665 42.3641C16.3754 43.1485 15.01 41.2311 16.0268 40.2143C16.5206 39.7204 17.305 39.7785 17.857 40.3305ZM43.6834 40.3305C44.555 41.202 44.0611 42.4803 42.8409 42.4803C42.4923 42.4803 42.0856 42.335 41.8823 42.1317C41.6789 41.9283 41.5336 41.5216 41.5336 41.173C41.5336 39.9528 42.8119 39.459 43.6834 40.3305Z" fill="#354AD0"/>
<path d="M27.5599 30.1046C26.4559 30.8599 25.5554 32.3996 25.5554 33.5326C25.5554 33.9103 25.8459 34.8109 26.2235 35.5081C27.066 37.193 28.4024 37.9193 30.3197 37.745C31.5689 37.6288 31.9175 37.4545 32.8762 36.4377C33.864 35.3628 33.9802 35.0723 33.9802 33.7069C33.9802 31.8186 33.283 30.5694 31.8594 29.9012C30.3778 29.204 28.78 29.2621 27.5599 30.1046ZM31.8885 30.5694C33.0796 31.2957 33.4863 32.3415 33.312 34.1717C33.2248 35.2757 32.9924 35.7695 32.4114 36.2925C30.8717 37.5998 28.6348 37.5126 27.2984 36.0891C24.3933 32.9806 28.2571 28.3615 31.8885 30.5694Z" fill="#354AD0"/>
<path d="M30.6393 32.8935C30.3197 33.6779 30.0002 34.346 29.884 34.346C29.7677 34.346 29.5353 33.9393 29.361 33.4164C29.1867 32.9225 28.9543 32.5739 28.8672 32.6901C28.6057 32.9225 29.332 35.7986 29.6515 35.7986C29.913 35.7986 30.6683 34.4332 31.4527 32.5158C31.8013 31.7314 31.8304 31.4409 31.5689 31.4409C31.3656 31.4409 30.9588 32.08 30.6393 32.8935Z" fill="#354AD0"/>
<path d="M28.9834 12.18C29.1868 12.2672 29.4482 12.2381 29.5354 12.151C29.6516 12.0638 29.4773 11.9767 29.1577 12.0057C28.8382 12.0057 28.751 12.0929 28.9834 12.18Z" fill="#354AD0"/>
<path d="M38.5121 17.7288C38.425 17.874 38.9188 18.1645 39.6451 18.3388C41.0105 18.6875 42.0564 19.7623 42.6374 21.4183L42.9279 22.2898L42.9569 21.4764C42.986 20.3143 42.2888 19.0942 41.1848 18.426C39.9937 17.6707 38.7445 17.3511 38.5121 17.7288Z" fill="#354AD0"/>
</svg>
